<svg xmlns="http://www.w3.org/2000/svg" width="1024" height="1027" viewBox="0 0 1024 1027" version="1.1"><path d="M 478.500 5.109 C 386.025 10.930, 299.356 41.623, 220.500 96.477 C 214.003 100.996, 193.131 116.731, 192 117.962 C 191.725 118.262, 187.675 121.698, 183 125.599 C 109.763 186.705, 51.660 273.718, 23.570 364.354 C 8.880 411.754, 2.488 451.726, 1.301 503.619 C 0.134 554.609, 5.351 597.777, 18.568 646.500 C 24.503 668.379, 25.432 671.355, 31.612 688.290 C 66 782.535, 127.737 864.979, 209 925.179 C 269.208 969.782, 337.245 1000.200, 409.848 1014.973 C 428.681 1018.805, 454.619 1022.463, 474.252 1024.055 C 493.868 1025.646, 548.548 1024.761, 567.500 1022.546 C 593.730 1019.480, 625.092 1013.646, 643 1008.502 C 682.506 997.153, 708.731 987.154, 739.817 971.587 C 791.668 945.622, 831.770 916.444, 874.519 873.577 C 901.969 846.051, 918.749 825.651, 939.165 794.988 C 968.121 751.496, 991.777 699.356, 1004.948 649.993 C 1027.071 567.088, 1029.514 493.509, 1012.869 411.500 C 1000.414 350.140, 973.539 286.612, 937.198 232.630 C 906.720 187.356, 874.040 152.187, 826.036 113 C 813.271 102.580, 788.650 85.818, 768.500 73.831 C 682.113 22.438, 581.597 -1.381, 478.500 5.109 M 508.329 14.482 C 504.506 16.116, 503 18.658, 503 23.480 C 503 28.602, 506.590 32, 512 32 C 517.585 32, 521 28.623, 521 23.101 C 521 15.941, 514.794 11.719, 508.329 14.482 M 378.798 33.048 C 376.132 35.714, 375.817 36.602, 376.290 40.126 C 376.954 45.077, 379.259 47.770, 383.516 48.569 C 387.696 49.353, 392.745 46.800, 394.109 43.213 C 397.871 33.317, 386.246 25.600, 378.798 33.048 M 634.500 31.208 C 629.661 33.983, 628.180 38.470, 630.494 43.346 C 632.140 46.814, 635.902 49, 640.226 49 C 643.601 49, 648 43.624, 648 39.500 C 648 32.562, 640.341 27.858, 634.500 31.208 M 481.500 43.108 C 402.501 48.075, 324.456 74.160, 256 118.477 C 250.225 122.216, 240.325 129.107, 234 133.790 C 134.804 207.237, 67.463 313.944, 46.119 431.500 C 38.023 476.088, 36.679 529.204, 42.551 572.500 C 50.175 628.719, 64.835 676.507, 89.484 725.500 C 140.789 827.474, 224.899 906.003, 331 950.990 C 423.080 990.032, 528.524 998.235, 625.375 973.892 C 669.488 962.804, 715.152 943.860, 753.408 920.777 C 791.646 897.706, 818.516 876.482, 849.524 844.861 C 871.103 822.854, 881.957 809.971, 899.110 786 C 906.645 775.469, 918.522 756.985, 922.563 749.500 C 923.751 747.300, 927.431 740.550, 930.741 734.500 C 947.427 704.005, 961.841 666.304, 971.423 628.099 C 995.534 531.955, 989.038 434.073, 952.501 343 C 919.238 260.087, 865.245 189.998, 792.500 135.300 C 770.520 118.774, 745.372 103.349, 719.500 90.527 C 646.558 54.376, 563.973 37.922, 481.500 43.108 M 491 70.582 C 425.485 74.918, 374.403 87.968, 319.496 114.398 C 289.063 129.046, 249.728 154.263, 229.500 172.093 C 227.850 173.547, 223.239 177.516, 219.253 180.913 C 158.681 232.531, 109.402 307.125, 85.089 384 C 64.790 448.182, 59.626 522.733, 70.993 587.521 C 87.707 682.780, 132.664 768.240, 200.691 834.065 C 207.833 840.976, 217.687 849.956, 222.588 854.022 C 227.490 858.087, 231.725 861.688, 232 862.024 C 232.275 862.361, 237.900 866.688, 244.500 871.641 C 304.797 916.891, 376.085 946.691, 448.500 956.918 C 473.614 960.464, 486.078 961.286, 514 961.233 C 543.872 961.178, 565.495 959.285, 591.836 954.420 C 646.613 944.303, 700.707 923.211, 749 893.139 C 760.530 885.960, 762.218 884.792, 778.986 872.396 C 799.978 856.876, 828.232 831.280, 845.100 812.500 C 893.271 758.869, 928.805 692.245, 945.903 623.500 C 960.078 566.508, 963.163 516.092, 955.936 459.547 C 945.162 375.245, 908.187 293.157, 851.416 227.500 C 802.960 171.460, 741.981 127.623, 676.500 101.753 C 637.654 86.407, 596.288 76.256, 557.160 72.467 C 541.895 70.989, 502.016 69.853, 491 70.582 M 260.025 81.975 C 254.158 87.842, 257.790 98, 265.754 98 C 270.354 98, 272.921 96.434, 274.494 92.669 C 276.227 88.520, 275.368 84.435, 272.244 81.977 C 268.901 79.347, 262.654 79.346, 260.025 81.975 M 752.660 81.131 C 747.915 83.889, 747.593 92.540, 752.097 96.250 C 755.312 98.898, 761.546 98.545, 764.545 95.545 C 770.135 89.956, 765.993 79.964, 758.114 80.030 C 756.126 80.047, 753.672 80.542, 752.660 81.131 M 578 92.059 C 579.375 93.166, 582.525 95.493, 585 97.229 C 611.794 116.024, 643.788 145.263, 664.079 169.500 C 686.896 196.752, 701.091 218.571, 715.980 249.278 C 730.519 279.262, 738.858 304.380, 745.434 338 C 759.794 411.411, 747.587 479.982, 708.918 543.118 C 690.504 573.184, 665.981 596.589, 637.500 611.281 C 628.534 615.906, 618.805 620.138, 618.300 619.634 C 618.084 619.418, 620.966 617.066, 624.704 614.407 C 633.373 608.241, 656.111 585.623, 662.807 576.505 C 668.664 568.529, 679.305 550.972, 680.993 546.500 C 682.375 542.840, 681.777 543.471, 674.822 553.005 C 657.017 577.416, 626.891 602.977, 600 616.490 C 580.026 626.527, 554.273 634.275, 531.621 637.063 C 519.474 638.559, 490.695 637.758, 476.500 635.531 C 433.880 628.842, 396.038 614.097, 369.119 593.690 C 352.350 580.978, 335.349 563.415, 325.722 548.859 L 320.519 540.992 318.226 547.746 C 302.280 594.703, 300.929 648.484, 314.514 695.500 C 335.465 768.009, 381.319 833.225, 447.500 884.639 C 474.320 905.475, 517.768 930.374, 546.803 941.547 C 554.090 944.351, 554.131 944.355, 565.303 943.188 C 595.507 940.032, 641.072 928.293, 669.470 916.351 C 673.853 914.508, 678.015 913, 678.720 913 C 679.424 913, 679.999 912.663, 679.998 912.250 C 679.996 911.837, 673.809 911.373, 666.248 911.219 C 615.070 910.172, 564.140 897.774, 519 875.376 C 478.331 855.196, 447.136 831.898, 416.369 798.727 C 377.602 756.930, 349.879 702.066, 342.592 652.720 C 340.886 641.168, 340.453 625, 341.850 625 C 343.583 625, 350.680 630.869, 356.500 637.114 C 363.336 644.451, 366.874 650.663, 373.520 667 C 393.661 716.509, 422.050 754.237, 462.500 785.250 C 499.288 813.456, 542.920 832.652, 593.500 842.885 C 639.589 852.209, 702.908 852.614, 753 843.905 C 765.113 841.798, 793.909 835.738, 800.216 833.968 C 807.297 831.980, 838.606 798.963, 858.029 773 C 866.606 761.536, 886.162 731.828, 885.541 731.207 C 885.165 730.832, 873.003 738.714, 872 739.983 C 870.284 742.154, 843.802 757.762, 829.500 765.032 C 784.975 787.664, 736.158 801.931, 686 806.971 C 628.023 812.796, 569.525 804.172, 524.614 783.180 C 494.544 769.125, 476.996 756.958, 454.406 734.500 C 433.224 713.443, 420.717 696.342, 408.077 671.153 C 401.748 658.541, 401.653 657.613, 406.885 659.459 C 421.180 664.503, 429.655 670.522, 442.535 684.780 C 462.967 707.397, 480.436 721.005, 508 735.776 C 556.297 761.657, 618.194 770.539, 683.500 760.959 C 729.904 754.151, 777.350 735.539, 820.500 707.215 C 855.058 684.532, 884.414 657.925, 913.797 622.657 C 918.525 616.982, 935.380 594.027, 936.889 591.208 C 938.057 589.025, 941.460 566.688, 943.091 550.500 C 945.511 526.472, 944.315 483.233, 940.591 460.153 L 939.356 452.500 938.147 457 C 930.498 485.478, 929.075 489.878, 919.647 514.205 C 907.147 546.459, 883.764 585.287, 860.151 613 C 788.560 697.021, 681.517 740.635, 582.929 725.952 C 559.574 722.474, 541.160 716.728, 520.500 706.471 C 494.357 693.492, 471.496 673.264, 454.136 647.750 C 450.426 642.298, 450.856 642.077, 459.772 644.852 C 464.219 646.236, 467.715 648.408, 473.611 653.450 C 496.883 673.350, 530.874 690.295, 557.747 695.393 C 578.162 699.265, 604.510 700.291, 624 697.973 C 664.668 693.136, 707.284 677.212, 743.161 653.447 C 816.938 604.577, 866.050 527.348, 885.494 429.629 C 891.833 397.770, 894.845 371.887, 895.693 341.979 L 896.303 320.458 892.002 312.479 C 880.551 291.237, 864.655 267.612, 847.350 246.120 C 836.161 232.223, 818.448 213.346, 819.557 216.500 C 819.944 217.600, 821.988 223.324, 824.100 229.220 C 832.282 252.058, 839.637 283.981, 843.175 312 C 845.260 328.519, 844.957 378.128, 842.669 395 C 833.506 462.542, 813.424 517.557, 780.364 565.686 C 748.242 612.449, 700.290 649.500, 652 664.870 C 632.481 671.082, 609.727 673.840, 592.697 672.057 C 586.570 671.415, 581.367 670.701, 581.135 670.469 C 580.652 669.985, 581.586 669.667, 588.500 667.963 C 633.569 656.856, 676.490 632.708, 707.122 601.225 C 729.376 578.353, 746.283 554.564, 760.397 526.268 C 783.693 479.560, 795.217 427.209, 793.694 375 C 791.622 303.946, 771.285 238.461, 730.184 170.500 C 721.067 155.424, 708.099 135.957, 704.637 132.150 C 699.796 126.825, 666.498 112.726, 638.500 104.146 C 624.760 99.936, 601.746 94.354, 588.328 91.978 C 574.737 89.572, 574.911 89.570, 578 92.059 M 436.500 91.680 C 435.400 91.926, 429.325 93.250, 423 94.620 C 400.789 99.434, 374.495 107.343, 355.965 114.783 C 336.703 122.517, 317 131.425, 317 132.399 C 317 132.600, 327.913 132.761, 341.250 132.757 C 391.332 132.742, 435.489 141.129, 477.554 158.645 C 488.381 163.153, 514.682 176.529, 525 182.774 C 548.401 196.938, 572.014 214.892, 590.665 232.703 C 637.298 277.235, 669.625 334.389, 678.503 388 C 680.425 399.607, 682.159 420.422, 681.374 422.467 C 680.927 423.633, 679.529 422.985, 675.030 419.523 C 662.880 410.174, 656.021 399.761, 647.023 377 C 632.104 339.266, 610.873 307.572, 581.373 279 C 541.870 240.738, 493.707 214.618, 437.500 200.973 C 373.896 185.532, 301.800 188.057, 223.500 208.468 L 206.500 212.899 199.637 220.200 C 181.721 239.256, 160.206 266.757, 147.269 287.137 C 139.168 299.899, 125.586 323.939, 126.172 324.480 C 126.352 324.646, 131 321.232, 136.500 316.893 C 169.127 291.153, 208.122 269.854, 247.004 256.536 C 295.193 240.030, 348.220 233.910, 398 239.110 C 487.713 248.481, 556.876 287.569, 605.763 356.528 C 612.847 366.521, 622.853 385.480, 621.669 386.665 C 619.973 388.361, 598.978 379.403, 589 372.727 C 586.525 371.071, 579.550 364.657, 573.500 358.475 C 552.451 336.964, 530.901 321.142, 504.468 307.791 C 476.375 293.603, 449.408 285.375, 416 280.801 C 400.194 278.636, 361.508 279.225, 344 281.896 C 285.554 290.812, 229.683 315.999, 177.500 356.957 C 150.595 378.074, 122.705 406.323, 102.424 433 C 86.039 454.553, 84.919 456.498, 83.447 465.958 C 80.174 486.999, 79.227 516.165, 80.994 541.500 C 82.071 556.928, 84.819 580.338, 85.897 583.250 C 86.371 584.531, 87.473 581.905, 89.442 574.805 C 98.900 540.690, 116.925 500.386, 135.353 472.147 C 170.286 418.615, 213 380.942, 271.989 351.636 C 305.256 335.108, 332.097 326.495, 369.500 320.343 C 378.215 318.910, 386.109 318.537, 407.500 318.550 C 435.733 318.568, 443.632 319.363, 462.494 324.087 C 492.540 331.613, 520.710 346.208, 538.664 363.549 L 546.500 371.119 535.375 370.686 C 524.463 370.261, 524.034 370.153, 512.875 365.019 C 471.088 345.796, 430.520 341.598, 381.945 351.471 C 317.101 364.651, 256.985 401.298, 212.999 454.460 C 194.965 476.256, 175.874 508.194, 164.556 535.500 C 162.504 540.450, 159.777 546.975, 158.496 550 C 155.117 557.980, 151.561 569.002, 146.562 586.996 C 136.250 624.115, 130.840 658.502, 129.335 696.500 L 128.741 711.500 133.505 720.500 C 145.522 743.204, 161.284 766.792, 177.228 785.931 C 182.770 792.585, 187.468 797.865, 187.668 797.665 C 187.868 797.466, 186.925 792.172, 185.574 785.901 C 179.211 756.367, 177.491 738.704, 177.551 703.500 C 177.620 663.686, 180.465 639.969, 189.605 603.039 C 200.727 558.095, 219.848 513.740, 241.782 482 C 270.580 440.328, 311.781 407.196, 357.436 389 C 377.499 381.004, 396.804 375.900, 412 374.576 C 426.906 373.277, 432.262 373.044, 433.244 373.651 C 433.815 374.004, 429.606 375.978, 423.891 378.037 C 378.583 394.366, 345.310 414.683, 315.921 443.964 C 279.277 480.474, 255.532 524.168, 241.084 581.675 C 232.566 615.580, 230.496 632.917, 230.540 670 C 230.589 712.332, 234.558 738.881, 247.208 781.500 C 255.396 809.087, 273.913 847.370, 293.279 876.749 L 303.331 891.998 314.416 897.735 C 337.178 909.516, 361.143 919.477, 385.500 927.284 C 397.436 931.109, 417.923 936.411, 418.507 935.826 C 418.707 935.626, 412.539 930.071, 404.800 923.482 C 366.723 891.056, 332.071 848.112, 310.304 806.374 C 289.608 766.689, 279.001 733.622, 272.332 688 C 270.187 673.327, 269.914 635.064, 271.847 620 C 278.640 567.067, 301.903 516.861, 335.937 481.682 C 361.289 455.476, 376.013 441.921, 389.564 432.309 C 416.942 412.889, 446.862 400.594, 479.381 395.401 C 492.905 393.242, 519.822 392.485, 531.604 393.932 C 552.148 396.456, 579.504 404.059, 596.500 411.968 C 609.422 417.982, 625.480 427.491, 635.835 435.261 C 644.530 441.786, 663.786 459.965, 671.573 469 C 677.394 475.754, 688.773 491.572, 692.999 498.783 C 695.347 502.789, 697.406 505.927, 697.576 505.757 C 698.676 504.658, 704.684 486.394, 707.530 475.500 C 721.600 421.645, 717.379 364.816, 695.274 310.500 C 679.839 272.572, 653.866 233.984, 622.890 202.960 C 577.667 157.667, 517.456 119.571, 452.960 95.445 C 441.126 91.018, 440.300 90.829, 436.500 91.680 M 160.751 158.757 C 152.807 163.683, 156.413 176, 165.799 176 C 172.947 176, 177.622 166.792, 173.228 161.367 C 169.594 156.881, 165.245 155.971, 160.751 158.757 M 853.784 158.738 C 845.835 163.667, 849.205 176, 858.500 176 C 865.539 176, 869.866 168.509, 866.541 162.079 C 863.972 157.111, 858.653 155.718, 853.784 158.738 M 83 259.273 C 81.625 259.956, 79.692 262.165, 78.704 264.181 C 77.082 267.493, 77.049 268.183, 78.370 271.343 C 81.104 277.886, 88.945 279.231, 93.411 273.923 C 97.750 268.766, 95.954 261.225, 89.881 259.108 C 85.982 257.749, 86.068 257.747, 83 259.273 M 931.312 261.250 C 928.474 264.387, 927.872 267.757, 929.468 271.577 C 931.085 275.449, 933.619 277, 938.323 277 C 943.365 277, 946.096 274.329, 946.721 268.787 C 947.174 264.762, 946.904 263.813, 944.667 261.576 C 941.195 258.105, 934.311 257.936, 931.312 261.250 M 30.248 379.250 C 27.197 382.519, 26.558 386.245, 28.429 389.863 C 31.525 395.850, 38.282 396.871, 43.077 392.077 C 46.803 388.350, 46.918 384.244, 43.411 380.077 C 41.270 377.533, 40.089 377, 36.585 377 C 33.481 377, 31.787 377.601, 30.248 379.250 M 981.455 379.455 C 979.648 381.261, 979 382.990, 979 386 C 979 396.756, 994.531 398.596, 996.632 388.089 C 997.356 384.468, 995.476 379.325, 992.929 377.962 C 989.513 376.134, 984.067 376.843, 981.455 379.455 M 492.505 405.031 C 454.958 408.385, 417.144 423.909, 386.500 448.549 C 371.379 460.707, 351.571 482.094, 342.089 496.500 C 339.413 500.566, 340.826 499.417, 349.649 490.352 C 385.685 453.330, 425.313 430.534, 469.500 421.405 C 480.463 419.140, 485.822 418.646, 503.704 418.249 C 516.687 417.961, 528.900 418.234, 535.204 418.954 C 582.767 424.386, 624.632 445.978, 667.917 487.402 C 674.332 493.540, 674.879 493.892, 671.964 490 C 637.143 443.504, 590.682 414.033, 540.399 406.547 C 527.326 404.600, 505.173 403.899, 492.505 405.031 M 471.159 440.730 C 467.855 441.136, 467.838 441.164, 469.659 443.227 C 471.475 445.285, 471.465 445.304, 469 444.618 C 463.896 443.197, 460 442.764, 460.012 443.619 C 460.019 444.104, 461.637 445.545, 463.607 446.822 C 465.578 448.098, 466.972 449.361, 466.706 449.628 C 466.299 450.035, 458.189 448.274, 451.750 446.380 C 447.713 445.193, 450.486 447.747, 456.750 450.987 C 464.870 455.186, 463.385 455.887, 451.404 453.510 C 441.395 451.523, 438.763 451.915, 445.590 454.375 C 460.565 459.771, 462.946 461.440, 454.500 460.620 C 432.172 458.452, 430.329 458.985, 446.537 462.923 C 460.307 466.268, 460.161 466.967, 445.691 466.985 C 438.640 466.993, 433.125 467.393, 433.422 467.874 C 433.719 468.355, 438.358 469.299, 443.731 469.972 C 449.104 470.645, 454.103 471.530, 454.840 471.938 C 455.578 472.347, 450.740 473.270, 444.090 473.990 C 437.441 474.710, 432 475.640, 432 476.056 C 432 476.473, 436.387 477.102, 441.750 477.455 C 456.958 478.455, 456.998 478.466, 450.500 479.871 C 433.634 483.518, 430.872 484.267, 431.652 484.984 C 432.119 485.413, 437.441 485.396, 443.481 484.946 C 449.520 484.496, 454.628 484.295, 454.832 484.498 C 455.035 484.702, 449.981 486.498, 443.601 488.490 C 437.220 490.481, 432 492.536, 432 493.056 C 432 494.310, 433.018 494.258, 443 492.500 C 447.675 491.677, 452.175 491.009, 453 491.017 C 455.296 491.038, 452.832 492.426, 444 496.086 C 436.630 499.140, 433.100 501.433, 434.151 502.485 C 434.574 502.908, 450.435 498.691, 456.891 496.440 C 458.029 496.043, 458.052 496.232, 457.019 497.477 C 456.324 498.315, 455.329 499, 454.808 499 C 454.286 499, 450.524 501.025, 446.447 503.500 C 442.370 505.975, 438.576 508, 438.017 508 C 437.458 508, 437 508.675, 437 509.500 C 437 510.325, 437.177 511, 437.394 511 C 437.610 511, 442.329 509.200, 447.879 507 C 453.429 504.800, 458.290 503, 458.682 503 C 459.073 503, 457.393 504.445, 454.947 506.212 C 452.501 507.978, 448.125 511.152, 445.223 513.263 C 437.048 519.212, 440.050 519.650, 450.450 514.027 C 455.563 511.262, 460.266 509, 460.899 509 C 461.533 509, 459.002 511.637, 455.276 514.859 C 441.506 526.768, 441.558 528.835, 455.409 520.108 C 460.684 516.785, 465 514.400, 465 514.808 C 465 515.216, 461.625 518.903, 457.500 523 C 453.375 527.097, 450 530.799, 450 531.225 C 450 533.163, 453.116 531.496, 460.750 525.473 C 465.288 521.893, 469 519.252, 469 519.603 C 469 519.955, 466.188 524.040, 462.750 528.681 C 459.313 533.322, 456.613 537.318, 456.750 537.560 C 457.419 538.737, 458.822 537.672, 466.114 530.449 C 470.444 526.161, 474.209 522.875, 474.481 523.148 C 474.754 523.420, 472.452 527.661, 469.365 532.572 C 463.032 542.650, 462.372 544, 463.785 544 C 464.334 544, 468.070 540.063, 472.087 535.250 C 476.104 530.438, 479.781 526.050, 480.258 525.500 C 481.550 524.012, 479.523 529.024, 475.010 538.478 C 472.805 543.100, 471 547.358, 471 547.940 C 471 550.437, 472.876 548.384, 478.819 539.379 C 482.295 534.114, 485.300 529.966, 485.496 530.162 C 485.692 530.359, 484.295 534.991, 482.391 540.455 C 480.487 545.920, 479.064 551.091, 479.228 551.946 C 479.550 553.614, 480.917 551.571, 487.440 539.674 C 489.498 535.920, 491.375 533.042, 491.611 533.278 C 491.847 533.514, 490.907 537.935, 489.522 543.103 C 488.138 548.271, 487.004 553.288, 487.003 554.250 C 486.997 558.362, 489.094 555.347, 492.568 546.250 C 496.674 535.495, 498.581 532.415, 497.674 538 C 497.362 539.925, 496.833 544.200, 496.500 547.500 C 496.167 550.800, 495.685 554.513, 495.428 555.750 C 495.139 557.147, 495.443 557.999, 496.231 557.997 C 496.996 557.995, 498.726 553.543, 500.590 546.776 L 503.680 535.558 504.394 547.500 C 505.424 564.730, 506.078 564.665, 508.952 547.048 C 510.060 540.257, 511.149 534.518, 511.371 534.296 C 511.819 533.848, 513.521 543.417, 514.537 552.096 C 515.215 557.891, 516.406 560.927, 517.552 559.781 C 517.916 559.417, 518.548 553.806, 518.957 547.310 C 519.366 540.815, 519.769 536.237, 519.851 537.138 C 519.986 538.625, 524.353 554.509, 525.562 557.917 C 526.766 561.309, 527.729 557.017, 527.001 551.500 C 524.373 531.562, 524.659 530.983, 529.963 545.500 C 531.772 550.450, 533.638 554.920, 534.110 555.433 C 536.210 557.721, 536.062 554.312, 533.630 544.370 C 532.188 538.479, 531.200 533.467, 531.434 533.232 C 531.669 532.998, 532.844 534.762, 534.045 537.153 C 538.066 545.153, 543.149 553.026, 543.967 552.521 C 544.412 552.245, 543.014 547.228, 540.861 541.370 C 538.708 535.513, 537.145 530.522, 537.388 530.279 C 537.630 530.036, 540.652 534.149, 544.102 539.419 C 549.803 548.126, 552 550.548, 552 548.125 C 552 547.644, 550.378 543.706, 548.395 539.375 C 546.413 535.044, 544.384 530.375, 543.887 529 L 542.984 526.500 545.242 529.038 C 550.957 535.463, 556.530 542.205, 556.833 543.060 C 557.195 544.079, 560 544.382, 560 543.402 C 560 543.073, 557.606 538.911, 554.681 534.152 C 551.755 529.393, 548.983 524.825, 548.520 524 C 547.578 522.323, 550.427 524.756, 559.350 533.250 C 562.672 536.413, 565.528 539, 565.695 539 C 567.209 539, 564.931 534.813, 559.502 527.615 C 555.928 522.877, 553.427 519, 553.943 519 C 554.459 519, 555.137 519.413, 555.449 519.917 C 556.400 521.457, 570.778 532, 571.925 532 C 573.782 532, 573.108 530.477, 569.906 527.437 C 568.205 525.822, 564.964 522.304, 562.704 519.620 C 558.768 514.944, 558.719 514.806, 561.548 516.318 C 563.172 517.187, 567.189 519.709, 570.475 521.924 C 577.180 526.444, 580.540 525.975, 574.894 521.307 C 568.550 516.063, 561.968 509.699, 562.420 509.247 C 562.668 508.999, 566.947 510.945, 571.929 513.571 C 576.910 516.198, 581.327 518.005, 581.743 517.587 C 582.582 516.746, 581.389 515.703, 571.550 508.683 C 567.838 506.034, 564.995 503.672, 565.234 503.433 C 565.472 503.194, 570.092 504.799, 575.499 507 C 586.747 511.576, 586.005 511.382, 585.983 509.750 C 585.974 509.063, 581.249 505.874, 575.483 502.664 C 569.717 499.454, 565 496.674, 565 496.486 C 565 496.298, 569.163 497.296, 574.250 498.703 C 592.467 503.742, 593.506 503.030, 578.439 495.833 C 572.631 493.058, 568.019 490.664, 568.189 490.512 C 568.360 490.361, 573 491.064, 578.500 492.075 C 589.949 494.180, 591.001 494.279, 590.996 493.250 C 590.994 492.837, 586.382 490.982, 580.746 489.128 C 575.111 487.273, 569.836 485.398, 569.024 484.962 C 568.212 484.525, 573.162 484.339, 580.024 484.548 L 592.500 484.928 584 482.872 C 564.703 478.205, 564.896 478.427, 579.355 477.538 C 586.425 477.103, 591.639 476.395, 590.941 475.964 C 590.244 475.533, 584.320 474.620, 577.778 473.936 C 571.235 473.251, 566.445 472.343, 567.135 471.917 C 567.824 471.491, 573.025 470.576, 578.694 469.883 C 584.362 469.190, 589 468.258, 589 467.812 C 589 467.365, 583.600 467, 577 467 C 570.400 467, 565 466.634, 565 466.186 C 565 465.739, 569.388 464.322, 574.750 463.038 C 580.112 461.754, 585.175 460.312, 586 459.834 C 587.413 459.015, 579.251 459.342, 567.750 460.564 C 565.138 460.842, 563 460.692, 563 460.231 C 563 459.771, 567.388 457.750, 572.750 455.740 C 583.354 451.765, 582.805 451.177, 570.662 453.500 C 557.656 455.989, 557.118 455.431, 567.352 450.067 C 573.985 446.590, 572.397 446.065, 562.784 448.556 C 556.382 450.215, 554.396 449.835, 557.560 447.558 C 558.627 446.791, 560.400 445.465, 561.500 444.613 C 563.491 443.071, 563.490 443.063, 561.399 443.032 C 560.244 443.014, 557.858 443.502, 556.098 444.116 C 552.675 445.309, 550.589 444.514, 553.029 442.946 C 554.320 442.116, 554.317 441.880, 553 441.015 C 551.558 440.069, 547 439.591, 547 440.386 C 547 440.598, 548.742 443.411, 550.871 446.636 C 556.487 455.144, 558.406 461.775, 558.355 472.500 C 558.320 479.968, 557.835 482.692, 555.508 488.500 C 551.963 497.345, 548.299 502.722, 542.263 507.939 C 527.447 520.744, 506.872 523.118, 489.132 514.067 C 482.289 510.576, 472.427 500.137, 468.947 492.701 C 462.495 478.914, 462.694 462.605, 469.460 450.505 C 471.367 447.095, 473.618 443.732, 474.464 443.030 C 476.059 441.706, 476.559 439.881, 475.250 440.160 C 474.837 440.248, 472.996 440.505, 471.159 440.730 M 482.270 449.483 C 475.688 452.344, 473.070 461.323, 476.960 467.701 C 485.467 481.653, 506.580 469.858, 499.154 455.302 C 495.861 448.847, 489.096 446.515, 482.270 449.483 M 410.968 463.250 C 407.306 465.656, 403.866 468.802, 403.038 470.500 C 400.895 474.899, 401.072 499.265, 403.313 508.312 C 405.305 516.355, 405.424 518.666, 403.631 514.500 C 400.726 507.752, 398.687 496.793, 398.111 484.833 L 397.500 472.166 395.073 474.137 C 392.836 475.953, 392.611 476.950, 392.215 486.804 C 391.828 496.429, 392.910 506.512, 395.561 518 C 396.058 520.153, 395.980 520.254, 395.005 518.724 C 392.937 515.484, 389.085 498.173, 388.394 489.019 C 388.019 484.059, 387.490 480, 387.217 480 C 383.547 480, 382.817 499.639, 385.927 514.710 C 388.168 525.570, 392.735 536.594, 399.469 547.398 C 406.860 559.257, 413.095 565.523, 421.917 569.957 C 435.032 576.551, 466.223 587.086, 455.500 581.301 C 450.397 578.548, 441.787 571.894, 435.250 565.652 C 427.603 558.349, 426.882 555.864, 434.406 562.740 C 445.311 572.706, 462.371 581.907, 478.468 586.502 C 490.925 590.058, 509.477 591.561, 523.573 590.157 C 549.418 587.582, 568.275 579.693, 587.486 563.419 C 592.417 559.242, 593.840 558.383, 592.323 560.500 C 588.474 565.872, 574.486 577.454, 568.618 580.128 C 566.394 581.142, 564.994 583, 566.455 583 C 567.347 583, 588.599 575.141, 594 572.814 C 609.130 566.295, 613.936 562.152, 622.809 547.977 C 633.016 531.673, 637.856 516.441, 638.692 498 C 639.222 486.320, 639.122 485.336, 637.163 483 L 635.067 480.500 635.033 483.625 C 634.973 489.323, 630.973 510.565, 629.018 515.572 C 626.739 521.407, 626.420 519.326, 628.416 511.660 C 630.322 504.343, 631.409 489.427, 630.541 482.486 C 630.070 478.710, 629.116 476.116, 627.668 474.668 L 625.500 472.500 624.905 484 C 624.577 490.325, 623.977 497.075, 623.570 499 C 622.179 505.590, 618.859 516.192, 618.346 515.680 C 618.065 515.398, 618.600 511.417, 619.536 506.834 C 621.660 496.428, 621.271 472.249, 618.934 469.401 C 616.887 466.908, 605.902 459.942, 604.948 460.532 C 604.508 460.804, 604.562 462.474, 605.069 464.242 C 607.929 474.213, 607.089 490.237, 602.881 506 C 593.883 539.700, 561.931 567.953, 527.047 573.053 C 515.793 574.699, 496.699 573.770, 486.500 571.081 C 455.559 562.923, 429.064 536.819, 419.895 505.461 C 417.926 498.725, 417.562 495.191, 417.534 482.500 C 417.515 474.250, 417.843 465.587, 418.262 463.250 C 418.681 460.913, 418.666 459, 418.229 459 C 417.792 459, 414.525 460.913, 410.968 463.250 M 376.607 489.582 C 374.774 494.358, 376.545 512.199, 379.886 522.625 C 383.934 535.256, 394.355 552.988, 400.632 557.925 C 405.090 561.432, 405.010 560.280, 400.310 553.270 C 389.317 536.877, 382.879 518.146, 379.508 492.750 C 378.870 487.946, 377.718 486.687, 376.607 489.582 M 642.553 495.250 C 640.596 515.377, 633.444 536.305, 623.205 551.868 C 617.332 560.795, 617.570 560.311, 619.651 559.105 C 631.659 552.147, 644.792 524.599, 646.575 502.627 C 647.241 494.418, 646.115 488, 644.008 488 C 643.596 488, 642.941 491.262, 642.553 495.250 M 370.210 496.190 C 368.578 497.822, 368.688 503.133, 370.557 512.989 C 373.391 527.924, 380.769 544.603, 385.938 547.758 C 388.594 549.380, 388.535 548.769, 385.541 543.659 C 381.335 536.483, 376.055 520.323, 373.688 507.379 C 371.914 497.679, 371.156 495.244, 370.210 496.190 M 650.633 498.001 C 650.342 499.376, 649.619 503.525, 649.027 507.223 C 647.488 516.838, 643.675 529.409, 639.556 538.446 C 637.600 542.738, 636 546.429, 636 546.648 C 636 546.867, 637.062 546.351, 638.359 545.500 C 641.407 543.503, 647.241 531.569, 649.848 522 C 652.743 511.370, 653.979 499.354, 652.400 497.195 C 651.283 495.666, 651.112 495.744, 650.633 498.001 M 363.485 504.314 C 361.015 510.304, 367.929 534.608, 372.614 536.405 C 373.402 536.708, 373.018 534.504, 371.530 530.187 C 370.264 526.509, 368.445 519.900, 367.489 515.500 C 366.534 511.100, 365.410 506.375, 364.992 505 C 364.322 502.792, 364.145 502.712, 363.485 504.314 M 656.217 510.343 C 655.232 516.677, 652.111 527.830, 649.457 534.500 L 648.661 536.500 650.976 534.500 C 654.313 531.617, 656.710 525.605, 658.410 515.856 C 659.807 507.844, 659.676 503, 658.063 503 C 657.675 503, 656.845 506.305, 656.217 510.343 M 13.712 506.012 C 10.336 508.668, 9.434 513.004, 11.447 516.897 C 13.359 520.594, 15.799 522.010, 20.184 521.968 C 28.284 521.891, 31.875 512.721, 26.077 506.923 C 22.532 503.378, 17.529 503.010, 13.712 506.012 M 1000.364 505.170 C 995.866 507.348, 994.707 514.375, 998.068 519.096 C 999.824 521.561, 1000.813 522, 1004.614 522 C 1012.557 522, 1016.319 515.386, 1012.537 508.072 C 1010.407 503.953, 1005.361 502.750, 1000.364 505.170 M 357.119 513.315 C 356.504 514.863, 356 516.751, 356 517.509 C 356 519.133, 360.599 524.730, 361.333 523.999 C 361.757 523.576, 359.836 514.742, 358.615 511.500 C 358.408 510.950, 357.735 511.767, 357.119 513.315 M 661.886 518.031 C 660.175 524.596, 661.195 525.543, 664.282 520.257 C 665.453 518.252, 665.855 516.271, 665.433 514.587 C 664.439 510.629, 663.603 511.441, 661.886 518.031 M 340 526.094 C 340 527.213, 346.420 534.248, 358 545.819 C 385.931 573.728, 418.363 592.169, 456.657 601.918 C 476.530 606.978, 488.437 608.402, 511 608.417 C 528.889 608.430, 534.532 608.062, 544.600 606.227 C 569.319 601.721, 586.912 596.056, 606.500 586.294 C 628.831 575.165, 645.079 562.837, 667 540.391 C 679.587 527.502, 681.196 525.497, 679.196 525.195 C 676.712 524.819, 674.529 526.416, 657.500 541.062 C 620.922 572.522, 587.911 588.732, 544.218 596.688 C 530.091 599.260, 489.603 599.226, 475.500 596.630 C 452.209 592.343, 428.408 584.027, 408.500 573.220 C 387.439 561.788, 375.174 552.741, 351.628 531.267 C 347.235 527.261, 343.899 525, 342.378 525 C 341.070 525, 340 525.493, 340 526.094 M 389.987 580.811 C 395.444 585.543, 412.912 595.676, 424.749 600.975 C 452.920 613.586, 480.195 619.237, 512.500 619.154 C 546.436 619.068, 577.148 611.574, 605.993 596.342 C 617.436 590.299, 633.331 579.998, 632.497 579.164 C 632.210 578.877, 630.668 579.609, 629.070 580.790 C 624.792 583.953, 608.613 592.444, 600 596.046 C 583.973 602.749, 559.431 609.513, 541.500 612.168 C 527.941 614.175, 492.234 613.880, 478.500 611.647 C 459.243 608.516, 438.996 602.971, 423.084 596.470 C 416.077 593.607, 395.585 583.367, 390 579.936 L 386.500 577.787 389.987 580.811 M 33.500 631.924 C 26.925 634.686, 25.558 642.429, 30.816 647.127 C 34.430 650.356, 36.787 650.679, 40.966 648.517 C 44.413 646.735, 46.498 641.434, 45.145 637.894 C 43.296 633.059, 37.667 630.173, 33.500 631.924 M 984.357 631.980 C 981.187 633.276, 979 636.972, 979 641.034 C 979 649.808, 990.693 652.977, 995.575 645.525 C 997.609 642.421, 996.947 636.468, 994.282 633.907 C 992.058 631.771, 987.185 630.824, 984.357 631.980 M 80.672 753.043 C 75.130 757.402, 76.694 766.754, 83.330 768.944 C 89.599 771.013, 95 767.066, 95 760.415 C 95 756.911, 94.467 755.730, 91.923 753.589 C 88.219 750.472, 84.190 750.276, 80.672 753.043 M 931.923 753.923 C 927.249 758.597, 928.760 766.416, 934.823 768.927 C 938.350 770.388, 944.178 768.404, 945.920 765.150 C 948.061 761.148, 947.238 756.378, 943.923 753.589 C 939.756 750.082, 935.650 750.197, 931.923 753.923 M 157.589 855.077 C 154.150 859.163, 154.244 863.122, 157.875 867.186 C 163.570 873.560, 173 870.023, 173 861.513 C 173 852.773, 163.031 848.609, 157.589 855.077 M 854.672 854.043 C 849.356 858.225, 850.624 867.359, 856.879 869.950 C 862.955 872.466, 869 868.141, 869 861.278 C 869 857.833, 868.438 856.384, 866.354 854.452 C 863.071 851.410, 858.235 851.240, 854.672 854.043 M 259.455 933.455 C 255.939 936.970, 256.030 943.197, 259.646 946.548 C 263.412 950.038, 268.301 949.853, 272.077 946.077 C 278.148 940.006, 274.518 931, 266 931 C 262.990 931, 261.261 931.648, 259.455 933.455 M 752.712 933.012 C 749.336 935.668, 748.434 940.004, 750.447 943.897 C 752.305 947.491, 754.776 949, 758.799 949 C 765.351 949, 769.583 941.961, 766.553 936.103 C 763.765 930.711, 757.434 929.297, 752.712 933.012 M 378.545 983.545 C 374.723 987.368, 375.387 994.243, 379.913 997.718 C 382.731 999.882, 388.824 999.267, 391.545 996.545 C 395.061 993.030, 394.970 986.803, 391.354 983.452 C 387.686 980.053, 381.997 980.094, 378.545 983.545 M 633.913 982.282 C 626.677 987.838, 630.194 999, 639.182 999 C 644.619 999, 648 995.549, 648 989.998 C 648 986.856, 647.385 985.335, 645.354 983.452 C 642.436 980.748, 636.678 980.159, 633.913 982.282 M 508.357 997.954 C 502.493 1000.424, 501.215 1008.369, 505.923 1013.077 C 509.287 1016.441, 513.266 1016.882, 517.027 1014.308 C 520.476 1011.948, 520.967 1011.017, 520.985 1006.806 C 521.012 1000.229, 514.234 995.478, 508.357 997.954" stroke="none" fill="#070707" fill-rule="evenodd"/></svg>