<?xml version="1.0" standalone="no"?>
<!DOCTYPE svg PUBLIC "-//W3C//DTD SVG 20010904//EN"
 "http://www.w3.org/TR/2001/REC-SVG-20010904/DTD/svg10.dtd">
<svg version="1.0" xmlns="http://www.w3.org/2000/svg"
 width="318.000000pt" height="319.000000pt" viewBox="0 0 318.000000 319.000000"
 preserveAspectRatio="xMidYMid meet">
<g transform="translate(0.000000,319.000000) scale(0.100000,-0.100000)"
fill="#000000" stroke="none">
<path d="M1422 3170 c-685 -72 -1236 -571 -1384 -1254 -32 -148 -32 -494 0
-642 209 -962 1201 -1503 2123 -1158 489 183 866 627 980 1154 51 232 29 600
-47 830 -232 698 -935 1148 -1672 1070z m193 -45 c0 -22 -31 -33 -47 -17 -17
17 -1 44 24 40 15 -2 23 -10 23 -23z m-397 -48 c4 -20 -25 -34 -40 -19 -15 15
-1 44 19 40 10 -2 19 -11 21 -21z m790 -5 c3 -16 -2 -22 -17 -22 -24 0 -35 15
-27 36 9 23 40 13 44 -14z m-278 -17 c789 -52 1419 -827 1321 -1625 -117 -944
-1052 -1527 -1955 -1218 -766 262 -1171 1147 -875 1913 178 462 591 810 1079
910 83 17 270 34 320 29 14 -2 63 -6 110 -9z m-880 -135 c0 -23 -13 -32 -34
-24 -19 7 -21 25 -5 41 16 16 39 5 39 -17z m1528 -4 c-2 -13 -10 -21 -23 -21
-23 0 -33 34 -14 45 20 13 40 -1 37 -24z m-1845 -230 c6 -15 -11 -36 -29 -36
-14 0 -27 28 -18 41 8 14 41 11 47 -5z m2162 -11 c0 -30 -39 -27 -43 3 -3 20
0 23 20 20 15 -2 23 -10 23 -23z m-2407 -312 c4 -25 -22 -37 -38 -17 -10 11
-10 17 0 29 17 20 34 14 38 -12z m2650 -7 c-2 -13 -10 -21 -23 -21 -23 0 -33
34 -14 45 20 13 40 -1 37 -24z m-2802 -351 c8 -20 -13 -45 -32 -38 -14 5 -19
34 -7 46 11 12 33 7 39 -8z m2949 -16 c0 -28 -23 -32 -39 -6 -8 14 -8 20 4 27
22 14 35 6 35 -21z m-3000 -394 c0 -22 -31 -33 -47 -17 -17 17 -1 44 24 40 15
-2 23 -10 23 -23z m3060 0 c0 -22 -31 -33 -47 -17 -17 17 -1 44 24 40 15 -2
23 -10 23 -23z m-3021 -371 c21 -8 21 -40 0 -48 -21 -8 -34 1 -34 23 0 28 9
34 34 25z m2964 -28 c-4 -25 -36 -34 -44 -12 -8 21 13 46 32 39 8 -3 14 -15
12 -27z m-2800 -362 c2 -12 -4 -24 -12 -27 -19 -7 -40 18 -32 39 8 22 40 13
44 -12z m2636 20 c19 -7 21 -40 4 -47 -20 -7 -38 4 -38 22 0 28 9 34 34 25z
m-2391 -326 c7 -21 -4 -38 -23 -38 -23 0 -34 16 -26 35 7 18 43 20 49 3z
m2161 -4 c8 -21 -1 -34 -24 -34 -22 0 -33 23 -17 39 16 16 34 14 41 -5z
m-1846 -252 c3 -16 -2 -22 -17 -22 -24 0 -35 15 -27 36 9 23 40 13 44 -14z
m1527 3 c0 -13 -8 -21 -22 -23 -23 -3 -33 25 -16 42 13 13 38 1 38 -19z
m-1157 -159 c-2 -13 -10 -21 -23 -21 -23 0 -33 34 -14 45 20 13 40 -1 37 -24z
m790 0 c-2 -13 -10 -21 -23 -21 -23 0 -33 34 -14 45 20 13 40 -1 37 -24z
m-393 -51 c0 -22 -31 -33 -47 -17 -17 17 -1 44 24 40 15 -2 23 -10 23 -23z"/>
<path d="M1548 2885 c-6 -72 -21 -88 -42 -47 -9 17 -16 45 -16 62 0 29 -2 30
-45 30 -51 0 -50 1 -30 -66 17 -57 20 -120 5 -129 -20 -12 -48 40 -60 113 -11
58 -16 72 -29 68 -9 -3 -28 -8 -43 -12 -16 -3 -28 -7 -28 -9 0 -1 7 -19 15
-38 14 -35 21 -107 10 -107 -15 0 -64 63 -70 89 -9 40 -15 43 -61 27 -46 -16
-45 -20 5 -95 36 -53 59 -131 38 -131 -19 0 -67 60 -98 122 -17 35 -32 64 -34
66 -1 1 -24 -7 -50 -18 l-48 -21 35 -37 c39 -40 52 -62 62 -105 l7 -28 -39 20
c-22 11 -52 41 -72 70 -41 60 -34 58 -88 23 l-43 -29 77 -63 77 -64 -32 -15
-33 -15 -61 63 c-56 58 -62 62 -83 50 -26 -13 -70 -57 -63 -62 2 -2 33 -21 68
-42 l64 -38 -24 -18 c-32 -25 -33 -25 -98 25 l-58 45 -41 -42 c-53 -54 -55
-49 33 -83 71 -27 76 -31 70 -54 -9 -36 -7 -37 -95 13 l-80 46 -41 -57 -40
-57 123 -30 123 -31 3 -38 c3 -34 1 -38 -15 -31 -10 3 -65 24 -123 45 -58 21
-112 41 -121 44 -14 6 -79 -92 -79 -120 0 -5 77 -17 172 -26 177 -17 188 -21
188 -65 0 -15 -5 -20 -17 -17 -10 2 -85 17 -168 34 -82 16 -160 32 -171 36
-18 5 -25 -3 -48 -60 -34 -87 -34 -100 2 -93 90 18 348 19 382 2 l34 -18 -35
-18 c-33 -17 -51 -17 -229 -8 -106 5 -194 9 -195 7 -12 -12 -38 -183 -42 -276
l-6 -113 39 16 c265 113 456 170 492 147 39 -26 -130 -87 -425 -153 l-103 -23
0 -36 c0 -65 30 -219 61 -318 228 -714 988 -1104 1698 -872 438 143 775 510
888 967 23 96 27 128 27 288 l1 180 -149 12 c-260 22 -346 40 -346 74 0 31 92
23 324 -26 88 -19 162 -33 164 -30 6 5 -27 158 -36 167 -4 3 -55 3 -113 -2
-119 -10 -347 -16 -353 -9 -2 2 -2 17 1 33 l6 28 141 -6 c78 -4 180 -9 229
-13 l87 -6 -27 77 c-15 42 -32 76 -38 76 -6 0 -78 -14 -160 -31 -150 -30 -215
-32 -215 -5 0 28 47 43 170 55 154 15 190 20 190 28 0 6 -58 113 -66 122 -2 2
-53 -15 -114 -38 -158 -59 -168 -61 -162 -22 2 17 6 31 8 31 9 0 236 59 240
63 4 3 -45 77 -67 101 -4 5 -46 -13 -93 -38 -54 -29 -86 -42 -86 -34 0 7 -3
23 -6 34 -5 19 3 25 66 50 89 35 88 32 36 83 l-44 43 -57 -45 c-51 -40 -61
-44 -81 -35 -33 15 -30 24 19 54 23 14 52 33 65 41 l23 14 -42 34 c-51 44 -41
46 -115 -25 -65 -63 -70 -65 -93 -51 -23 15 -1 52 58 97 60 47 60 47 14 79
-49 33 -43 36 -108 -55 -58 -79 -87 -102 -108 -81 -16 16 1 46 68 120 60 68
60 71 2 95 l-37 15 -24 -48 c-21 -41 -61 -81 -81 -81 -14 0 -2 60 20 99 14 23
25 46 25 50 0 8 -80 35 -85 29 -1 -2 -12 -32 -24 -67 -20 -61 -53 -111 -74
-111 -16 0 -1 83 26 142 l26 57 -42 9 c-45 9 -49 6 -61 -48 -7 -29 -42 -77
-50 -69 -10 9 -11 81 -3 112 7 27 7 27 -38 27 l-45 0 0 -55 c0 -57 -21 -125
-39 -125 -20 0 -31 64 -21 125 5 33 10 61 10 63 0 1 -20 2 -44 2 l-44 0 -4
-55z m437 -389 c188 -30 331 -81 355 -127 36 -66 -29 -406 -107 -563 -64 -132
-130 -199 -312 -319 -35 -23 -77 -62 -95 -85 l-31 -44 0 -303 c0 -355 -6 -336
116 -397 87 -44 119 -76 119 -122 0 -170 -519 -248 -779 -117 -143 72 -136
165 17 239 121 59 116 44 120 382 4 356 0 367 -173 475 -189 119 -298 284
-351 529 -22 106 -37 302 -24 326 26 48 206 108 390 129 52 6 109 13 125 15
75 10 535 -3 630 -18z m-1201 -632 c22 -9 20 -31 -5 -45 -18 -9 -253 -38 -426
-52 -172 -14 6 37 337 96 40 7 77 7 94 1z m1822 -184 c240 -85 244 -87 244
-100 0 -14 2 -14 -175 31 -244 63 -277 73 -312 94 -37 23 -41 32 -15 38 40 11
69 4 258 -63z m-1732 -76 c-14 -19 -85 -56 -242 -125 -225 -100 -242 -106
-242 -91 0 40 465 267 499 245 3 -2 -4 -15 -15 -29z m1686 -71 c69 -37 145
-77 170 -90 70 -35 117 -69 109 -78 -17 -17 -434 164 -466 203 -55 66 23 52
187 -35z m-236 -28 c85 -60 244 -177 257 -189 9 -9 19 -16 23 -16 14 0 86 -64
86 -77 0 -22 -38 -9 -85 30 -5 5 -82 53 -170 108 -154 96 -194 128 -195 158 0
17 53 8 84 -14z m-1424 -13 c0 -33 -100 -107 -387 -284 -120 -73 -114 -29 7
55 25 17 97 70 160 117 137 102 135 101 174 111 44 10 46 10 46 1z m120 -64
c-1 -30 -35 -66 -199 -208 -162 -139 -201 -166 -201 -140 0 13 323 330 353
347 29 16 47 16 47 1z m1227 -41 c36 -13 373 -342 373 -364 0 -7 -5 -13 -11
-13 -12 0 -93 62 -114 86 -5 7 -66 60 -135 119 -88 75 -130 119 -142 146 -19
42 -18 43 29 26z m-127 -47 c16 -11 68 -74 116 -140 48 -66 91 -120 96 -120 4
0 8 -6 8 -13 0 -7 8 -22 18 -33 34 -37 72 -91 72 -102 0 -23 -29 -11 -57 23
-15 20 -44 55 -65 78 -201 232 -238 281 -238 318 0 15 20 10 50 -11z m-1056
-57 c-9 -39 -24 -60 -107 -156 -39 -46 -105 -123 -145 -171 -97 -116 -146
-120 -59 -5 23 31 62 83 86 115 129 173 159 209 186 226 40 24 47 23 39 -9z
m140 -25 c-4 -18 -50 -103 -103 -188 -53 -85 -101 -164 -107 -175 -5 -11 -18
-32 -27 -46 -9 -14 -14 -28 -11 -32 3 -3 -3 -3 -15 0 -33 8 -42 -12 136 318
62 114 93 154 120 155 9 0 11 -10 7 -32z m852 -46 c20 -17 244 -431 244 -452
0 -24 -27 -6 -56 38 -140 212 -234 374 -234 402 0 34 15 38 46 12z m-45 -250
c71 -199 83 -242 69 -242 -15 0 -26 19 -71 125 -5 11 -31 72 -59 135 -41 94
-50 124 -50 173 0 99 20 65 111 -191z m-731 165 c0 -39 -84 -251 -166 -419
-32 -68 -55 -50 -28 23 9 24 17 49 18 54 1 6 7 24 13 40 7 17 33 91 59 165 58
169 104 229 104 137z m1140 -221 c0 -3 -5 -8 -12 -12 -7 -4 -8 -3 -4 4 7 12
16 16 16 8z m-1700 -61 c0 -3 -2 -5 -5 -5 -3 0 -5 2 -5 5 0 3 2 5 5 5 3 0 5
-2 5 -5z m190 -50 c0 -3 -2 -5 -5 -5 -3 0 -5 2 -5 5 0 3 2 5 5 5 3 0 5 -2 5
-5z m0 -80 c0 -3 -2 -5 -5 -5 -3 0 -5 2 -5 5 0 3 2 5 5 5 3 0 5 -2 5 -5z
m1360 0 c0 -3 -2 -5 -5 -5 -3 0 -5 2 -5 5 0 3 2 5 5 5 3 0 5 -2 5 -5z"/>
<path d="M1521 2429 c-22 -18 -25 -18 -48 -3 -23 14 -26 14 -42 0 -22 -20 -35
-20 -51 -1 -12 14 -16 13 -36 -6 -21 -20 -27 -21 -49 -9 -22 12 -27 11 -45 -5
-17 -15 -24 -16 -46 -6 -23 10 -30 9 -48 -8 -18 -17 -24 -18 -45 -6 -22 11
-27 10 -43 -10 -9 -12 -31 -28 -48 -35 -49 -20 -35 -51 32 -71 299 -90 1117
-58 1136 44 3 12 -7 22 -32 32 -19 8 -41 23 -48 34 -12 17 -16 18 -38 6 -22
-12 -28 -11 -46 6 -19 17 -25 18 -49 7 -24 -11 -29 -10 -44 8 -15 18 -18 19
-43 5 -25 -15 -28 -14 -52 8 -15 14 -26 20 -26 13 0 -20 -40 -25 -60 -7 -17
15 -20 15 -43 1 -22 -15 -26 -15 -49 4 -23 17 -27 18 -38 5 -16 -19 -39 -19
-59 -1 -14 13 -19 12 -40 -5z"/>
<path d="M1033 2038 l-51 -53 53 -78 52 -78 52 57 c57 65 59 45 -13 156 -38
58 -31 59 -93 -4z m97 -82 c0 -6 -10 -20 -22 -33 l-21 -23 -25 36 -24 36 23
25 24 24 22 -28 c13 -15 23 -32 23 -37z"/>
<path d="M2041 2020 l-51 -73 40 -47 c64 -77 59 -77 117 10 l51 77 -53 53 -53
52 -51 -72z m77 -84 l-25 -36 -21 23 c-27 29 -27 32 -1 69 l22 30 24 -25 25
-25 -24 -36z"/>
<path d="M1536 1981 c-25 -33 -46 -62 -46 -66 0 -11 91 -125 100 -125 9 0 100
114 100 125 0 10 -92 125 -100 125 -4 0 -28 -27 -54 -59z m83 -40 l21 -30 -25
-28 -25 -28 -25 28 -25 28 22 29 c27 37 32 37 57 1z"/>
<path d="M1302 1977 c-39 -40 -39 -38 -2 -93 37 -53 37 -53 78 -4 l33 40 -33
44 c-40 54 -36 54 -76 13z"/>
<path d="M1802 1964 l-33 -45 33 -39 c42 -49 41 -49 78 4 37 55 37 55 -3 94
-41 39 -35 40 -75 -14z"/>
<path d="M970 1885 c0 -3 2 -5 5 -5 3 0 5 2 5 5 0 3 -2 5 -5 5 -3 0 -5 -2 -5
-5z"/>
<path d="M980 1867 c-2 -56 146 -221 273 -304 191 -126 199 -148 195 -528 -4
-347 -7 -357 -127 -416 -90 -45 -120 -72 -105 -97 27 -43 140 -91 249 -106 40
-5 40 -5 -11 13 -88 32 -164 79 -164 101 0 4 27 19 60 34 146 68 162 119 158
513 l-3 298 -27 51 c-39 75 -116 144 -226 204 -94 53 -197 141 -250 215 -12
17 -22 27 -22 22z"/>
</g>
</svg>
