<svg xmlns="http://www.w3.org/2000/svg" width="1024" height="1027" viewBox="0 0 1024 1027" version="1.1"><path d="M 479 4.698 C 422.923 9.045, 372.252 20.434, 323.513 39.648 C 305.135 46.892, 269.134 64.703, 251.324 75.361 C 235.710 84.705, 218.552 96.226, 207 105.121 C 202.875 108.298, 197.025 112.804, 194 115.135 C 169.976 133.651, 133.511 169.602, 113.468 194.534 C 54.280 268.158, 17.347 353.005, 5.095 443.500 C -2.589 500.251, -0.897 557.644, 10.077 612.500 C 30.648 715.328, 81.577 808.721, 156.263 880.571 C 228.507 950.072, 317.938 996.762, 414.500 1015.392 C 470.590 1026.213, 532.980 1027.454, 590 1018.883 C 697.379 1002.741, 799.870 950.268, 876.105 872.404 C 896.753 851.314, 905.164 841.644, 921.685 820 C 980.034 743.558, 1016.192 646.304, 1022.998 547.500 C 1025.576 510.071, 1025.571 509.752, 1021.881 466.500 C 1013.037 362.837, 968.573 259.869, 898.076 179.801 C 884.143 163.976, 856.834 137.229, 841.500 124.390 C 758.064 54.526, 660.394 14.253, 553.085 5.467 C 537.367 4.180, 491.788 3.707, 479 4.698 M 509.485 14.131 C 502.971 15.869, 501.315 24.743, 506.712 28.988 C 514.128 34.821, 524.161 26.160, 519.374 18.057 C 517.260 14.477, 513.613 13.030, 509.485 14.131 M 378.923 32.923 C 376.928 34.918, 376 36.848, 376 39 C 376 42.667, 380.656 48, 383.858 48 C 390.268 48, 394.578 42.554, 392.895 36.580 C 390.963 29.720, 383.959 27.887, 378.923 32.923 M 634.077 32.589 C 631.629 34.648, 631 35.960, 631 39 C 631 42.040, 631.629 43.352, 634.077 45.411 C 635.769 46.835, 638.279 48, 639.654 48 C 643.287 48, 648 42.918, 648 39 C 648 35.082, 643.287 30, 639.654 30 C 638.279 30, 635.769 31.165, 634.077 32.589 M 483.500 43.086 C 376.563 49.611, 273.612 93.241, 194.628 165.510 C 136.577 218.626, 94.835 280.451, 68.044 353 C 41.244 425.571, 33.044 503.251, 44.135 579.500 C 58.304 676.903, 99.754 764.103, 165.671 835.177 C 232.917 907.684, 323.173 958.066, 420.544 977.452 C 453.383 983.990, 484.421 986.482, 523.374 985.708 C 562.532 984.930, 590.581 981.395, 624.121 973.009 C 661.448 963.676, 689.051 953.465, 724 936.062 C 797.380 899.520, 860.371 843.814, 906.690 774.500 C 958.712 696.651, 986.960 598.867, 984.688 504.500 C 983.699 463.469, 978.793 428.490, 968.977 392.500 C 926.802 237.865, 809.701 115.008, 657 65.189 C 601.867 47.202, 541.691 39.536, 483.500 43.086 M 482.500 79.025 C 375.427 86.885, 277.645 131.702, 201.059 208.018 C 139.511 269.350, 96.167 351.440, 80.557 436.240 C 67.023 509.767, 72.455 583.640, 96.716 656 C 127.100 746.623, 186.724 824.386, 267.060 878.169 C 329.966 920.282, 394.782 943.298, 472.500 951.121 C 488.277 952.709, 536.054 952.727, 552.500 951.151 C 629.002 943.821, 699.814 918.051, 762.479 874.736 C 823.333 832.673, 872.279 776.460, 904.891 711.182 C 944.298 632.301, 958.713 544.571, 946.902 455.500 C 937.004 380.859, 904.398 305.228, 856.152 245 C 824.895 205.980, 790.979 175.364, 748.500 147.822 C 716.762 127.244, 687.245 113.120, 649.765 100.578 C 618.461 90.102, 590.901 84.105, 557.500 80.500 C 539.699 78.579, 499.380 77.786, 482.500 79.025 M 261.500 81.208 C 258.374 83.001, 257.066 85.221, 257.032 88.795 C 256.962 96.061, 266.839 99.993, 271.826 94.686 C 278.450 87.635, 269.855 76.416, 261.500 81.208 M 754.364 81.122 C 749.721 83.474, 748.704 90.381, 752.372 94.646 C 755.411 98.179, 760.982 98.305, 764.583 94.922 C 767.527 92.156, 767.859 86.272, 765.250 83.080 C 763.216 80.592, 757.456 79.556, 754.364 81.122 M 485 90.035 C 430.036 93.555, 376.531 107.789, 326 132.336 C 312.182 139.048, 293.999 149.081, 294.001 149.992 C 294.002 150.271, 296.838 152.029, 300.304 153.898 L 306.606 157.295 317.553 151.302 C 338.554 139.804, 354.148 131.815, 354.638 132.305 C 355.069 132.736, 345.131 147.832, 336.734 159.500 C 334.556 162.526, 330.527 165.367, 320.178 171.171 L 306.500 178.842 302 176.230 C 294.996 172.165, 275.680 162, 274.959 162 C 274.057 162, 255.790 175.128, 256.182 175.494 C 257.090 176.344, 305.490 202, 306.184 202 C 306.633 202, 307 202.264, 307 202.587 C 307 203.788, 296.716 218, 295.846 218 C 295.349 218, 288.993 214.696, 281.721 210.657 C 258.432 197.722, 253.279 195, 252.084 195 C 251.441 195, 240.921 200.409, 228.707 207.020 L 206.500 219.039 196.751 229.270 C 191.389 234.896, 187.001 239.748, 187.001 240.052 C 187 240.355, 189.813 242.092, 193.250 243.912 L 199.500 247.219 212 240.294 C 223.100 234.144, 249.310 220.033, 251.227 219.174 C 251.905 218.871, 281.626 234.386, 283.232 235.882 C 284.138 236.726, 274.076 251, 272.575 251 C 271.976 251, 267.084 248.520, 261.702 245.488 L 251.918 239.976 225.749 254.193 L 199.581 268.411 187.040 261.838 L 174.500 255.265 168.168 263.717 C 164.685 268.366, 161.985 272.295, 162.168 272.448 C 162.351 272.602, 170.600 277.084, 180.500 282.409 C 192.301 288.756, 199.189 291.912, 200.500 291.572 C 201.600 291.287, 213.277 285.192, 226.449 278.027 C 239.620 270.862, 251.001 265, 251.739 265 C 254.449 265, 261.080 269.061, 260.373 270.288 C 259.989 270.955, 257.265 274.955, 254.319 279.178 L 248.964 286.856 228.232 298.064 C 216.829 304.229, 205.660 310.313, 203.411 311.584 L 199.323 313.895 187.911 307.629 C 181.635 304.182, 170.788 298.335, 163.807 294.636 L 151.114 287.910 144.098 299.765 C 134.522 315.948, 134.569 315.759, 140.920 312.540 C 144.147 310.905, 146.885 310.146, 148.131 310.542 C 149.236 310.892, 161.159 317.209, 174.628 324.580 L 199.117 337.981 206.808 333.865 C 211.039 331.602, 222.741 325.259, 232.813 319.771 C 242.885 314.282, 251.282 309.951, 251.474 310.146 C 251.666 310.341, 252.700 315.330, 253.772 321.234 L 255.721 331.968 253.461 331.401 C 251.788 330.981, 244.495 334.550, 225.408 345.129 L 199.615 359.424 188.558 353.604 C 182.476 350.403, 170.545 343.924, 162.044 339.207 L 146.589 330.629 136.544 335.944 C 119.327 345.053, 121.035 343.228, 114.521 359.490 C 111.318 367.487, 108.878 374.183, 109.099 374.370 C 109.319 374.556, 117.600 370.284, 127.500 364.875 C 137.400 359.467, 145.833 355.032, 146.240 355.021 C 146.647 355.009, 158.753 361.360, 173.142 369.134 L 199.304 383.268 204.402 380.671 C 207.206 379.243, 218.948 372.864, 230.495 366.496 L 251.491 354.918 255.306 356.638 C 257.405 357.584, 259.484 359.065, 259.926 359.929 C 261.033 362.089, 264.327 381.006, 263.705 381.629 C 263.428 381.905, 260.684 380.710, 257.606 378.973 L 252.009 375.814 244.755 379.800 C 240.765 381.993, 228.818 388.554, 218.207 394.382 L 198.914 404.977 191.207 400.597 C 166.121 386.342, 146.592 375.943, 145.619 376.323 C 144.630 376.708, 104.564 398.693, 101.172 400.711 C 100.026 401.392, 94 423.228, 94 426.697 C 94 428.340, 94.797 427.983, 112.516 418.382 C 120.757 413.917, 131.796 407.965, 137.046 405.156 L 146.592 400.047 172.546 414.186 C 186.821 421.962, 198.974 428.326, 199.553 428.329 C 200.133 428.331, 205.083 425.852, 210.553 422.820 C 216.024 419.787, 227.558 413.385, 236.185 408.592 L 251.870 399.877 259.185 403.932 C 263.208 406.162, 267.084 408.367, 267.797 408.831 C 268.797 409.483, 273 428.264, 273 432.082 C 273 432.490, 268.612 430.394, 263.250 427.423 C 257.887 424.452, 252.880 422.017, 252.123 422.011 C 250.705 422, 247.975 423.442, 217.749 440.174 C 207.986 445.578, 199.691 450, 199.317 450 C 198.657 450, 186.391 443.332, 159.500 428.356 L 146.500 421.116 140 424.699 C 96.351 448.758, 93.881 450.007, 91.968 448.983 C 89.749 447.795, 89.739 447.824, 87.999 460.756 C 87.389 465.296, 87.167 469.462, 87.508 470.013 C 87.848 470.564, 89.446 471.696, 91.059 472.530 C 93.963 474.032, 94.220 473.921, 118.666 460.499 C 132.238 453.049, 144.301 446.712, 145.474 446.417 C 146.973 446.041, 155.217 450.055, 173.251 459.941 C 187.356 467.673, 199.128 474, 199.411 474 C 199.693 474, 208.604 469.151, 219.212 463.225 C 229.820 457.299, 241.527 450.887, 245.227 448.976 L 251.954 445.502 261.227 450.427 C 278.548 459.627, 277.155 458.060, 279.619 471.097 C 280.804 477.369, 281.674 482.613, 281.552 482.751 C 281.431 482.889, 274.911 479.402, 267.064 475.001 C 259.216 470.600, 252.432 467, 251.987 467 C 251.543 467, 241.354 472.459, 229.346 479.131 C 217.338 485.803, 205.647 492.169, 203.366 493.277 L 199.218 495.293 187.359 489.023 C 180.837 485.574, 168.991 479.126, 161.036 474.694 L 146.571 466.637 141.036 469.671 C 106.367 488.674, 94.573 495, 93.817 495 C 93.324 495, 91.138 494.091, 88.960 492.980 L 85 490.959 85 496.333 C 85 499.288, 84.721 504.372, 84.381 507.630 L 83.762 513.553 88.916 516.358 L 94.071 519.163 120.197 504.931 L 146.322 490.699 155.367 495.532 C 160.342 498.190, 172.307 504.720, 181.956 510.043 C 191.605 515.366, 199.950 519.387, 200.500 518.979 C 201.050 518.571, 203.975 516.903, 207 515.273 C 221.796 507.301, 248.573 492.659, 250.091 491.711 C 251.472 490.848, 255.150 492.471, 269.125 500.110 L 286.447 509.579 288.221 520.039 C 289.196 525.793, 289.883 531.016, 289.747 531.646 C 289.611 532.276, 281.044 528.082, 270.709 522.326 L 251.919 511.861 225.545 526.447 L 199.171 541.033 172.634 526.471 L 146.098 511.909 120.687 525.955 C 106.712 533.680, 94.747 540, 94.099 540 C 93.451 540, 91.138 539.091, 88.960 537.980 L 85 535.959 85.027 538.730 C 85.042 540.253, 85.461 545.703, 85.958 550.839 C 86.896 560.541, 87.774 562.234, 92.551 563.551 C 93.985 563.947, 102.351 559.875, 120.393 550.001 L 146.183 535.885 167.842 547.634 C 179.754 554.096, 191.668 560.653, 194.319 562.206 L 199.137 565.029 225.613 550.447 L 252.089 535.865 264.295 542.573 C 271.008 546.263, 280.602 551.510, 285.617 554.234 L 294.733 559.187 296.772 570.843 C 297.893 577.255, 298.739 582.577, 298.651 582.671 C 298.563 582.765, 294.218 580.480, 288.996 577.594 C 283.773 574.707, 273.358 568.967, 265.850 564.838 L 252.200 557.331 241.850 562.965 C 223.955 572.705, 216.743 576.693, 208.500 581.409 C 204.100 583.926, 200.028 585.988, 199.452 585.993 C 198.876 585.997, 186.726 579.514, 172.452 571.586 L 146.500 557.172 138 561.750 C 133.325 564.268, 121.498 570.762, 111.717 576.182 C 96.978 584.348, 93.601 585.857, 91.987 584.993 C 90.198 584.036, 90.090 584.217, 90.650 587.226 C 92.482 597.071, 94.936 608.269, 95.351 608.684 C 95.612 608.946, 96.878 608.485, 98.163 607.661 C 99.448 606.836, 110.760 600.554, 123.299 593.701 L 146.099 581.241 155.799 586.457 C 161.135 589.326, 173.087 595.842, 182.360 600.936 L 199.220 610.198 203.860 607.660 C 206.412 606.263, 218.175 599.740, 230 593.163 L 251.500 581.206 261.500 586.508 C 267 589.425, 278.700 595.796, 287.500 600.667 L 303.500 609.524 305.306 619.906 C 306.342 625.863, 306.738 630.662, 306.234 631.166 C 305.730 631.670, 302.403 630.407, 298.428 628.205 C 294.618 626.094, 282.891 619.559, 272.369 613.684 C 261.846 607.808, 252.690 603, 252.022 603 C 251.354 603, 239.488 609.357, 225.654 617.127 C 211.819 624.897, 200.049 631.272, 199.499 631.294 C 198.948 631.316, 186.966 624.958, 172.872 617.167 C 158.777 609.375, 146.781 603, 146.212 603 C 145.145 603, 102.157 626.586, 100.657 627.994 C 99.811 628.789, 104.478 645.769, 105.973 647.335 C 106.411 647.794, 112.109 645.195, 118.635 641.559 C 125.161 637.923, 134.154 633.071, 138.619 630.777 L 146.738 626.607 172.710 640.804 C 186.995 648.612, 198.994 655, 199.373 655 C 199.753 655, 211.494 648.700, 225.465 641 C 239.435 633.300, 251.385 627, 252.020 627 C 252.655 627, 255.948 628.525, 259.338 630.390 C 262.727 632.254, 274.242 638.599, 284.927 644.490 L 304.355 655.201 307.585 653.661 L 310.814 652.121 312.409 660.810 C 313.286 665.590, 314.003 670.044, 314.002 670.708 C 314.001 671.372, 311.984 673.097, 309.521 674.541 L 305.042 677.165 289.271 668.433 C 280.597 663.631, 268.676 657.020, 262.780 653.743 L 252.059 647.784 245.280 651.537 C 241.551 653.602, 229.613 660.181, 218.751 666.159 L 199.002 677.028 191.251 672.611 C 175.016 663.360, 147.028 648, 146.406 648 C 144.552 648, 113 666.445, 113 667.528 C 113 668.228, 114.617 672.662, 116.593 677.383 L 120.186 685.965 127.343 681.930 C 131.279 679.710, 137.268 676.493, 140.650 674.781 L 146.801 671.669 172.411 685.835 C 186.497 693.626, 198.584 700, 199.271 700 C 199.958 700, 211.874 693.700, 225.752 686 C 239.629 678.300, 251.408 672, 251.926 672 C 253.006 672, 269.046 680.557, 289.585 692.091 C 297.332 696.441, 304.271 700, 305.004 700 C 305.738 700, 308.792 698.615, 311.792 696.922 C 314.791 695.230, 317.573 694.217, 317.973 694.672 C 318.816 695.631, 321.528 712.849, 320.912 713.333 C 319.519 714.427, 305.692 722, 305.088 722 C 304.240 722, 291.818 715.248, 271 703.473 C 263.025 698.962, 255.515 694.759, 254.311 694.133 C 252.381 693.130, 249.006 694.717, 225.902 707.497 C 211.482 715.474, 199.534 722, 199.351 722 C 199.168 722, 192.377 718.341, 184.259 713.869 C 176.142 709.397, 164.231 702.858, 157.790 699.337 L 146.080 692.935 137.029 698.038 L 127.978 703.140 132.590 712.070 C 135.127 716.981, 137.581 721, 138.044 721 C 138.507 721, 140.510 720.041, 142.496 718.870 L 146.106 716.740 151.303 719.541 C 154.161 721.081, 166.114 727.671, 177.864 734.184 L 199.228 746.027 211.364 739.350 C 218.039 735.678, 229.916 729.117, 237.757 724.770 L 252.014 716.868 259.757 721.086 C 264.016 723.406, 275.937 729.980, 286.248 735.695 L 304.997 746.086 309.498 743.448 L 314 740.810 314 751.734 L 314 762.658 309.173 764.919 L 304.347 767.180 278.873 753.090 C 264.862 745.340, 252.837 739, 252.150 739 C 251.462 739, 239.533 745.300, 225.640 753 C 211.747 760.700, 199.899 767, 199.312 767 C 198.724 767, 187.303 760.935, 173.931 753.523 C 160.560 746.111, 149.462 740.205, 149.268 740.399 C 148.837 740.829, 160.067 757.538, 168.240 768.628 C 174.356 776.926, 177.183 779.066, 194.500 788.504 L 199.500 791.230 212.500 784.038 C 245.429 765.821, 250.721 763, 251.965 763 C 252.696 763, 258.853 766.023, 265.647 769.719 L 278 776.437 278 787.254 L 278 798.070 275.750 796.902 C 274.512 796.260, 268.671 793.059, 262.768 789.790 L 252.036 783.845 228.008 797.058 C 207.068 808.572, 204.141 810.471, 205.240 811.832 C 207.214 814.280, 218.041 824.463, 219.057 824.828 C 219.559 825.009, 226.959 821.296, 235.502 816.578 C 244.044 811.860, 251.588 808.006, 252.266 808.014 C 252.945 808.022, 258.900 811.064, 265.500 814.774 L 277.500 821.519 277.784 832.260 C 277.940 838.167, 277.812 843, 277.500 843 C 277.188 843, 271.344 839.836, 264.514 835.969 L 252.096 828.938 243.548 833.560 C 238.847 836.102, 235 838.556, 235 839.013 C 235 841.701, 273.767 870.260, 291.088 880.332 L 295.676 883 512.007 883 L 728.338 883 733.919 879.856 C 751.176 870.132, 792.081 840.142, 793.793 835.957 C 793.955 835.562, 791.558 833.813, 788.468 832.069 L 782.850 828.898 774.675 833.594 C 761.480 841.175, 759.935 842, 758.943 842 C 758.413 842, 758.004 837.508, 758.009 831.750 L 758.017 821.500 769.889 814.750 C 776.419 811.037, 782.323 808, 783.011 808 C 783.698 808, 789.897 811.188, 796.788 815.084 L 809.315 822.169 816.862 814.622 C 821.013 810.471, 824.204 806.896, 823.954 806.678 C 823.115 805.944, 785.393 785.088, 783.796 784.475 C 782.845 784.110, 777.717 786.477, 770.885 790.435 C 764.652 794.046, 759.203 797, 758.776 797 C 758.349 797, 758 792.310, 758 786.577 L 758 776.154 769.861 769.577 C 776.385 765.960, 782.287 763, 782.976 763 C 783.665 763, 795.765 769.316, 809.864 777.037 C 827.985 786.958, 836.133 790.917, 837.658 790.540 C 838.845 790.248, 843.120 785.876, 847.158 780.825 C 854.690 771.404, 871.040 748.706, 870.606 748.273 C 870.473 748.140, 863.811 751.772, 855.802 756.344 C 833.601 769.019, 838.494 769.065, 814.807 755.962 C 803.638 749.784, 791.774 743.225, 788.442 741.386 C 783.130 738.455, 782.145 738.208, 780.442 739.382 C 779.374 740.119, 767.770 746.704, 754.657 754.015 L 730.813 767.308 726.407 765.167 L 722 763.026 722 752.513 C 722 746.731, 722.243 742, 722.540 742 C 722.837 742, 724.779 742.867, 726.857 743.927 L 730.634 745.854 743.067 738.840 C 749.905 734.982, 761.660 728.452, 769.188 724.329 L 782.876 716.833 789.188 720.308 C 792.660 722.219, 804.567 728.778, 815.648 734.884 L 835.796 745.986 847.148 739.683 C 868.531 727.811, 884.501 719.132, 887.061 717.992 C 888.853 717.194, 891.005 714.068, 894.223 707.590 L 898.823 698.330 893.593 695.765 L 888.363 693.200 864.932 706.191 C 832.096 724.396, 836.716 722.871, 828.474 718.229 C 824.638 716.069, 812.821 709.476, 802.212 703.579 L 782.925 692.858 776.712 696.295 C 773.296 698.185, 761.500 704.767, 750.500 710.922 L 730.500 722.112 723.500 718.412 C 719.650 716.376, 716.088 714.341, 715.584 713.889 C 714.748 713.140, 716.557 696.674, 717.688 694.738 C 717.933 694.319, 720.941 695.547, 724.374 697.467 C 729.857 700.533, 730.852 700.794, 732.558 699.617 C 736.490 696.905, 781.820 672, 782.826 672 C 783.762 672, 791.691 676.226, 824.786 694.363 C 830.443 697.463, 835.484 700, 835.988 700 C 836.492 700, 848.375 693.700, 862.394 686 C 876.414 678.300, 888.472 672.005, 889.192 672.011 C 889.911 672.017, 893.875 674.037, 898 676.500 C 902.125 678.963, 905.796 680.983, 906.159 680.989 C 906.957 681.002, 914.511 662.158, 913.918 661.631 C 913.688 661.427, 907.787 658.250, 900.804 654.572 L 888.108 647.885 875.804 654.822 C 869.037 658.638, 857.316 665.174, 849.758 669.348 L 836.016 676.936 820.758 668.599 C 812.366 664.013, 800.560 657.503, 794.523 654.131 C 788.486 650.759, 783.247 648, 782.881 648 C 782.244 648, 774.119 652.401, 758 661.476 C 753.875 663.798, 745.922 668.269, 740.328 671.411 L 730.155 677.123 726.078 674.549 C 723.835 673.133, 721.999 671.418, 721.999 670.737 C 721.995 666.896, 724.428 653, 725.104 653 C 725.545 653, 727.028 653.511, 728.400 654.136 C 730.614 655.145, 731.994 654.647, 740.697 649.700 C 762.372 637.380, 781.565 627.005, 782.688 627.003 C 783.899 627, 796.638 633.730, 821.251 647.376 C 828.814 651.569, 835.564 654.998, 836.251 654.996 C 836.938 654.994, 838.955 654.105, 840.734 653.021 C 848.276 648.422, 887.952 627, 888.927 627 C 889.513 627, 896.568 630.641, 904.605 635.092 C 912.703 639.576, 919.598 642.802, 920.072 642.328 C 920.768 641.632, 926 625.050, 926 623.541 C 926 623.151, 920.460 619.992, 897.619 607.359 C 893.285 604.962, 889.292 603, 888.746 603 C 887.838 603, 864.551 615.580, 844.145 627.094 L 835.790 631.809 832.645 630.021 C 805.706 614.706, 783.352 602.936, 781.916 603.312 C 780.943 603.566, 770.101 609.416, 757.823 616.311 C 733.405 630.025, 730.279 631.612, 729.406 630.739 C 728.774 630.107, 731.956 610.620, 732.917 609.239 C 733.238 608.779, 739.575 605.076, 747 601.011 C 754.425 596.946, 765.518 590.834, 771.652 587.429 L 782.803 581.238 809.334 595.679 L 835.864 610.120 848.179 603.403 C 865.250 594.090, 868.163 592.488, 879.104 586.398 L 888.709 581.051 908.733 592.025 C 926.734 601.891, 931 603.915, 931 602.588 C 931 602.361, 931.675 598.649, 932.500 594.338 C 934.893 581.832, 935.674 583.123, 920.750 574.911 C 913.462 570.901, 903.304 565.291, 898.175 562.444 L 888.850 557.268 881.175 561.445 C 876.954 563.743, 865.055 570.253, 854.734 575.912 C 842.141 582.818, 835.398 585.983, 834.234 585.537 C 833.280 585.171, 826.650 581.570, 819.500 577.534 C 812.350 573.498, 801.190 567.257, 794.699 563.665 L 782.899 557.134 768.199 565.245 C 760.115 569.707, 750.125 575.253, 746 577.572 C 737.103 582.571, 737.213 582.728, 739.735 568.641 L 741.500 558.781 762.197 547.315 L 782.895 535.849 801.697 546.064 C 812.039 551.682, 824.023 558.270, 828.328 560.703 C 835.491 564.752, 836.340 565.007, 838.328 563.708 C 840.206 562.479, 853.145 555.358, 881.781 539.792 L 889.063 535.833 909.781 547.296 C 933.204 560.255, 937.069 562.283, 937.467 561.824 C 937.621 561.646, 938.145 556.703, 938.631 550.839 C 939.412 541.422, 939.323 540.059, 937.870 539.151 C 934.272 536.904, 900.121 518.089, 894.393 515.198 L 888.286 512.116 867.393 523.645 C 855.902 529.985, 843.995 536.449, 840.933 538.009 L 835.367 540.844 830.433 538.120 C 827.720 536.623, 815.906 530.110, 804.180 523.648 L 782.859 511.898 768.680 519.637 C 760.881 523.893, 752.770 528.448, 750.656 529.760 C 748.541 531.071, 746.611 531.944, 746.366 531.700 C 745.829 531.162, 749.116 510.393, 749.928 509.204 C 750.543 508.302, 780.718 491.705, 782.679 491.190 C 783.328 491.020, 787.378 492.871, 791.679 495.303 C 805.106 502.896, 835.162 519, 835.907 519 C 836.297 519, 848.271 512.688, 862.515 504.972 C 876.760 497.257, 888.998 491.169, 889.712 491.443 C 890.426 491.717, 901.832 497.804, 915.059 504.970 C 928.287 512.137, 939.309 518, 939.554 518 C 940.217 518, 940.094 500.718, 939.406 497.280 C 938.870 494.599, 936.520 493.042, 915.156 481.216 C 902.145 474.013, 890.756 467.837, 889.846 467.490 C 888.778 467.083, 879.142 471.847, 862.663 480.930 C 848.622 488.668, 836.520 495, 835.769 495 C 835.018 495, 827.675 491.265, 819.452 486.699 C 811.228 482.134, 799.636 475.795, 793.692 472.614 L 782.884 466.829 769.028 474.414 C 761.407 478.586, 754.977 482, 754.738 482 C 754.500 482, 755.157 476.938, 756.200 470.750 C 758.387 457.772, 757.451 458.899, 772.599 451.012 L 783.139 445.525 787.820 448.060 C 790.394 449.455, 802.256 455.893, 814.179 462.367 L 835.859 474.137 855.679 463.371 C 866.581 457.449, 878.200 451.129, 881.500 449.325 C 884.800 447.521, 888.069 446.035, 888.764 446.023 C 889.460 446.010, 900.366 451.625, 913 458.500 C 925.634 465.375, 936.358 471, 936.831 471 C 937.593 471, 935.973 455.947, 934.443 448.804 C 933.986 446.676, 932.143 445.174, 925.682 441.667 C 921.182 439.224, 911.263 433.799, 903.640 429.612 C 896.017 425.426, 889.316 422, 888.751 422 C 887.655 422, 864.258 434.500, 847.252 444.172 C 841.615 447.377, 836.428 450, 835.724 450 C 835.021 450, 833.557 449.391, 832.473 448.647 C 828.248 445.748, 784.135 422, 782.976 422 C 782.300 422, 777.529 424.281, 772.374 427.068 C 767.218 429.856, 763.001 431.768, 763.003 431.318 C 763.008 429.972, 766.050 412.640, 766.611 410.756 C 767.194 408.799, 780.670 400.554, 783.002 400.727 C 784.332 400.826, 795.126 406.515, 826.752 423.787 L 836.005 428.840 850.752 420.826 C 858.864 416.418, 870.357 410.154, 876.293 406.906 C 882.230 403.658, 887.927 401, 888.954 401 C 889.981 401, 893.899 402.715, 897.660 404.811 C 920.277 417.411, 929.157 422.173, 929.449 421.857 C 929.631 421.661, 928.142 415.514, 926.140 408.198 L 922.500 394.896 912 388.845 C 906.225 385.517, 898.564 381.311, 894.976 379.499 L 888.453 376.203 862.144 390.629 L 835.835 405.055 809.247 390.370 L 782.660 375.685 777.760 378.439 C 775.065 379.954, 772.615 380.949, 772.316 380.649 C 772.016 380.349, 772.611 375.331, 773.639 369.497 C 775.488 358.994, 775.543 358.868, 779.242 356.754 L 782.978 354.619 786.739 356.719 C 802.567 365.557, 835.294 383, 836.048 383 C 836.559 383, 841.371 380.599, 846.739 377.665 C 852.108 374.731, 863.784 368.402, 872.686 363.602 L 888.872 354.874 900.982 361.369 C 911.345 366.927, 912.993 367.550, 912.406 365.682 C 910.783 360.521, 900.905 338.552, 899.518 337.020 C 898.683 336.097, 895.818 334.320, 893.151 333.071 L 888.304 330.800 862.681 344.900 C 848.589 352.655, 836.483 358.992, 835.779 358.982 C 835.076 358.972, 832.025 357.575, 829 355.877 C 806.191 343.077, 783.365 331, 781.981 331 C 780.448 331, 780.463 330.256, 782.179 321.250 C 783.202 315.887, 784.142 311.173, 784.269 310.774 C 784.396 310.375, 796.078 316.354, 810.228 324.061 L 835.957 338.074 860.978 324.432 C 874.740 316.929, 886 310.556, 886 310.268 C 886 309.516, 878.357 295.818, 876.807 293.793 C 875.604 292.223, 874.860 292.450, 867.500 296.643 C 863.100 299.149, 854.100 304.041, 847.500 307.515 L 835.500 313.831 823 306.923 C 816.125 303.124, 805.775 297.502, 800 294.430 C 794.225 291.357, 788.808 288.316, 787.963 287.672 C 786.104 286.255, 774.997 270.545, 775.008 269.348 C 775.012 268.881, 776.797 267.483, 778.975 266.239 L 782.934 263.978 802.717 274.651 C 813.598 280.521, 825.527 286.938, 829.226 288.912 L 835.952 292.500 839.726 290.433 C 859.703 279.492, 865 276.456, 865 275.946 C 865 274.959, 853.977 260.526, 852.948 260.165 C 852.422 259.981, 848.584 261.669, 844.419 263.915 C 840.254 266.162, 836.355 268, 835.755 268 C 835.155 268, 829.227 265.013, 822.582 261.363 C 815.937 257.712, 805.130 251.814, 798.567 248.257 C 792.004 244.699, 785.911 241.337, 785.029 240.786 C 783.800 240.018, 781.089 241.098, 773.468 245.392 C 767.993 248.476, 763.215 251, 762.851 251 C 762.219 251, 757.435 244.593, 753.736 238.792 L 752.008 236.083 758.754 232.175 C 762.464 230.025, 769.550 226.114, 774.500 223.484 L 783.500 218.703 809.757 232.962 C 835.723 247.063, 836.042 247.203, 838.560 245.552 L 841.107 243.884 833.804 235.749 C 829.787 231.275, 821.550 222.639, 815.500 216.557 C 805.600 206.606, 803.426 204.956, 793.766 200.057 C 781.596 193.886, 783.911 193.764, 770.500 201.288 C 755.162 209.892, 740.200 218, 739.658 218 C 738.925 218, 728.696 202.948, 729.165 202.560 C 729.349 202.407, 738.500 197.423, 749.500 191.484 C 760.500 185.545, 770.287 180.152, 771.248 179.500 C 772.786 178.457, 771.845 177.504, 763.448 171.593 L 753.900 164.871 741.895 171.435 C 735.292 175.046, 729.352 177.999, 728.695 177.998 C 726.754 177.996, 703.688 165.054, 701.393 162.680 C 698.278 159.457, 679.950 132, 680.913 132 C 681.367 132, 689.207 136.036, 698.334 140.970 C 707.461 145.903, 718.100 151.536, 721.976 153.488 L 729.022 157.036 732.665 155.167 L 736.309 153.298 726.404 147.463 C 704.247 134.407, 683.887 124.762, 659 115.532 C 603.926 95.105, 543.684 86.277, 485 90.035 M 397.470 141.533 C 390.886 151.177, 375.575 173.564, 363.445 191.283 C 351.315 209.002, 330.225 239.848, 316.577 259.829 L 291.763 296.158 292.433 301.329 C 292.802 304.173, 296.019 322.925, 299.583 343 C 303.148 363.075, 307.648 388.500, 309.584 399.500 C 311.520 410.500, 315.528 433, 318.491 449.500 C 321.454 466, 328.212 504.250, 333.508 534.500 C 343.308 590.464, 354.600 653.675, 355.527 657.750 C 356.021 659.925, 356.427 660, 367.644 660 L 379.250 660 378.676 657.129 C 378.082 654.159, 364.112 574.451, 356.482 530.500 C 354.095 516.750, 345.346 467.025, 337.039 420 C 328.732 372.975, 320.805 327.975, 319.424 320 C 318.043 312.025, 316.704 304.798, 316.449 303.940 C 316.180 303.035, 322.750 292.545, 332.105 278.940 C 359.289 239.410, 366.751 228.512, 386.156 200 C 396.449 184.875, 408.163 167.673, 412.186 161.774 L 419.500 151.047 518 151.034 L 616.500 151.020 642.189 188.760 C 656.318 209.517, 669.441 228.750, 671.351 231.500 C 702.749 276.697, 719.303 301.806, 719.153 304 C 719.058 305.375, 718.108 311.225, 717.041 317 C 715.973 322.775, 712.801 340.775, 709.991 357 C 707.182 373.225, 702.678 398.875, 699.983 414 C 697.288 429.125, 691.260 463.325, 686.587 490 C 681.915 516.675, 673.346 565.519, 667.546 598.541 C 661.746 631.564, 657 658.916, 657 659.323 C 657 659.730, 662.278 659.937, 668.728 659.782 L 680.457 659.500 681.253 654.500 C 681.690 651.750, 684.547 635.325, 687.600 618 C 690.653 600.675, 695.125 575.250, 697.537 561.500 C 699.949 547.750, 702.598 532.675, 703.424 528 C 704.249 523.325, 707.172 506.675, 709.919 491 C 712.665 475.325, 721.190 426.950, 728.862 383.500 C 736.534 340.050, 743.101 302.690, 743.455 300.478 C 744.093 296.491, 743.726 295.909, 700.907 232.978 C 677.152 198.065, 654.517 164.904, 650.608 159.286 C 646.699 153.669, 639.675 143.440, 635 136.555 L 626.500 124.038 517.970 124.019 L 409.440 124 397.470 141.533 M 162 157.716 C 155.657 159.993, 153.661 169.015, 158.635 172.927 C 165.612 178.416, 174.781 172.231, 172.593 163.513 C 171.667 159.826, 165.510 156.457, 162 157.716 M 854.201 160.028 C 848.182 165.635, 851.818 175, 860.014 175 C 864.785 175, 868.400 171.335, 868.400 166.500 C 868.400 159.203, 859.460 155.128, 854.201 160.028 M 434 166.873 C 434 167.680, 442.662 194.604, 463.238 257.750 L 471.465 283 518.596 283 L 565.727 283 569.310 272.750 C 572.911 262.449, 590.958 208.253, 599.946 180.750 L 604.766 166 519.383 166 C 471.426 166, 434 166.383, 434 166.873 M 410.364 191.406 C 399.219 207.813, 350.551 278.958, 344.044 288.356 L 338.604 296.211 344.552 301.868 C 387.564 342.773, 403.367 357.536, 404.337 357.720 C 404.977 357.841, 409.079 352.891, 413.454 346.720 C 417.829 340.549, 429.228 324.737, 438.786 311.581 L 456.164 287.663 448.019 264.081 C 443.539 251.112, 435.347 227.225, 429.816 211 C 424.284 194.775, 419.414 181.124, 418.993 180.664 C 418.573 180.204, 414.689 185.038, 410.364 191.406 M 616.135 182.250 C 615.687 183.488, 607.570 207.518, 598.098 235.652 L 580.876 286.804 596.095 308.652 C 604.465 320.668, 616.475 337.925, 622.784 347 C 629.093 356.075, 635.028 364.317, 635.972 365.317 C 637.614 367.054, 639.057 365.731, 669.094 334.953 C 686.367 317.253, 700.451 302.261, 700.391 301.636 C 700.330 301.011, 696.080 294.425, 690.945 287 C 685.810 279.575, 675.489 264.500, 668.008 253.500 C 634.821 204.698, 617.815 180, 617.399 180 C 617.152 180, 616.584 181.012, 616.135 182.250 M 81.364 260.170 C 76.731 262.413, 75.701 269.378, 79.370 273.644 C 82.464 277.241, 87.845 277.434, 91.419 274.076 C 98.828 267.115, 90.579 255.707, 81.364 260.170 M 934.500 260.208 C 927.559 264.188, 929.146 274.775, 936.939 276.487 C 940.245 277.213, 945.398 275.012, 946.379 272.455 C 949.658 263.909, 941.933 255.945, 934.500 260.208 M 457.913 307.250 C 453.910 312.887, 448.303 320.650, 445.452 324.500 C 442.602 328.350, 433.129 341.400, 424.403 353.500 C 409.597 374.030, 408.554 375.767, 408.802 379.500 C 408.948 381.700, 411.061 398.575, 413.498 417 C 415.934 435.425, 419.290 461.525, 420.956 475 C 422.622 488.475, 425.788 512.775, 427.992 529 C 430.196 545.225, 433.359 569.300, 435.020 582.500 C 436.682 595.700, 438.265 607.513, 438.540 608.750 L 439.038 611 518.500 611 L 597.962 611 598.415 608.750 C 598.665 607.513, 601.378 588.500, 604.446 566.500 C 607.513 544.500, 614.511 494.877, 619.997 456.226 C 625.483 417.575, 630.055 384.725, 630.157 383.226 C 630.298 381.136, 624.888 372.689, 606.954 347 C 594.091 328.575, 581.077 309.804, 578.034 305.287 L 572.500 297.073 518.845 297.037 L 465.189 297 457.913 307.250 M 334.384 317.750 C 334.669 318.712, 336.268 327.710, 337.937 337.744 C 339.606 347.778, 343.711 371.178, 347.059 389.744 C 350.407 408.310, 354.925 433.850, 357.100 446.500 C 359.274 459.150, 362.353 476.700, 363.941 485.500 C 365.530 494.300, 368.244 509.600, 369.973 519.500 C 374.468 545.241, 384.560 601.711, 388.037 620.580 C 389.667 629.423, 391 637.636, 391 638.830 C 391 644.411, 392.876 639.729, 396.040 626.250 L 399.503 611.500 412.852 611.220 L 426.202 610.941 425.614 608.597 C 425.108 606.582, 419.276 562.740, 410.503 495 C 409.185 484.825, 405.611 457.375, 402.561 434 C 399.510 410.625, 396.493 387.418, 395.857 382.428 C 395.033 375.964, 395.008 372.809, 395.768 371.450 C 397.075 369.115, 399.790 371.658, 352.827 331.218 C 343.108 322.848, 334.865 316, 334.510 316 C 334.155 316, 334.099 316.788, 334.384 317.750 M 671.556 353.506 L 643.788 382.022 627.937 493.761 C 619.218 555.217, 611.852 606.737, 611.568 608.250 L 611.050 611 623.853 611 L 636.656 611 639.950 625.250 C 641.762 633.087, 643.533 639.822, 643.886 640.214 C 644.240 640.607, 646.480 629.807, 648.864 616.214 C 651.248 602.622, 654.718 582.950, 656.574 572.500 C 658.431 562.050, 664.704 526.500, 670.514 493.500 C 676.324 460.500, 685.354 409.255, 690.579 379.623 C 695.804 349.990, 699.909 325.576, 699.701 325.368 C 699.493 325.160, 686.827 337.822, 671.556 353.506 M 32.500 378.114 C 31.400 378.738, 29.938 379.954, 29.250 380.815 C 27.926 382.475, 27.582 387.747, 28.621 390.455 C 29.380 392.432, 34.129 395, 37.027 395 C 40.256 395, 45 389.724, 45 386.133 C 45 380.181, 37.423 375.320, 32.500 378.114 M 983.888 378.459 C 978.876 381.261, 977.849 388.744, 981.966 392.469 C 982.948 393.358, 985.362 394.347, 987.330 394.666 C 990.388 395.162, 991.349 394.805, 993.954 392.200 C 997.677 388.477, 997.968 384.212, 994.750 380.555 C 991.974 377.400, 987.371 376.512, 983.888 378.459 M 486.111 400.250 C 481.294 410.288, 475.883 421.705, 474.087 425.623 L 470.821 432.746 475.905 462.123 C 478.701 478.280, 483.295 505, 486.113 521.500 C 488.932 538, 491.321 551.599, 491.422 551.720 C 491.524 551.841, 503.958 551.983, 519.053 552.036 L 546.500 552.132 547.216 549.316 C 547.610 547.767, 549.781 535.475, 552.041 522 C 556.330 496.422, 559.926 475.376, 564.568 448.687 L 567.318 432.874 561.087 419.687 C 557.660 412.434, 552.310 400.988, 549.198 394.250 L 543.539 382 519.204 382 L 494.870 382 486.111 400.250 M 0.395 513.500 C 0.396 521.200, 0.553 524.218, 0.743 520.206 C 0.934 516.195, 0.932 509.895, 0.741 506.206 C 0.549 502.518, 0.393 505.800, 0.395 513.500 M 13.455 507.455 C 7.904 513.005, 12.319 522, 20.593 522 C 27.343 522, 30.759 511.316, 25.365 507.073 C 21.707 504.195, 16.548 504.361, 13.455 507.455 M 999.262 506.529 C 995.063 509.470, 995.421 517.269, 999.913 520.718 C 1002.345 522.585, 1007.442 522.226, 1010.288 519.988 C 1014.796 516.442, 1014.699 509.823, 1010.087 506.282 C 1007.860 504.572, 1001.861 504.709, 999.262 506.529 M 409.585 642.919 C 407.613 651.130, 406 658.332, 406 658.924 C 406 659.686, 438.702 660, 518 660 C 624.015 660, 629.998 659.906, 629.960 658.250 C 629.937 657.288, 628.471 650.200, 626.700 642.500 L 623.481 628.500 518.325 628.245 L 413.169 627.991 409.585 642.919 M 34 632.706 C 30.554 633.966, 28 637.391, 28 640.751 C 28 645.017, 32.579 650, 36.500 650 C 38.100 650, 40.315 648.839, 42.077 647.077 C 46.872 642.282, 45.668 636.013, 39.452 633.415 C 37.589 632.637, 35.937 632.036, 35.782 632.079 C 35.627 632.122, 34.825 632.405, 34 632.706 M 984 633.752 C 974.688 638.404, 980.200 652.226, 990.229 649.370 C 992.451 648.737, 994.119 647.292, 995.431 644.863 C 997.148 641.683, 997.212 640.927, 996.009 638.021 C 995.146 635.938, 993.461 634.255, 991.360 633.377 C 987.356 631.704, 988.183 631.662, 984 633.752 M 379.789 698.085 C 379.630 709.682, 379.687 719.357, 379.917 719.585 C 380.146 719.813, 442.583 720, 518.667 720 L 657 720 657 698.500 L 657 677 518.539 677 L 380.077 677 379.789 698.085 M 357.532 752.250 C 357.158 760.638, 356.998 772.183, 357.176 777.906 L 357.500 788.311 518 788.137 L 678.500 787.962 678.767 762.481 L 679.034 737 518.622 737 L 358.211 737 357.532 752.250 M 79.646 753.452 C 75.127 757.640, 76.323 764.564, 82.080 767.541 C 87.675 770.434, 94 766.316, 94 759.780 C 94 751.892, 85.414 748.107, 79.646 753.452 M 932.687 753.805 C 928.118 758.574, 929.454 765.038, 935.533 767.578 C 941.494 770.069, 947.200 766.043, 947.200 759.345 C 947.200 751.646, 938.088 748.167, 932.687 753.805 M 322 836 L 322 866 518.500 866 L 715 866 715 836 L 715 806 518.500 806 L 322 806 322 836 M 161.500 852.945 C 156.609 854.947, 154.277 860.701, 156.564 865.124 C 161.758 875.168, 176.271 868.310, 171.941 857.858 C 171.145 855.936, 169.400 854.229, 167.360 853.377 C 165.547 852.620, 163.937 852.029, 163.782 852.063 C 163.627 852.098, 162.600 852.495, 161.500 852.945 M 858.374 852.784 C 852.013 853.749, 849.473 863.429, 854.456 867.716 C 858.386 871.096, 863.167 870.779, 866.411 866.923 C 872.143 860.112, 867.216 851.444, 858.374 852.784 M 259.646 933.452 C 256.653 936.226, 256.264 939.675, 258.463 943.928 C 261.996 950.761, 272.092 949.025, 274.476 941.176 C 276.844 933.379, 265.884 927.671, 259.646 933.452 M 752.455 933.455 C 748.936 936.973, 749.024 943.087, 752.635 945.927 C 754.084 947.067, 756.723 948, 758.500 948 C 763.522 948, 767 944.679, 767 939.882 C 767 934.605, 763.550 931, 758.500 931 C 756.021 931, 754.149 931.760, 752.455 933.455 M 378.923 982.923 C 375.326 986.520, 375.074 990.836, 378.250 994.445 C 385.143 1002.278, 397.289 994.262, 392.516 985.030 C 389.620 979.430, 383.383 978.463, 378.923 982.923 M 634.774 981.560 C 629.728 984.298, 629.464 993.111, 634.326 996.516 C 637.489 998.731, 641.471 998.316, 644.923 995.411 C 649.117 991.882, 649.177 987.023, 645.077 982.923 C 641.856 979.702, 638.914 979.313, 634.774 981.560 M 506.248 999.250 C 503.221 1002.493, 502.559 1006.246, 504.388 1009.784 C 508.962 1018.628, 523.055 1013.322, 520.632 1003.668 C 519.022 997.257, 510.541 994.652, 506.248 999.250" stroke="none" fill="#060606" fill-rule="evenodd"/></svg>