<svg xmlns="http://www.w3.org/2000/svg" width="1024" height="1027" viewBox="0 0 1024 1027" version="1.1"><path d="M 471 1.082 C 420.044 5.408, 373.170 16.428, 326 35.169 C 244.307 67.627, 170.494 122.676, 114.441 192.947 C 85.570 229.141, 55.206 282.373, 38.830 325.500 C 12.129 395.824, 0.595 464.212, 3.078 537.500 C 4.449 577.983, 9.094 608.754, 19.909 649 C 33.346 699.001, 54.620 746.778, 83.741 792.355 C 95.360 810.538, 116.175 837.563, 133.535 857 C 207.104 939.377, 307.186 996.299, 415.500 1017.368 C 460.414 1026.105, 514.010 1028.957, 558 1024.952 C 605.482 1020.629, 660.319 1007.890, 698.500 992.313 C 739.446 975.607, 773.662 957.369, 804.148 936 C 815.944 927.732, 843.296 906.408, 850.598 899.787 C 852.591 897.979, 855.410 895.431, 856.861 894.125 C 870.471 881.877, 893.280 858.130, 905.651 843.328 C 964.317 773.139, 1002.185 691.630, 1017.462 602.661 C 1022.973 570.565, 1023.480 563.481, 1023.490 518.500 C 1023.500 475.671, 1023.230 471.140, 1018.932 442 C 1015.697 420.070, 1008.750 387.005, 1004.329 372.500 C 1000.032 358.399, 992.502 335.787, 989.870 329.083 C 979.286 302.121, 963.822 270.279, 950.980 249 C 942.561 235.052, 925.683 209.557, 923.246 207.110 C 922.485 206.345, 921.106 204.545, 920.181 203.110 C 918.166 199.982, 918.423 200.312, 907.180 186.424 C 841.842 105.719, 748.669 44.876, 648.500 17.504 C 601.471 4.653, 564.429 -0.077, 512.500 0.141 C 494.900 0.215, 476.225 0.638, 471 1.082 M 508.946 10.780 C 499.839 15.325, 503.192 29, 513.414 29 C 518.550 29, 521.511 27.012, 522.973 22.583 C 525.793 14.036, 517.092 6.714, 508.946 10.780 M 381.775 27.509 C 378.289 29.464, 377 31.926, 377 36.630 C 377 42.164, 380.966 46, 386.687 46 C 395.879 46, 399.985 34.822, 393.086 28.578 C 390.463 26.204, 385.019 25.690, 381.775 27.509 M 635.277 27.973 C 631.680 30.166, 630.478 33.395, 631.322 38.599 C 632.089 43.322, 635.437 45.925, 640.798 45.967 C 648.108 46.023, 652.431 39.360, 649.553 32.472 C 648.541 30.050, 646.963 28.465, 644.568 27.464 C 640.030 25.568, 639.141 25.616, 635.277 27.973 M 480.500 41.015 C 398.474 47.539, 326.819 72.057, 257.113 117.451 C 212.880 146.257, 167.558 189.653, 135.913 233.500 C 96.001 288.802, 67.795 353.625, 54.109 421.500 C 42.236 480.386, 41.197 539.050, 50.985 597.934 C 64.210 677.503, 103.245 759.470, 158.449 823.590 C 168.795 835.608, 201.013 867.136, 213.979 877.932 C 273.218 927.256, 342.469 960.723, 417.500 976.290 C 455.246 984.121, 470.173 985.515, 515.500 985.442 C 546.159 985.392, 554.170 985.058, 569.500 983.192 C 656.743 972.569, 740.174 937.084, 809.500 881.116 C 830.548 864.124, 860.745 833.938, 878.142 812.500 C 921.535 759.027, 953.384 695.812, 969.335 631.500 C 988.077 555.933, 987.438 473.100, 967.519 396.265 C 937.555 280.685, 868.857 183.280, 771.500 118.334 C 753.105 106.063, 738.892 97.862, 719.500 88.329 C 668.521 63.269, 618.773 48.744, 562.382 42.456 C 545.970 40.626, 496.368 39.753, 480.500 41.015 M 494 56.655 C 438.258 59.539, 385.959 71.526, 337.349 92.559 C 300.363 108.563, 258.048 134.168, 230.069 157.475 C 196.009 185.848, 166.092 218.316, 143.103 251.860 C 104.712 307.876, 77.662 375.213, 67.121 441 C 62.003 472.949, 60.802 487.718, 60.781 519 C 60.738 581.707, 73.328 641.959, 98.288 698.500 C 107.941 720.366, 116.681 736.520, 132.544 761.808 C 143.407 779.126, 162.474 803.847, 178.337 821.179 C 216.173 862.518, 260.534 896.347, 309.500 921.201 C 332.534 932.893, 361.850 944.361, 387.824 951.841 C 506.484 986.011, 631.921 970.880, 739.624 909.405 C 767.333 893.590, 800.272 869.278, 821.363 849.074 C 840.493 830.749, 855.440 814.754, 867.688 799.500 C 903.302 755.145, 928.616 708.355, 946.136 654.500 C 959.621 613.048, 965.787 574.902, 966.703 527.261 C 968.051 457.192, 956.717 397.367, 930.284 335.019 C 898.350 259.696, 848.095 195.432, 782.500 146.042 C 732.817 108.633, 672.818 80.819, 613 67.468 C 572.743 58.483, 531.354 54.722, 494 56.655 M 490.078 70.119 C 465.283 71.538, 436.526 75.774, 412 81.622 C 396.375 85.347, 366.030 94.930, 356 99.307 C 354.075 100.147, 348.450 102.504, 343.500 104.544 C 332.676 109.006, 306.394 122.106, 296 128.220 C 291.875 130.646, 286.986 133.502, 285.135 134.566 C 277.785 138.791, 252.909 156.729, 239.100 167.762 C 222.135 181.316, 190.187 212.750, 177.878 228 C 141.347 273.258, 116.212 318.575, 98.288 371.500 C 57.854 490.885, 68.557 620.292, 127.729 727.464 C 141.826 752.997, 161.876 782.055, 179.502 802.500 C 199.203 825.351, 230.072 853.945, 254.500 871.970 C 310.762 913.484, 381.306 942.200, 451 951.956 C 476.141 955.476, 490.342 956.436, 516 956.351 C 563.512 956.192, 600.761 950.380, 647.489 935.832 C 700.858 919.217, 755.596 888.860, 798.500 852.084 C 894.161 770.086, 949.950 655.687, 953.834 533.563 C 955.937 467.457, 945.260 406.542, 921.310 348 C 897.158 288.966, 867.059 243.064, 824.531 200.410 C 798.493 174.295, 784.560 162.700, 755.991 143.372 C 738.013 131.209, 728.697 125.797, 707.386 115.135 C 653.684 88.270, 598.691 73.773, 536.289 70.032 C 517.292 68.893, 511.313 68.904, 490.078 70.119 M 260.923 79.923 C 256.752 84.094, 256.803 89.957, 261.048 94.202 C 263.750 96.904, 264.573 97.186, 268.297 96.687 C 273.831 95.945, 277 92.369, 277 86.867 C 277 78.034, 267.092 73.755, 260.923 79.923 M 512.692 93.750 C 511.181 107.869, 506.611 147.902, 499.466 209.621 L 497.947 222.741 506.224 239.830 C 510.776 249.229, 514.725 256.923, 515 256.926 C 515.275 256.930, 519.274 249.357, 523.887 240.096 L 532.274 223.259 528.097 185.879 C 520.370 116.733, 515.607 77, 515.044 77 C 514.737 77, 513.679 84.537, 512.692 93.750 M 752.923 79.923 C 746.091 86.755, 752.425 98.603, 761.808 96.542 C 767.594 95.271, 770.914 89.300, 769.022 83.566 C 766.725 76.606, 758.175 74.671, 752.923 79.923 M 438.008 86.083 C 438.017 89.591, 441.091 140.874, 443.045 170.107 C 443.648 179.123, 444.689 196.450, 445.359 208.612 L 446.576 230.724 454.962 242.112 C 459.575 248.375, 464.508 255.170, 465.924 257.212 C 467.341 259.254, 468.749 260.941, 469.054 260.962 C 469.646 261.003, 477.497 235.518, 479.209 228 C 480.120 224.002, 479.820 222.104, 476.528 211 C 474.489 204.125, 471.704 194.675, 470.337 190 C 460.239 155.444, 438.725 83.422, 438.400 83.083 C 438.180 82.854, 438.004 84.204, 438.008 86.083 M 586.085 101.250 C 583.159 111.287, 578.169 128.275, 574.997 139 C 571.826 149.725, 567.173 165.700, 564.658 174.500 C 562.143 183.300, 557.821 198.300, 555.055 207.834 L 550.024 225.169 555.143 242.334 C 557.958 251.775, 560.586 259.861, 560.982 260.301 C 561.379 260.742, 562.506 259.842, 563.487 258.301 C 564.468 256.761, 569.448 249.875, 574.553 243 L 583.835 230.500 585.466 202.500 C 586.363 187.100, 587.958 158.975, 589.011 140 C 590.063 121.025, 591.234 100.438, 591.613 94.250 C 591.991 88.063, 592.099 83, 591.853 83 C 591.607 83, 589.011 91.213, 586.085 101.250 M 363 104.575 C 363 104.891, 365.453 115.129, 368.451 127.325 C 375.609 156.441, 385.109 195.724, 388.324 209.500 C 389.736 215.550, 392.301 226.455, 394.024 233.733 L 397.157 246.966 410.689 259.733 C 418.131 266.755, 424.508 272.390, 424.860 272.256 C 425.540 271.996, 428.827 244.121, 428.936 237.699 C 429 233.890, 418.641 212.413, 377.107 130.250 C 365.137 106.571, 363 102.681, 363 104.575 M 661.067 113.314 C 658.628 118.366, 644.132 147.808, 628.853 178.739 L 601.072 234.978 602.557 248.739 C 603.374 256.308, 604.370 264.918, 604.771 267.874 L 605.500 273.247 619.291 259.874 L 633.082 246.500 637.903 226.500 C 640.555 215.500, 643.456 203.350, 644.350 199.500 C 648.519 181.549, 657.522 143.273, 665.461 109.750 C 666.210 106.588, 666.525 104.029, 666.161 104.064 C 665.798 104.099, 663.505 108.261, 661.067 113.314 M 299.145 150.722 C 302.470 158.300, 307.812 170.575, 311.015 178 C 314.218 185.425, 321.841 202.975, 327.955 217 C 334.069 231.025, 341.827 248.937, 345.195 256.805 L 351.319 271.109 366.316 281.146 C 374.564 286.666, 381.812 291.374, 382.423 291.609 C 383.230 291.918, 383.180 286.881, 382.245 273.268 C 380.969 254.712, 380.919 254.449, 377.787 250 C 363.436 229.610, 295.604 138.492, 294.070 137.543 C 293.536 137.213, 295.820 143.143, 299.145 150.722 M 717.362 161.279 C 693.594 193.210, 651.582 250.970, 650.285 253.500 C 649.242 255.533, 646.358 290.691, 647.167 291.500 C 647.410 291.744, 654.741 287.118, 663.459 281.221 L 679.308 270.500 685.264 256.500 C 688.540 248.800, 693.119 238, 695.438 232.500 C 706.520 206.223, 729.502 152.659, 732.678 145.702 C 734.636 141.413, 736.047 137.714, 735.814 137.481 C 735.581 137.248, 727.278 147.957, 717.362 161.279 M 160.707 158.016 C 156.894 161.015, 155.489 166.111, 157.437 169.878 C 160.916 176.606, 168.082 178.072, 173.077 173.077 C 181.629 164.524, 170.170 150.572, 160.707 158.016 M 853.923 158.923 C 849.017 163.830, 850.370 171.654, 856.684 174.883 C 864.969 179.120, 873.620 170.323, 869.567 161.782 C 866.540 155.405, 858.848 153.998, 853.923 158.923 M 791.500 187.732 C 773.225 204.687, 737.585 238.768, 707.598 267.965 C 692.047 283.105, 693.721 280.005, 687.942 304.362 C 686.264 311.436, 685.059 317.393, 685.266 317.599 C 685.472 317.805, 693.259 314.665, 702.570 310.620 L 719.500 303.266 730.805 285.883 C 741.738 269.073, 769.475 226.643, 788.794 197.176 C 793.959 189.298, 798.031 182.698, 797.842 182.509 C 797.654 182.320, 794.800 184.671, 791.500 187.732 M 232.615 184.250 C 233.019 184.938, 238.522 193.375, 244.846 203 C 272.031 244.379, 279.917 256.394, 289.808 271.500 C 295.570 280.300, 302.664 291.122, 305.572 295.550 L 310.860 303.599 319.680 307.251 C 324.531 309.259, 332.100 312.488, 336.500 314.427 C 340.900 316.366, 344.646 317.525, 344.824 317.003 C 345.003 316.481, 343.253 308.279, 340.935 298.777 L 336.721 281.500 331.111 275.970 C 320.773 265.783, 266.244 213.993, 240.802 190.199 C 233.417 183.292, 231.040 181.565, 232.615 184.250 M 180.558 240.063 C 182.240 241.953, 191.015 251.388, 200.058 261.029 C 209.101 270.670, 223.025 285.544, 231 294.083 C 278.122 344.538, 275.312 341.736, 280 342.950 C 292.646 346.227, 310.123 350.121, 310.905 349.838 C 311.417 349.652, 308.591 341.850, 304.625 332.500 L 297.413 315.500 267.956 295.737 C 243.296 279.192, 188.849 243.544, 180 238.149 C 177.714 236.755, 177.761 236.919, 180.558 240.063 M 844 241.460 C 840.425 243.815, 813.974 261.371, 785.219 280.472 C 739.768 310.664, 732.681 315.706, 730.969 319.061 C 727.306 326.241, 726.685 326, 748.818 326 L 768.636 326 775.610 318.750 C 779.446 314.762, 785.906 307.900, 789.966 303.500 C 794.025 299.100, 800.767 291.900, 804.948 287.500 C 809.128 283.100, 818.141 273.425, 824.976 266 C 831.810 258.575, 840.550 249.251, 844.397 245.279 C 848.244 241.308, 851.191 237.860, 850.946 237.618 C 850.701 237.376, 847.575 239.105, 844 241.460 M 84.383 260.560 C 75.250 265.135, 78.553 279, 88.777 279 C 91.584 279, 93.479 278.285, 95.406 276.499 C 97.770 274.308, 98.067 273.361, 97.802 268.851 C 97.559 264.703, 97.014 263.351, 95 261.896 C 91.313 259.233, 87.892 258.802, 84.383 260.560 M 933.826 260.661 C 925.525 265.969, 928.839 279, 938.489 279 C 943.230 279, 945.613 277.649, 947.578 273.849 C 952.043 265.214, 941.907 255.493, 933.826 260.661 M 136.083 301.393 C 136.313 301.608, 142.390 306.221, 149.590 311.643 C 156.789 317.064, 172.539 328.943, 184.590 338.041 C 211.042 358.010, 209.249 356.841, 208.432 353.584 L 207.783 351 229.092 351 C 242.177 351, 250.033 350.643, 249.450 350.074 C 248.466 349.115, 223.399 338.070, 175.500 317.491 C 170 315.128, 159.200 310.455, 151.500 307.107 C 139.141 301.732, 134.695 300.084, 136.083 301.393 M 878 307.131 C 870.575 310.405, 862.025 314.148, 859 315.449 C 850.281 319.199, 838.363 324.424, 827 329.478 C 821.225 332.047, 814.587 334.887, 812.250 335.790 L 808 337.431 808 351.216 C 808 358.797, 808.337 364.995, 808.750 364.989 C 809.163 364.984, 812.031 363.071, 815.125 360.739 C 818.218 358.408, 821.996 355.600, 823.519 354.500 C 825.042 353.400, 827.686 351.348, 829.394 349.941 C 831.102 348.533, 844.875 338.081, 860 326.713 C 890.274 303.960, 893.974 301.047, 892.500 301.125 C 891.950 301.154, 885.425 303.857, 878 307.131 M 427.855 390.250 C 427.775 415.137, 427.824 441.350, 427.964 448.500 C 428.104 455.650, 427.976 461.269, 427.680 460.988 C 427.384 460.706, 425.305 439.781, 423.060 414.488 C 420.815 389.194, 418.726 366.137, 418.417 363.250 L 417.856 358 400.478 358 L 383.100 358 382.800 363.750 L 382.500 369.500 306.750 369.756 C 245.031 369.965, 231 370.256, 231 371.325 C 231 376.715, 240.231 397.725, 247.773 409.500 C 267.413 440.164, 297.099 463.653, 329.741 474.356 C 342.168 478.431, 358.991 482.529, 367.152 483.469 L 372.804 484.119 373.371 480.310 C 373.683 478.214, 374.223 473.521, 374.572 469.880 L 375.205 463.260 366.853 462.069 C 332.704 457.201, 303.058 443.787, 278.117 421.919 C 269.831 414.654, 256.659 400.007, 257.582 399.085 C 257.844 398.823, 261.308 401.768, 265.279 405.630 C 274.476 414.574, 280.501 419.433, 290.500 425.966 C 312.858 440.575, 341.334 450.130, 369.212 452.377 L 375.925 452.918 376.430 449.709 C 376.708 447.944, 377.879 438.175, 379.032 428 C 380.185 417.825, 381.519 408.600, 381.997 407.500 C 382.505 406.328, 382.893 424.025, 382.932 450.250 L 383 495 401.250 495.010 C 418.708 495.019, 419.739 495.130, 425 497.574 C 437.847 503.540, 449 522.973, 449 539.389 C 449 549.845, 443.166 564.826, 433.244 579.847 C 428.496 587.036, 409.915 605.836, 399.500 613.989 C 395.100 617.434, 391.329 620.708, 391.120 621.265 C 390.911 621.822, 391.197 621.996, 391.755 621.652 C 392.312 621.307, 402.383 619.900, 414.134 618.524 C 425.885 617.149, 437.897 615.727, 440.826 615.364 L 446.151 614.703 453.439 605.102 C 474.438 577.432, 495.221 561.524, 514.996 557.985 C 539.095 553.672, 567.026 574.720, 590.005 614.509 C 592.788 619.327, 594.888 623.445, 594.672 623.661 C 594.457 623.877, 592.334 621.454, 589.956 618.277 C 572.220 594.587, 553.234 577.619, 536.884 570.846 C 532.527 569.042, 529.494 568.605, 520.990 568.558 C 511.586 568.506, 509.744 568.806, 503.490 571.404 C 491.950 576.197, 480.499 584.474, 467.425 597.472 C 460.770 604.087, 453.565 611.579, 451.413 614.119 C 447.556 618.673, 447.364 618.762, 438 620.336 C 422.655 622.915, 410.453 624.809, 395 627.009 C 377.227 629.539, 378.105 629.269, 372.008 634.088 L 367 638.047 367 667.523 L 367 697 404.345 697 C 440.929 697, 441.728 696.957, 443.577 694.915 C 449.305 688.586, 463.211 680.900, 476.529 676.703 C 489.710 672.549, 499.713 670.856, 514.519 670.274 C 546.790 669.006, 575.106 676.764, 591.814 691.450 L 598.128 697 634.064 697 L 670 697 670 668 C 670 652.050, 670.067 638.663, 670.148 638.250 C 670.230 637.837, 667.920 636.230, 665.015 634.678 C 656.936 630.362, 653.081 627.774, 644.757 621.078 C 616.756 598.552, 601.295 566.733, 606.010 541.338 C 614.041 498.086, 662.986 441.838, 722.500 407.465 C 741.539 396.469, 750.086 392.415, 786.798 376.966 C 789.046 376.020, 789.093 375.705, 788.943 362.454 C 788.858 355.005, 788.559 348.030, 788.278 346.955 C 787.773 345.024, 785.541 345, 607.883 345 L 428 345 427.855 390.250 M 703.500 362.694 C 694.150 362.829, 640.150 363.854, 583.500 364.973 C 526.850 366.091, 474.349 367.117, 466.832 367.253 C 459.314 367.389, 452.923 367.742, 452.629 368.037 C 452.334 368.332, 451.640 374.857, 451.086 382.537 C 450.533 390.217, 449.133 408.333, 447.975 422.795 C 446.818 437.257, 446.026 449.857, 446.216 450.795 C 446.406 451.733, 447.847 445.750, 449.417 437.500 C 453.355 416.815, 461.904 378.681, 462.780 377.891 C 463.176 377.533, 487.350 376.049, 516.500 374.592 C 566.530 372.092, 623.739 369.143, 693 365.492 C 709.775 364.608, 728.225 363.524, 734 363.083 L 744.500 362.282 732.500 362.365 C 725.900 362.411, 712.850 362.559, 703.500 362.694 M 106.550 371.910 C 107.073 372.411, 134.854 386.628, 168.287 403.504 L 229.075 434.188 234.993 433.501 L 240.912 432.814 235.378 424.735 C 232.335 420.291, 227.678 412.337, 225.030 407.059 L 220.214 397.464 210.857 395.152 C 205.711 393.881, 197 391.798, 191.500 390.525 C 159.110 383.023, 148.379 380.528, 129.078 376.012 C 106.383 370.702, 105.033 370.456, 106.550 371.910 M 895.500 377.111 C 881.750 380.366, 856.775 386.194, 840 390.062 C 823.225 393.930, 805.225 398.166, 800 399.477 L 790.500 401.860 783.650 409.180 C 773.313 420.226, 765.667 429.012, 766.107 429.340 C 766.323 429.501, 774.427 430.660, 784.116 431.915 L 801.731 434.198 836.616 416.482 C 899.926 384.330, 922.488 372.736, 923.450 371.863 C 925.173 370.298, 920.853 371.109, 895.500 377.111 M 34.831 381.475 C 31.738 383.218, 29.621 388.641, 30.565 392.402 C 31.414 395.788, 36.464 400, 39.672 400 C 43.278 400, 47.725 397.079, 49.072 393.826 C 50.529 390.310, 49.545 384.803, 47.058 382.553 C 44.433 380.177, 38.122 379.621, 34.831 381.475 M 980.923 382.923 C 973.380 390.466, 981.304 403.016, 991.059 398.975 C 995.075 397.312, 997 394.356, 997 389.854 C 997 380.882, 987.192 376.654, 980.923 382.923 M 100 448.648 C 107.425 451.094, 120.025 455.035, 128 457.406 C 142.890 461.834, 174.749 471.469, 201.778 479.720 C 215.844 484.013, 217.431 484.300, 221.778 483.329 C 230.401 481.402, 252.388 474.339, 252.647 473.412 C 252.787 472.911, 246.511 467.730, 238.701 461.900 L 224.500 451.300 204 450.115 C 192.725 449.464, 176.750 448.498, 168.500 447.970 C 147 446.593, 94.133 443.990, 90 444.104 C 87.344 444.178, 89.757 445.274, 100 448.648 M 923 444.686 C 919.975 444.860, 904.450 445.685, 888.500 446.519 C 838.389 449.141, 823.763 449.953, 814.705 450.619 L 805.910 451.265 791.381 462.259 C 783.390 468.305, 777.223 473.584, 777.676 473.990 C 778.953 475.133, 809.711 484, 812.399 484 C 813.712 484, 819.897 482.438, 826.143 480.528 C 842.579 475.504, 870.764 467.019, 876 465.519 C 881.267 464.010, 917.610 452.696, 933.500 447.618 L 944.500 444.103 936.500 444.236 C 932.100 444.310, 926.025 444.512, 923 444.686 M 183 506.099 C 133.708 512.196, 80.571 519.096, 80.223 519.444 C 79.652 520.015, 85.903 520.846, 140.500 527.462 C 170.200 531.060, 199.450 534.620, 205.500 535.372 L 216.500 536.739 233.268 528.220 C 242.490 523.535, 249.915 519.607, 249.768 519.492 C 248.317 518.353, 216.021 502.025, 215.369 502.101 C 214.891 502.156, 200.325 503.955, 183 506.099 M 797.308 510.807 C 788.403 515.588, 781.428 519.786, 781.808 520.136 C 782.189 520.486, 789.588 524.337, 798.250 528.694 L 814 536.616 841.750 533.340 C 922.469 523.812, 955.280 519.447, 948.885 519.090 C 947.996 519.041, 940.571 518.087, 932.385 516.972 C 898.638 512.374, 867.881 508.523, 817.500 502.585 C 813.953 502.167, 811.665 503.099, 797.308 510.807 M 16.923 511.923 C 14.691 514.155, 14.008 515.751, 14.032 518.673 C 14.106 527.641, 24.857 532.195, 30.702 525.735 C 33.379 522.776, 34.032 519.700, 32.874 515.505 C 30.942 508.507, 22.283 506.563, 16.923 511.923 M 996.923 511.923 C 992.224 516.623, 993.280 523.962, 999.156 527.433 C 1002.859 529.621, 1007.824 528.894, 1010.751 525.735 C 1013.202 523.089, 1013.648 520.792, 1012.669 515.847 C 1011.259 508.723, 1002.344 506.502, 996.923 511.923 M 196.947 560.368 C 186.193 563.741, 173.818 567.561, 169.447 568.858 C 159.984 571.666, 103.278 589.276, 94 592.288 C 89.390 593.784, 88.157 594.506, 89.758 594.770 C 92.127 595.160, 156.869 592.022, 199.390 589.457 L 224.280 587.955 239.285 576.754 L 254.290 565.554 236.895 559.799 C 227.328 556.634, 218.825 554.088, 218 554.141 C 217.175 554.193, 207.701 556.996, 196.947 560.368 M 797 558.693 C 789.575 561.132, 781.961 563.709, 780.081 564.420 L 776.661 565.713 791.488 576.857 C 799.643 582.985, 807.032 588.002, 807.908 588.004 C 808.783 588.005, 819.625 588.652, 832 589.439 C 844.375 590.227, 869.125 591.596, 887 592.481 C 904.875 593.366, 924.563 594.415, 930.750 594.811 C 936.938 595.206, 942 595.269, 942 594.950 C 942 594.364, 936.438 592.516, 896.500 579.835 C 867.483 570.622, 812.260 553.965, 811.276 554.130 C 810.849 554.201, 804.425 556.255, 797 558.693 M 212 613.126 C 109.842 665.769, 106.720 667.407, 107.827 667.776 C 109.240 668.247, 176.399 652.853, 226.975 640.466 C 239.939 637.291, 240.602 637.002, 244.475 632.830 C 258.913 617.279, 265 610.515, 265 610.024 C 265 609.561, 245.097 606.907, 231 605.490 C 228.194 605.208, 224.428 606.722, 212 613.126 M 785 607.058 C 778.125 608.080, 771.038 608.934, 769.250 608.958 C 767.133 608.985, 766 609.494, 766 610.417 C 766 611.196, 766.337 611.983, 766.750 612.167 C 767.163 612.350, 771.743 617.225, 776.929 623 C 782.116 628.775, 787.103 634.312, 788.012 635.305 C 789.863 637.325, 809.395 642.273, 891.463 661.510 C 906.843 665.115, 920.059 667.937, 920.833 667.782 C 921.606 667.627, 915.773 664.059, 907.870 659.854 C 847.669 627.821, 802.609 604.982, 799.845 605.101 C 798.555 605.156, 791.875 606.037, 785 607.058 M 33.740 637.540 C 30.783 640.282, 30.148 644.628, 31.994 649.483 C 33.176 652.592, 38.935 655.305, 42.469 654.419 C 49.949 652.541, 52.731 643.004, 47.364 637.636 C 43.735 634.007, 37.597 633.964, 33.740 637.540 M 981.299 636.503 C 978.645 638.362, 976.699 643.954, 977.540 647.304 C 979.404 654.730, 989.001 656.921, 994.195 651.107 C 997.866 646.999, 997.945 642.276, 994.411 638.077 C 992.279 635.543, 991.083 635, 987.634 635 C 985.330 635, 982.479 635.676, 981.299 636.503 M 388.270 640.603 C 388.547 640.880, 397.685 643.097, 408.577 645.530 C 419.470 647.963, 428.937 650.526, 429.617 651.226 C 430.296 651.927, 432.726 659.025, 435.017 667 C 437.307 674.975, 439.366 681.688, 439.591 681.917 C 439.816 682.146, 440 673.299, 440 662.256 L 440 642.180 431.750 641.623 C 419.132 640.773, 387.702 640.036, 388.270 640.603 M 627.500 641.046 C 615.950 641.417, 605.038 641.783, 603.250 641.860 L 600 642 600.068 662.250 C 600.108 674.426, 600.476 681.703, 600.991 680.500 C 601.461 679.400, 603.521 672.650, 605.568 665.500 C 607.614 658.350, 609.796 651.944, 610.416 651.264 C 611.036 650.585, 620.474 648.019, 631.390 645.562 C 649.160 641.563, 655.930 639.650, 650.417 640.186 C 649.362 640.289, 639.050 640.676, 627.500 641.046 M 261.256 652.132 L 248.012 652.974 229.256 667.196 C 169.546 712.471, 138.919 736.252, 139.533 736.866 C 139.886 737.220, 157.061 730.072, 179 720.440 C 184.775 717.905, 202.100 710.406, 217.500 703.775 C 232.900 697.144, 249.489 689.995, 254.364 687.888 C 259.239 685.780, 263.843 683.546, 264.594 682.922 C 265.932 681.811, 285 652.434, 285 651.483 C 285 650.873, 278.074 651.062, 261.256 652.132 M 746 651.369 C 746 651.702, 750.322 658.909, 755.605 667.387 L 765.209 682.800 776.355 687.790 C 788.885 693.400, 796.253 696.644, 820 707.012 C 873.520 730.378, 889.275 737.058, 889.747 736.587 C 890.381 735.952, 815.006 677.064, 791.500 659.831 L 782.500 653.233 771.500 652.591 C 765.450 652.237, 757.237 651.682, 753.250 651.357 C 749.263 651.031, 746 651.037, 746 651.369 M 293 692.586 L 276.500 696.901 268.500 705.247 C 256.468 717.800, 245.665 729.288, 234 741.937 C 228.225 748.199, 223.047 753.812, 222.493 754.411 C 219.990 757.116, 200.779 778.326, 194.089 785.770 C 183.278 797.798, 182.001 799.930, 187.785 796.293 C 202.206 787.227, 296.997 723.821, 297.629 722.818 C 298.819 720.931, 311 690.068, 311 688.941 C 311 687.782, 312.631 687.452, 293 692.586 M 721.110 694.250 C 722.254 697.138, 725.013 704.450, 727.241 710.500 C 729.469 716.550, 732.013 722.236, 732.896 723.135 C 734.771 725.045, 755.977 739.406, 804 771.288 C 822.975 783.886, 840.051 795.261, 841.946 796.567 C 843.842 797.872, 845.589 798.745, 845.828 798.505 C 846.667 797.667, 790.346 734.936, 758.052 700.739 C 754.690 697.179, 753.617 696.764, 738 692.992 C 728.925 690.800, 720.944 689.005, 720.265 689.003 C 719.392 689.001, 719.640 690.541, 721.110 694.250 M 336.961 724.309 C 332.857 726.080, 325.501 729.098, 320.614 731.015 L 311.727 734.500 301.535 750 C 295.929 758.525, 289.158 768.875, 286.489 773 C 283.819 777.125, 277.535 786.800, 272.524 794.500 C 257.559 817.496, 236.725 851.058, 237.150 851.484 C 237.369 851.702, 240.012 849.545, 243.024 846.690 C 253.905 836.377, 281.896 809.993, 300.500 792.514 C 310.950 782.696, 323.576 770.749, 328.558 765.966 L 337.616 757.270 341.367 739.528 C 343.431 729.770, 344.962 721.629, 344.770 721.437 C 344.578 721.245, 341.064 722.537, 336.961 724.309 M 686 722.608 C 686 723.508, 687.300 730.151, 688.888 737.372 C 690.477 744.592, 692.064 752.145, 692.416 754.156 C 692.882 756.818, 694.338 758.954, 697.778 762.019 C 700.375 764.333, 709.250 772.776, 717.500 780.782 C 755.701 817.849, 787.339 847.879, 791.483 851.005 C 793.408 852.457, 793.420 852.428, 791.895 850 C 791.031 848.625, 785.463 839.625, 779.521 830 C 773.578 820.375, 767.278 810.250, 765.520 807.500 C 763.762 804.750, 758.502 796.425, 753.832 789 C 749.162 781.575, 739.623 766.444, 732.634 755.375 L 719.927 735.249 706.713 729.733 C 699.446 726.699, 691.813 723.487, 689.750 722.595 C 686.284 721.096, 686 721.097, 686 722.608 M 648.382 765.532 L 649.083 784.381 656.196 794.440 C 660.107 799.973, 666.763 809.225, 670.985 815 C 675.207 820.775, 683.572 832.250, 689.575 840.500 C 709.162 867.423, 731 896.382, 730.999 895.431 C 730.997 894.449, 720.731 869.061, 693.017 801.500 C 689.858 793.800, 685.603 783.450, 683.561 778.500 C 681.520 773.550, 679.127 768.700, 678.244 767.721 C 676.947 766.285, 654.616 750.814, 649.090 747.524 C 647.887 746.807, 647.783 749.451, 648.382 765.532 M 366.764 757.749 L 352.075 767.498 345.065 783.999 C 341.210 793.074, 335.977 805.225, 333.437 811 C 324.862 830.493, 302.336 884.395, 299.378 892.500 C 298.130 895.919, 298.126 896.282, 299.347 895 C 301.046 893.217, 352.746 824.151, 368.963 802 C 375.205 793.475, 380.651 786.050, 381.066 785.500 C 382.197 784, 383.444 748, 382.365 748 C 381.864 748, 374.844 752.387, 366.764 757.749 M 83.077 754.589 C 77.131 759.592, 79.758 769.646, 87.519 771.594 C 91.552 772.606, 96.810 769.699, 98.572 765.481 C 100.427 761.041, 99.580 757.666, 95.814 754.497 C 91.856 751.166, 87.104 751.201, 83.077 754.589 M 930.798 755.048 C 928.050 757.797, 927.802 758.553, 928.276 762.758 C 929.424 772.938, 941.788 775.112, 946.518 765.965 C 951.644 756.053, 938.749 747.097, 930.798 755.048 M 605.560 768.179 C 604.592 772.555, 601 798.758, 601 801.446 C 601 804.674, 609.086 821.735, 639.177 882 C 651.672 907.025, 661.919 926.708, 661.948 925.740 C 661.996 924.125, 658.563 907.331, 652.496 879.500 C 651.177 873.450, 648.709 861.975, 647.011 854 C 643.092 835.590, 635.126 799.630, 633.912 794.867 C 633.188 792.026, 630.054 788.470, 619.530 778.546 C 607.373 767.083, 606.024 766.083, 605.560 768.179 M 410.779 779.440 L 398.058 791.788 395.576 802.144 C 380.330 865.756, 366.996 923.704, 367.004 926.309 C 367.010 928.158, 369.667 923.361, 382.965 897.500 C 418.034 829.297, 429.999 804.922, 429.963 801.755 C 429.894 795.753, 425.369 767.623, 424.429 767.356 C 423.918 767.211, 417.776 772.649, 410.779 779.440 M 468.057 779.894 C 467.483 780.967, 466.421 782.442, 465.697 783.172 C 464.974 783.902, 460.534 789.706, 455.831 796.069 L 447.280 807.638 444.572 853.069 C 440.527 920.920, 440.067 929.766, 440.130 938.500 L 440.187 946.500 442.968 938 C 446.839 926.169, 456.498 895.494, 460.129 883.500 C 461.794 878, 463.380 872.825, 463.654 872 C 464.297 870.064, 472.671 842.137, 477.471 825.924 L 481.194 813.347 476.635 799.635 C 474.128 792.093, 471.783 784.360, 471.425 782.450 C 470.628 778.206, 469.442 777.305, 468.057 779.894 M 555.439 795.250 C 550.108 811.535, 549.855 812.752, 550.926 817 C 552.446 823.029, 564.271 863.316, 574.114 896 C 578.503 910.575, 583.445 927, 585.095 932.500 C 589.821 948.253, 590.090 948.162, 589.514 931 C 588.246 893.216, 584.841 817.959, 584.152 812.500 C 583.448 806.918, 582.667 805.510, 572.948 792.300 C 567.201 784.491, 562.182 778.078, 561.793 778.050 C 561.404 778.023, 558.545 785.763, 555.439 795.250 M 507.221 797.873 C 501.972 807.981, 499 814.852, 499 816.881 C 499 821.338, 503.380 862.157, 507.489 896 C 514.798 956.198, 514.880 956.647, 516.326 944.500 C 516.993 938.888, 523.476 888.994, 527.499 858.500 C 528.950 847.500, 530.769 833.325, 531.541 827 L 532.945 815.500 524.865 799.500 C 520.422 790.700, 516.484 783.172, 516.114 782.771 C 515.745 782.370, 511.743 789.166, 507.221 797.873 M 163.121 853.710 C 158.409 856.031, 156.471 860.799, 158.381 865.369 C 160.998 871.632, 167.760 873.912, 173.027 870.308 C 176.522 867.917, 176.967 867.026, 176.985 862.403 C 177.002 857.794, 174.865 854.660, 170.601 853.038 C 167.142 851.723, 167.157 851.722, 163.121 853.710 M 856.213 853.531 C 852.423 855.149, 849.496 860.855, 850.468 864.728 C 852.322 872.116, 861.607 874.547, 867.077 869.077 C 871.010 865.144, 871.076 860.174, 867.250 856.112 C 863.842 852.494, 860.481 851.708, 856.213 853.531 M 263.946 931.780 C 259.824 933.838, 257.788 938.775, 259.132 943.459 C 261.107 950.346, 269.829 952.325, 275.077 947.077 C 282.877 939.277, 273.831 926.846, 263.946 931.780 M 755.315 931.441 C 752.154 932.838, 749 937.386, 749 940.546 C 749 943.166, 752.117 947.732, 754.712 948.915 C 758.975 950.857, 762.938 950.216, 766.077 947.077 C 773.685 939.469, 765.163 927.088, 755.315 931.441 M 382.303 981.197 C 380.130 982.247, 376.997 987.541, 377.004 990.151 C 377.011 992.737, 381.021 998.058, 383.750 999.102 C 387.464 1000.523, 393.289 998.734, 395.390 995.528 C 396.275 994.176, 397 991.445, 397 989.458 C 397 982.317, 389.135 977.896, 382.303 981.197 M 633.495 982.414 C 628.839 987.070, 629.388 993.801, 634.770 998.034 C 637.783 1000.404, 640.133 1000.505, 644.460 998.452 C 653.884 993.980, 650.528 980, 640.031 980 C 637.007 980, 635.266 980.643, 633.495 982.414 M 506.750 999.470 C 501.548 1004.409, 503.632 1013.389, 510.595 1016.036 C 517.342 1018.601, 525.499 1010.740, 523.133 1003.951 C 521.546 999.400, 519.307 997.733, 514.167 997.275 C 510.189 996.921, 509.094 997.245, 506.750 999.470" stroke="none" fill="#070707" fill-rule="evenodd"/></svg>