<?xml version="1.0" encoding="UTF-8"?><svg id="Calque_2" xmlns="http://www.w3.org/2000/svg" viewBox="0 0 666.15 327.9"><g id="Layer_1"><path id="T" d="m627.8,67.1c-1.3.9-2.2,2.2-3.5,3-.9.4-2.2,1.7-3.5.4h-.4c-6.1,1.3-13,.4-18.2,3-.9,5.2-1.7,9.5-2.6,13.8,0,1.3-.4,3,.4,3.9,1.3,2.6.4,4.8-.4,6.9-2.6,7.8-4.8,15.6-6.5,23.4-.4,1.7-.9,3.5-1.7,4.8-1.7,2.6-1.3,5.2-.9,8.2.4,2.2,1.3,4.3,1.7,6.9.9,2.6,0,5.2-1.3,6.9-3,4.3-3.5,9.5-4.8,14.3-.4,2.2-.9,4.8-1.3,6.9s-1.3,4.3-2.2,6.1c-3,4.8-6.5,9.1-9.5,13.8-1.3,2.2-2.2,4.8-3,6.9-.4,2.2-.4,4.3-.9,6.5,0,2.6-.4,4.8-1.3,6.9-.4.9-.9,2.6-.4,3.5,1.3,2.2.4,3.9-.4,5.6-1.7,2.6-1.7,5.2-1.7,7.8,0,3.9-.4,7.8-2.6,11.2-.9,1.7-.4,4.8,0,6.9.4,3.5,1.3,6.9-1.3,10.4-1.7,2.2-1.7,5.2-2.2,8.2-.4,2.2-.9,3.9-2.6,5.6-1.7,1.7-2.2,3.5-3,5.6-.9,3-2.2,6.1-3.5,9.1-1.3,2.2-1.7,4.3-1.3,6.9.4,3.9,0,7.8-3.5,10.8-.4.4-.9,1.3-1.3,2.2-2.6,7.8-6.5,15.1-10.8,23.4-.4-4.8-.4-8.2,0-12.1.4-6.1.9-12.1.9-17.7v-13.8c0-2.2.4-3.9,1.7-5.2,1.3-1.7,1.7-3.5,1.7-5.2,0-4.8-.4-9.1,1.7-13.4.4-.9,0-1.7,0-2.6-.4-6.9,1.3-13.4,2.2-19.9,0-.9.4-1.7.9-3,.9-1.7,1.3-3,2.2-4.8,2.2-4.3,3-8.7,1.3-13.4-.9-2.2,0-5.6.9-7.8,1.7-4.8,2.2-10.4,3.9-15.1.9-2.6,2.2-4.8,2.2-7.8,0-2.6-.9-5.2,0-7.4.9-2.6,2.2-4.8,3-6.9.4-.9,0-2.2,0-3v-16c0-3,.9-6.1.9-9.1,0-1.7.4-3.9-.9-5.6v-.9c0-.9-.4-1.3,0-2.2,1.7-3.5,0-7.8,1.7-11.7,1.3-2.6,2.2-6.1,2.2-8.7,0-3.5-.4-7.4-1.3-10.8-.9-4.3-.9-8.2-.4-12.1,0-1.7,1.3-3,1.7-4.8,1.3-2.2,1.7-4.3.4-6.9-.4-.4-.4-1.3-.4-2.2q-.4-3.9-3.9-3.9c-1.7,0-3,0-4.3-.9-3-2.2-7.4-1.3-10.8-2.6-.4,0-.9.4-1.3.4-.4.4-1.3.9-1.7.9-4.3-.9-9.1-1.7-13.4-2.6-.9,0-2.2-.4-3-.4-5.2,0-10.4-1.3-15.6-1.7-4.3-.4-9.1-1.3-13.4,1.3-1.7.9-3.5.4-5.2,0-2.2-.9-3.9-.9-6.1-.4-4.3.9-8.7,0-12.5-3-2.2-1.3-4.3-2.2-6.5-2.2-.9,0-2.2,0-2.2-1.3s.9-1.7,1.7-2.2c.9-.4,1.3-.9,2.2-.9,2.2-.9,4.3-1.3,5.6-3.5,1.3-1.7,3-1.7,4.8-.9,3,1.3,5.6,1.7,8.7.9,1.3-.4,2.6,0,4.3,0,2.6,0,4.8.4,6.5-2.6,1.3-2.6,5.2-2.2,7.8-1.3,4.3.9,9.1.9,13.4.9,2.6,0,4.8,1.3,7.4.4s5.6-.4,8.2-.4h23.8c2.2,0,3.9-.4,6.1-.9,1.3-.4,3-.9,4.3-.9.9,0,2.2,0,2.6-.4,2.6-3.5,6.1-2.2,8.7-1.3,3,.9,5.6.9,8.7,0,6.1-1.7,12.1-1.7,18.2-1.3,2.6,0,5.2,1.7,7.8,2.2,5.2,1.3,10,.9,14.7-.4,2.6-.9,5.2-.9,7.8,0,.9.4,2.2.4,3,.4,5.2-.9,10.8-1.7,16-3,2.2-.4,4.8-1.3,6.9-1.7,2.2-.4,3.9-.9,5.6.9,1.3,1.3,1.7,2.2,1.3,3.5-.9,3-1.7,6.1-4.8,7.4-2.2.9-2.6,3-3.5,4.8-.4.9,0,1.7-.4,2.6-2.6,5.2-4.8,6.5-10.4,4.3-2.6-.9-4.8-.9-6.9.9q-.4.4-.9.9-6.6,1.8-11.3-1.7Z"/><path id="S" d="m504.5,133.3c4.3-.4,7.4,0,8.7,3.9,0,.4.9.9,1.3.9,3.9,1.7,5.2,5.2,7.8,8.2.9.9,1.3,2.2,2.6,3,3,2.6,6.1,4.8,9.1,7.8,2.2,2.2,3.9,4.8,5.2,7.4,2.2,4.3,4.3,9.1,6.1,13.8.9,2.2,0,5.2.9,7.8.4,2.2-.4,4.8-.9,6.9-.9,3.5-2.2,6.9-1.7,10.8,0,.4,0,1.3-.4,1.7-2.6,3-3.5,6.9-5.2,10.4-.4.9-1.3,1.7-1.7,2.2-3,3-6.5,5.6-8.7,9.1-2.2,3-5.2,5.6-8.2,8.2-.4.4-.9.9-1.3.9-6.9,2.2-13.8,5.2-20.8,6.1-2.6.4-5.2,0-7.4-.9-3.9-1.3-8.2-.9-12.1-1.7-.9,0-1.7,0-2.6-.4-2.6-2.6-5.6-2.2-8.7-2.6-6.5-.9-12.1-3.5-15.6-9.5-2.2-3.9-5.6-6.9-7.4-11.2,0-.4-.9-.9-1.3-.9-3,0-5.2-1.7-6.5-4.3-.9-1.3-2.2-1.7-3-3-2.2-3.5-2.6-7.4-3.5-10.8,0-1.3-.4-2.2-.4-3.5,0-.9-.4-2.2,0-3,.4-.9,3.5-.4,4.8.4.9.9,2.2,2.6,3.5,2.6,3.5.9,5.2,3,7.4,6.1,3.9,5.6,9.1,9.5,16,11.2.9,0,1.7.4,2.2.9,1.3.9,2.6,1.3,3.9,2.2,5.6,3.5,12.1,3.5,18.2,3.9,2.6.4,5.2.9,8.2.9,2.6.4,4.8-.9,6.9-2.6,3-3,6.1-6.1,9.5-8.7,1.3-1.3,2.2-2.2,1.7-3.9-.4-4.3,1.7-7.8,4.3-11.2.9-.9,1.3-1.7.4-3-1.3-3-1.3-6.1-2.6-9.1-1.7-4.3-4.3-8.2-7.8-11.2-2.2-1.7-5.6-2.6-8.2-3-2.6,0-4.3-1.3-6.1-2.6-.9-.9-1.7-1.7-3.5-1.7-3,0-5.6-1.3-7.8-3.5s-4.3-3.9-6.9-5.6c-.4-.4-1.3-.4-1.3-.9-2.6-5.6-7.8-10-9.5-16-1.7-4.8-3.9-9.5-4.3-14.7,0-.9-.4-1.7-.9-2.2-1.7-2.2-1.7-5.2-.9-7.4,2.2-6.1,3.5-12.5,7.8-17.7,4.3-4.8,7.4-10.8,13.4-13.4.9-.4,1.7-1.7,2.6-2.6,2.6-2.6,5.6-3.9,9.1-4.8,5.2-1.3,10-.9,15.1.9.9.4,2.2.4,3,.4,5.2,0,10,.9,15.1,2.2,5.2.9,8.7,4.8,11.7,9.1.4.4.4.9.4,1.3,3.9,6.1,5.2,12.5,6.1,19.5.4,3,1.3,6.1.9,9.1-.4,4.3-2.2,6.1-6.9,6.5-4.8.4-7.8-2.2-10-6.1-1.7-3-3-6.1-3.5-9.5-.4-3-2.6-4.3-4.3-5.6-.4-.4-1.3-.4-1.3-.4-2.6,1.7-4.3,0-6.5-1.3-5.6-2.6-10.8-1.3-15.6,1.3-1.3.9-1.3,3-2.6,3.9-.9.9-3,1.3-3.9,2.2-1.3,2.6-2.2,4.8-1.7,8.2.4,3,.9,6.1,2.6,8.7.9,1.3,2.6,3.5,3.5,3.5,3,0,4.8,1.7,7.4,3.5,1.3,2.1,3.9,4.2,6.1,2.9Z"/><path id="F" d="m379.9,73.2c-4.3-.9-8.2,1.7-13,2.6-1.3,0-2.2,1.7-3,2.6-1.7,1.3-3.9,2.6-6.5,1.3-2.2-.9-4.8-.4-6.9.9-.9.4-1.7.9-3,.9-5.2-.4-10,.4-14.7.9-.9,0-2.2.4-3,.9-1.3.4-2.2.9-1.7,2.6.4,2.2,0,4.3-1.3,6.1-1.3,1.7-1.3,3.5-.4,5.2.9,2.2,1.7,4.3.9,6.5-.9,1.7,1.3,3,3,2.2,2.2-.9,3.9-1.7,6.1-.4,1.3.9,3.5,0,5.2.4,2.2,0,4.3.4,6.5.4,1.3,0,2.2-.4,3.5-.4h15.1c2.2,0,3.5,2.2,2.6,4.3-.9,1.7-2.6,3-3,4.3-.9,3.5-3.9,4.8-6.1,6.9-1.7,2.2-4.8,3-6.9,1.7-3-1.7-5.6.4-8.2.4-2.2.4-4.8,1.7-6.5,3.9-1.3,2.2-3.5,3-6.1,3s-5.6,4.3-6.1,6.9c0,2.6.4,5.2-.9,7.4-.4.4,0,1.3.4,1.7,2.6,4.3,1.7,8.7.9,13,0,.9-.4,1.3-.4,2.2.4,3.9-.9,7.4-3,10.8-1.7,2.6-2.2,5.6,0,8.2,1.3,2.2,1.7,4.8.9,6.5-1.7,4.3-.9,8.7.4,12.5,1.3,3.5.4,6.5-.9,9.5-1.3,3.9-4.8,4.8-8.2,1.7-1.3-1.3-3-2.6-4.8-3-1.7-.9-2.2-1.7-1.3-3,1.3-1.7.4-2.6-.9-3.5-4.3-3-3.9-3.5-3-8.7,1.3-6.1,1.3-11.7-1.7-17.3-1.3-2.2-2.6-4.3-1.3-6.9.9-1.3.4-3,.4-4.8,0-.9-.4-1.7-1.3-1.7-2.2-1.3-2.2-3-3-5.2-.4-1.7-.9-3.9-1.7-5.6-3-6.1-3-12.5-.9-19,.9-3,1.3-6.5,1.7-9.5,0-.9.4-2.2.9-3,1.7-2.6,1.3-4.8-.4-6.9-.9-1.3-1.7-2.6-2.6-3.9-2.6-3.5-2.2-7.4,0-10.8,1.7-2.6,1.7-5.2.9-7.8s-1.7-5.2-.9-8.2c.9-2.6,0-5.2-1.3-7.4-1.7-3-2.2-6.1,0-9.1.9-.9.9-2.6,1.3-3.9.9-5.2,1.7-6.1,6.9-7.4.9-.4,2.2-.9,3-1.7,2.6-2.2,6.1-1.7,9.1-1.3h.4c2.2,1.3,4.3,0,6.5,0s3.9,1.7,6.1,2.6h1.7c3.9-.9,7.8-2.2,11.7-3,3.5-.9,6.5-1.7,10-.4,3,.9,6.1.9,9.1,1.3,5.6.9,11.7.9,17.3.9,1.7,0,3.5.9,5.6.9,3.9,0,7.8.9,11.2,0,4.3-.9,8.7-.4,13-.9,3.5,0,6.5,0,9.5,1.3.9.4,1.7,0,2.2,0,3.5,0,6.5-.9,9.5-.4,1.7,0,3,1.7,4.8,3,.4.4,0,2.2-.4,2.2-4.3,2.2-7.8,6.5-12.5,7.4-3.5.9-7.4,1.3-10.8,2.2-5.2.9-10.4,1.3-15.6,2.2-.9,0-1.7,0-2.6.4-1.7.4-3,1.3-4.8,1.3-2.4,1-4.1,1-6.7,1Z"/><path id="LE" d="m270.8.5c.4,2.2.4,4.8,1.3,6.9,0,.9.9,1.3,1.3,2.2,2.2,2.2,2.6,5.2,2.6,7.8,0,4.8.4,9.5.9,14.3,0,.9.4,1.7.9,2.2,3.5,3.5,3.9,7.4,3.9,11.7,0,3.5-.4,6.9,0,10.4.9,5.6,0,11.2,1.3,16.9,1.3,6.1,0,11.7-.4,17.3,0,2.2,0,4.3.9,6.1,1.3,2.2,1.7,4.8.4,7.4-.9,2.2-.4,5.2-.9,7.8,0,1.7.4,3.9,0,5.6-.4,2.2-.9,3.5,0,6.1.9,2.2.4,4.8,0,7.4,0,2.2.4,4.8-.4,6.9-.9,3.5-.4,6.1,0,9.5.9,8.7,3,16.4,5.2,24.7v.9c.4,4.8.4,10,1.3,14.7.4,2.6.9,5.2,2.2,7.8.9,2.2,1.3,3.9.4,6.1s-1.7,3.9-2.6,6.1-2.2,4.3-1.7,6.1c0,2.2,1.3,4.3,2.6,6.5.9,1.3,2.2,2.6,3.9,2.2,3.5-.9,7.4.4,10.4,1.3,2.2.9,3,0,3.9-1.3,2.2-4.8,6.1-4.8,10-4.3,1.7.4,3,.4,4.3-.4.9-.4,1.7-1.3,2.6-1.3,1.3-.4,2.6-.9,4.8-.4,3,.9,6.1,1.3,9.1-.4,2.6-1.3,3.9-.9,8.2,0,1.3.4,3,.9,4.3.4,4.3-.9,9.1-1.7,13.4-2.2,3,0,5.6-2.2,7.8-4.3q1.7-1.7.4-4.3c-1.3-2.2-1.3-4.3-.4-6.9,3.5-9.5,4.8-19,2.6-29-.4-2.2,0-4.3,2.2-6.1.9-.4,1.3-1.3,2.2-2.2-.9-1.3-1.3-2.6-2.2-3.9-1.3-1.3-1.7-2.6-.4-4.3.4-.4.4-1.3,0-1.3-3-1.3-1.3-4.3-1.7-6.5v-.9c-2.2-3-.4-5.6,1.3-7.8.9-.9.9-1.7.4-3-.9-4.3-2.2-8.2-4.8-11.7-.9-1.3-.9-2.6-.4-4.3.4-1.3,1.3-3,.4-3.9-1.3-2.2,0-3.9,0-6.1.9-5.6,2.2-11.7,3-17.3.4-1.3.9-2.6.9-3.9.4-1.3.9-2.2,2.6-2.2,1.3-.4,2.2-.9,3.5-.9,2.2-.4,3.9-.4,4.8,2.2,0,.4.4.9.9,1.3.9.9,2.6.9,3.5-.4.4-.4.4-1.3.9-1.7,1.7-2.6,3.9-3.9,6.9-3,2.6.9,5.2.9,8.2,0,.9-.4,2.2,0,3,.4,2.2.4,3.9,1.3,5.6,1.7,1.3.4,2.6.9,3.5.4,4.8-1.3,9.5-.9,14.7,0,4.8.9,9.5.4,14.7.4h7.8c.9,0,2.2.9,2.2,1.7.4,1.3,0,2.6-1.3,3-2.6,1.3-4.8,3-6.9,5.2-.9.9-2.6,1.3-4.3,1.7-1.3.4-3.5.9-3.9,1.7-2.6,3.5-6.9,3.9-10.4,6.1-2.2,1.3-4.3,1.7-6.9,1.3-4.3-.4-8.7.4-13-.9-1.7-.4-3.9.9-5.6,1.3-.4,5.6-1.3,11.7-1.7,17.3-.4,2.2.9,4.3,0,6.9-.9,2.2,2.2,3.9,4.3,3.5,5.2-1.3,10.4-1.3,15.6-1.7,2.2-.4,4.3-1.3,6.5-.9,4.8.9,9.1,0,13.4-.9.9,0,2.2,0,3,.4,1.3,0,2.2.4,3.5.4.9,0,1.7-1.3,2.6,0,.4.9.4,2.2,0,3-.4,2.2-1.3,4.3-3.9,5.6-3,1.7-5.6,4.3-8.2,6.5-4.3,3.9-9.5,6.9-15.6,7.8-3.5.4-6.5,1.7-10,1.7-2.6,0-5.2-.4-7.8.9q-2.2.9-1.3,3.9c.4.9.9,2.2.4,3-1.7,2.6-.9,5.2-.9,8.2-.4,3.9.4,8.2-.9,12.1-.4,1.3-.4,2.6,0,4.3.4,5.6-1.3,10.8-1.7,16.4,0,.9.4,1.7.4,2.2,0,3.9-.4,8.2-.4,12.1,0,2.6-.9,5.6,0,8.2,1.3,4.3.9,8.2,0,12.5-.9,5.6-.9,11.2-1.3,16.9,5.2,0,9.5,0,14.3-2.2,3-1.3,6.5-1.7,10-2.6.4,0,.9.4,1.3.4,2.6.4,5.2.4,8.2-.4,2.2-.9,5.2-1.3,7.4-1.3,7.4,0,14.7,0,22.1-2.2,2.2-.4,4.3,0,6.5,0,.9,1.7.9,3-.4,4.3-4.8,5.2-9.5,10.4-16.9,12.1-1.3.4-2.6,1.3-3.5,2.6-.4.9-1.7,1.3-2.6,1.3-5.6-.9-10,2.2-14.3,4.8-1.3.9-3,1.3-4.8,1.7-2.6.9-5.6,1.3-8.2,3-1.3.9-3,1.3-4.8.4-1.7-.9-3.5-.9-5.2.4-.9.9-2.6.9-3.9,1.3-3.5.4-6.5,2.2-8.7,4.8-2.6,2.6-5.2,4.8-9.1,4.8-2.2,0-3.9,1.7-6.1,3-1.3.9-2.6,2.2-4.3,3-2.2,1.3-3.9.4-4.8-2.2-1.3-3.9-1.7-7.8-.4-11.7.4-1.3.4-3,.4-4.8s-.4-3.5-.9-5.6c-.4-1.7,1.7-3,0-4.8,2.2-5.2-.4-11.2,1.7-16.9.4-1.3-.4-3-.9-4.3-.9-3.5-.4-6.1,2.2-8.7.9-.9.9-2.6,1.7-4.8h-10.8c-.9,0-1.7.9-2.6,1.3-3.5,1.3-6.9,3-11.2,3-1.7,0-3.9-.4-5.6.9-.4.4-1.7,0-2.6-.4-3.5-1.3-6.5-.9-9.1,1.7-1.7,1.7-4.3,2.2-6.5,2.6-4.3.9-9.1,1.3-13.4,2.2-1.3.4-2.6,1.3-3.5,2.6-3,4.8-7.4,6.1-13,4.3-2.2-.9-3.9-1.3-6.1,0s-3.9,0-6.1-.9c-1.3-.4-3-.4-3.5.4-1.7,1.7-3.9,2.2-6.1,3-5.2,2.2-8.7,1.3-11.2-3.9-.9-1.3-1.3-3-1.3-4.3,0-4.3-.4-9.1-.9-13.4-.4-2.6-.9-5.2-.9-7.4,0-2.6,0-5.2-.9-7.4-.4-.9,0-1.7,0-2.6,0-2.2.9-3.9,0-6.5-.4-2.2,0-4.3,0-6.1,0-3,.9-6.1,3.9-7.8,1.3-.9,1.7-1.7,1.3-3-.4-1.3-.4-3-.9-4.3-1.7-6.9-3.9-13.8-3.5-21.2,0-1.7-.4-3.5-.9-5.6-2.2-7.8-2.6-16-5.2-23.8v-2.2c-.4-4.8.4-9.1-.9-13.8-.4-.9.9-2.2.9-3.5.4-4.3.9-8.7,1.3-13.4,0-1.3.4-3,.9-4.3.4-3.9.9-7.8-.9-11.2-1.3-2.6-1.3-4.8-.4-7.4,1.3-3,1.7-6.1,1.3-9.5,0-1.7,0-3.5.9-5.6,1.7-5.2,1.3-10.4,0-15.6-1.7-5.6-1.3-10.8,2.6-15.6,2.2-2.6,1.7-6.1,3-9.1,1.3-2.6.4-5.6.9-8.7-.4-2.2-.4-5.6.4-9.1,0-1.7.9-3.5,1.7-5.2.6.5,1,.5,1,.5Z"/><path id="EL" d="m230.6,234.6c-.9-2.2-1.7-3.9-2.6-5.6,0-.4-.4-.9-.4-1.3,1.7-3.9-.9-7.8-.4-12.1,0-2.2-.4-4.8-1.3-6.9-.9-2.6-.9-5.2,0-7.4.4-3,1.7-6.1.4-9.5-.4-.9-.4-2.6,0-3.5,1.7-2.6-.4-5.6.9-8.2.4-.9-.4-2.6-.9-3.9-1.3-2.2-.9-4.3.4-5.6,3-3.5,2.6-7.8,3-12.1,0-1.3-.4-1.7-1.7-2.2-3.5-1.3-3.5-2.2-2.6-5.6.4-1.7.9-3,1.7-4.8.4-.9-1.3-2.6-1.3-3.9,0-2.2,1.3-4.3.9-6.5-.4-2.2-.4-4.3-.9-6.5,0-.4,0-.9.4-1.3,2.6-3.9,1.3-8.2,1.7-12.5,0-1.3-.4-2.6-1.7-3-1.7-.9-2.2-2.6-2.6-3.9-1.7-5.6-2.2-10.8-2.2-16.4,0-1.7.9-2.6,1.7-3.5,2.2-1.7,2.6-3.9,2.6-6.5v-6.9c0-1.7-.4-2.6-2.2-3-2.2-.4-4.3-1.3-6.5-.9-3.5,0-6.5,0-9.1-2.6-1.3,1.3-2.6,2.2-3.9,3.5-3,3.5-6.9,3.9-10.8,3-.9-.4-1.7-.9-3-.9-6.5-.4-11.7,2.6-15.6,7.8-.9.9-.9,2.6-1.3,3.9v2.2c-2.2,2.2-2.2,3.9,0,6.1.4.4,0,2.2-.4,3.5-.9,1.7-1.7,3.5-3,4.8s-2.2,2.6-.9,4.8,2.2,3.9,4.8,3.9c1.7,0,3.5,1.3,5.2,0,.4-.4.9,0,1.7,0,2.2.4,4.8.9,6.9.9s4.8-.9,6.9-.9c1.3,0,2.6,0,3.5.4,1.3.4,2.6.4,3.9,0,1.7-.4,3.9-.4,5.6-.4,2.6.4,4.8,1.3,7.4,0,1.3-.4,2.2.4,3,1.3.4,1.3,0,2.2-.9,3-.9.9-1.7,1.7-2.6,2.6-.4.9-1.3,1.7-1.3,2.6-.4,3.9-2.6,6.1-4.8,8.7-1.3,1.7-7.4,3.9-9.5,3.9h-4.8c-2.6,0-5.6,0-7.8,2.2-.4.4-1.3.9-2.2.9-1.3,0-2.2.4-3,1.3-2.6,3.5-6.1,3-9.5,1.7-.9-.4-1.3-1.3-2.2,0-.9.9-.9,1.3-.4,2.2.9,1.7.9,3.5,0,5.6-.4,1.7-.4,3.9,0,6.1.4,2.6,1.3,4.8,1.7,7.4.4,2.2.9,4.3,0,6.5-.9,1.3,0,3,1.3,3.9,2.2,2.2,2.6,8.2.4,10.8-1.3,1.7-1.7,3-1.7,5.2,0,3.9.9,8.2-.9,12.1v.4c2.6,6.9-1.3,13.4,0,20.3v2.2c.4,2.2,2.6,3,4.8,2.2,3.9-1.7,7.4-2.6,11.7-1.3,3.5.9,7.4.4,10.8-1.7,1.7-1.3,3.9-1.3,6.1-1.3,2.6,0,5.2,0,8.2-.9,2.6-.9,5.6-.4,8.2,0,2.2,0,3,2.6,1.3,4.3-1.3,1.3-2.6,2.2-3.9,3-3,1.3-6.1,2.6-8.7,3.9-.9.4-1.7,1.3-2.6,1.7-3.5,2.2-6.1,5.6-10,6.5-1.3.4-2.6,2.2-3.9,3.5-2.2,2.2-4.3,3.5-7.4,3.9-3.5.4-6.5,1.3-10,2.2-2.6.9-4.8,3-6.5,5.2-.9.9-1.7,2.2-2.6,3.5-2.6,3.5-6.1,5.2-10.4,4.8-2.2,0-3.9.9-5.6,2.2-.9.4-1.7.9-2.6,1.3-1.7.4-3-.4-3-2.6v-2.2c1.3-4.8,0-8.7-1.7-13.4-.9-2.6-.4-5.6,0-8.2s1.7-5.6,3-8.2c.9-1.7.9-3.5,0-5.6-1.7-5.6-3.5-11.7-3.9-17.7-.4-5.6-.9-11.2-1.7-16.9-.9-4.8-.4-10,.9-14.7.9-3,.4-6.5.9-9.5.9-8.2,1.3-16,1.3-24.2,0-3.5,0-6.5-1.3-10-.9-3-1.3-6.1-2.2-9.5-.4-1.7-1.7-3,0-4.8-.4-4.8,1.3-9.5-.9-14.3-.4-.9,0-2.2,0-3,0-4.8-.9-10-2.2-14.7-.4-1.7-.4-3.9,1.3-5.2,1.7-1.7,2.2-3.9.9-6.5-.9-1.7-.9-3.5-1.3-5.6-.4-3.9.4-7.4,3.9-10,.4-.4,1.3-.9,1.3-1.3,1.3-3.9,5.6-3.5,8.2-5.6.4-.4,1.3-.4,1.3,0,3,1.7,6.9,1.3,10,3.5,2.2,1.3,3.9,2.2,6.5.9,2.2-.9,5.2-2.6,7.8-.4h.9c5.6-2.6,11.7-1.7,17.3-3,1.7-.4,3-1.3,4.3-2.2,2.6-1.7,5.6-2.6,8.7-.4,3.5,2.2,6.9,3.9,10.8,1.7.4-.4.9,0,1.7,0,3-.4,3.5-.4,3.5-3.9,0-2.6.9-3.9,3-4.3.4,0,.4-.4,1.3-.4,0-7.8,0-16,3.9-23.8,1.3,1.7,2.2,3,3.5,3.9,2.2,2.2,3.9,4.3,3.5,7.8,0,.9.4,2.2.9,3.5,1.3,3.5,3,6.9,1.3,10.8-.4,1.3-.4,3,0,3.9,1.3,4.8,0,10.4,2.6,14.7-.4,3.5,1.7,6.5.4,10s.9,6.9.9,10.8c.4,3,1.3,5.6,1.7,8.2.4,6.1.9,12.1,1.3,17.7.4,3.5-.4,6.9.9,10.4.4,2.2.9,4.8,0,6.5-1.7,4.8,0,9.5.4,14.3.4,2.6.9,4.8,1.3,7.4s1.7,5.6,3,8.2c.9,1.7,1.3,3.5.4,5.2-3,5.2-1.7,11.7-3,17.3,1.7,4.8,1.7,9.5,3.9,14.3.9,1.7,1.7,4.3,1.7,6.1,0,3-.4,5.6-1.3,8.7s-1.3,6.1-.9,9.1c.4,2.6,0,5.6,0,8.2,0,2.2-.4,3.9,1.3,5.6.9.9.9,2.6.4,3.5-1.3,3-1.7,5.6.9,8.2.4.4.4,1.7.4,2.6v8.2c0,2.6.9,4.8.4,7.4-.4,1.7.9,3.5,1.7,5.6,1.7-.9,3.5-1.7,4.8-1.7,3.5.9,6.9-.9,10-1.3,4.8-.9,9.5-.4,14.3-1.3s9.5-.4,14.3-.9c3.5-.4,6.5-.4,9.5-3,.9-.9,2.6-1.7,3.9-1.7,4.8-.4,9.1-.9,13.8-1.3.9,0,2.6,0,3-.4,1.7-2.2,3.9-1.7,6.1-1.7,1.7,0,3.5.4,5.2-.9.4-.4,1.7,0,2.6,0,3.9,1.7,4.3,3.5,1.3,6.1-3.5,3-7.4,6.5-10.8,9.5-1.3.9-2.2,1.3-3.9,1.3-3.5,0-6.5.9-8.7,3.5-1.3,1.7-3,2.2-4.8,2.6-2.2,0-3.9,1.3-5.2,2.6-2.2,2.2-4.8,2.6-7.4,2.6-5.6-.4-11.2,0-16.4,3-1.7,1.3-3.5,2.6-5.2,3.9-1.3.9-2.2,2.2-3.5,3.5-3.5,3.5-6.5,3.9-10.8,1.7-2.2-1.3-4.3-1.7-6.9,0-1.7.9-2.2,2.2-2.6,3.9-.9,2.6-1.3,5.6-2.2,8.2-1.3,3.9-5.2,5.6-8.7,3.9-3-1.7-5.6-1.3-8.7.4-4.3,2.2-5.6,1.7-9.5-1.7-.4-.4-.9-.9-1.3-1.3-5.2-3-4.8-8.2-3.9-13,.4-3,2.2-5.2,3.5-7.8q1.3-2.6,0-5.2c-.4-.9-.9-1.7-1.3-2.6-2.2-3-1.3-5.2.4-7.8q2.6-3.5,0-7.4c-2.6-3.5-3.5-7.4-3.9-11.2-.4-3.5.4-6.9.9-10.8,0-.9.9-1.3,1.3-2.2.5-2.3,1.8-3.2,2.7-4Z"/><path id="H" d="m0,58.5c1.7-.9.9-2.2.9-3.5.4-3,1.3-4.3,4.3-4.8,1.3-.4,2.6-.4,3.9-.9,2.6-1.3,5.6-1.7,8.2,0,1.7,1.3,3.5.9,5.6.4,3.5-.9,6.1.4,7.4,3.9,1.3,3,.9,6.1.9,9.1,0,1.7,0,3.5.9,4.8,1.3,2.2,1.7,4.3,2.2,6.5.9,3,2.6,6.1,3.9,9.5,1.3,3,2.2,6.5,2.2,10,0,4.3.9,8.2,2.6,12.5.4.9.4,2.2.4,3.5v7.4c0,2.2.9,3.9,2.2,5.6,2.6,3,3.9,6.5,3.9,10,0,1.7.9,3,1.7,3.9,2.6,2.2,3.9,4.8,3.5,8.2,0,1.7.4,3,1.7,4.3s1.3,3,.4,4.8c-1.3,1.7-.9,3-.4,4.8.4,4.3,2.6,8.7,3,13.4,0,2.2,1.7,3.9,2.2,6.1,1.7-.9,3-.9,4.8-.4,2.6.9,4.3.4,6.5-1.3,2.6-2.2,5.2-4.3,8.2-6.1,2.6-1.7,6.1-2.6,9.1-2.6,3,.4,6.1-.9,9.1-1.7,2.2-.4,3.5-1.7,3.5-4.3,0-1.7.4-3.5-1.3-5.2-2.6-2.6-3-6.1-1.7-9.1.4-.9.9-2.2.9-2.6-.4-.9-1.3-1.7-2.2-2.2-2.2-.9-2.6-2.6-3-4.3-.9-2.2-.4-3.5.4-5.2,1.3-2.2,1.3-3.9,0-6.5-1.3-3-2.2-6.1-2.2-9.5,0-4.8-1.7-8.7-3-13-1.7-6.1-3-12.1-3.5-18.2,0-2.6-1.3-4.8,0-7.4.4-.4-.4-1.7-.4-2.6,0-1.7-.9-3.9,0-5.6,1.7-3,1.7-5.6,1.7-9.1,0-2.2.4-3.9,1.3-6.1,1.3-2.6,2.6-5.6,6.5-5.6,3.5-2.6,8.2-3.9,10.8-7.8.4-.9,1.7-1.3,2.6-1.7,3-1.3,6.1-2.6,8.7-3.9,2.2-.9,4.8-.4,5.6,2.2,1.7,3.9,3.5,7.8,5.2,11.7.4,1.7.9,3.5.4,5.2-.9,3-.4,6.9-4.3,8.7,1.7,4.3,1.3,8.2-.4,12.1-1.3,2.2-1.3,4.3-1.3,6.9,0,3.9.4,7.8,0,11.2-.4,5.6,1.3,10.4,4.3,14.7,1.3,1.7,1.7,3.5,1.7,5.6v20.3c-1.7,3-.4,6.5.4,9.5.9,4.8,1.3,9.5,0,14.7-.4,1.7,0,4.3.4,6.5.9,2.6,1.3,5.6,1.3,8.7,0,5.6.9,11.7,1.7,17.3.4,5.2.4,10.4,0,15.6,0,2.2.4,4.8-1.7,6.9-.4.4-.4,2.2-.4,3,1.7,3.5.9,7.4.9,11.2,0,.9-.4,2.2-1.3,2.6-2.6,2.2-1.7,4.8-1.7,6.9.4,2.6.4,4.8.9,7.4.4,3.5,0,6.5-1.3,9.5-1.3,3.5-1.3,7.4-.9,10.8,0,.9,0,2.2-.4,3-.9,3.5-2.6,6.5-2.6,10.4,0,1.3-1.3,2.6-1.7,3.5-1.7,4.3-2.6,9.1-3.5,13.8-1.3,6.5.4,13-3.5,19-1.7-3.9-3-7.4-2.6-11.2.4-4.8-.4-9.1-2.2-13.4-.4-1.3-.9-2.2,0-3.9.9-1.3,0-3.5,0-5.2,0-1.3-.9-3-.9-4.3,0-4.3,0-8.7-1.7-13-.4-1.3.9-3.5.4-5.2-.4-1.7-2.2-3-2.6-4.8-.4-1.7-.4-3.9.9-5.6.9-1.3.9-3,1.7-4.3,1.3-4.3,1.3-8.2-1.7-11.7-3.9-4.8-3.9-10-.9-15.1,1.3-1.7,1.7-3.9.9-6.5-.9-2.2-.4-4.3-.4-6.5,0-3.9-.4-4.3-3.9-5.6-2.2-.9-4.3-.9-6.9-.4-4.8,1.7-10,2.2-14.7,3.5-5.2,1.3-9.1,3.9-11.7,8.7-2.2,3-3,6.5-3,10,0,.9,0,1.7.4,2.2,2.2,2.6,1.3,5.6.4,8.2-.9,1.7-.4,3.5.4,4.8.9,2.2,2.2,4.3,3,6.5,1.3,3.9.9,5.6-.4,10.8-.4,1.7-.4,3,.4,4.8,1.3,2.6,1.3,5.6,1.3,8.7,0,2.2,0,3.5,2.2,4.8,2.2.9,3,3,3,5.6,0,2.2.4,3.9.9,6.1,1.7,4.8,1.7,10.4,1.3,15.1,0,2.6-1.3,4.8,0,7.4.4.9.4,1.7,0,2.6-2.2,3.9-.4,7.4.9,11.2.4,2.2.9,3.9,1.3,6.1,0,.9-.9,1.7-.9,2.6-1.7-2.6-3-5.2-4.8-8.2-.9-1.7-1.7-3.9-2.6-5.6-.4-.9-.9-2.6-1.3-3-3.5-3.5-3.9-8.2-4.8-12.5-.9-3.5-.9-7.4-3.9-10.4-1.3-1.3-2.2-2.6-3.9-3-1.7-.9-2.2-2.2-3-3.9-.9-3-2.6-6.1-3.5-9.5s-1.7-6.9-2.2-10.4c-.4-1.3-.4-2.6,0-3.5,1.7-3,0-6.1-.9-8.7s-2.2-4.8-2.6-7.8c0,0,0-.4-.4-.4-.9-2.2-2.6-4.3-3-6.5s-.4-4.8-.4-6.9c0-.9-.9-1.7-1.3-2.6-1.3-2.2-1.7-4.3-1.7-6.9-.4-3-1.3-6.1-2.2-9.5,0-.4-.4-.9-.4-.9-4.8-1.7-3.5-6.5-4.3-10-.4-1.7-.9-3.5-2.6-4.3-2.2-1.3-3-3-2.6-5.6.4-6.9-1.7-13.8-3.5-20.3-2.6-10.4-6.5-20.3-7.8-30.7-2.2-5.2-3.5-10-4.3-14.7-1.7-6.9-4.3-13-7.4-19.5-1.8-4.8-3.5-9.1-3.5-14.3,0-3.9-.9-7.8-1.3-11.7,0,0-.4-.4-.9-.4,0-5.6,0-11.7,0-17.7Z"/></g></svg>