<?xml version="1.0" standalone="no"?>
<!DOCTYPE svg PUBLIC "-//W3C//DTD SVG 20010904//EN"
 "http://www.w3.org/TR/2001/REC-SVG-20010904/DTD/svg10.dtd">
<svg version="1.0" xmlns="http://www.w3.org/2000/svg"
 width="319.000000pt" height="319.000000pt" viewBox="0 0 319.000000 319.000000"
 preserveAspectRatio="xMidYMid meet">
<g transform="translate(0.000000,319.000000) scale(0.100000,-0.100000)"
fill="#000000" stroke="none">
<path d="M1415 3170 c-1080 -121 -1716 -1279 -1245 -2266 517 -1081 2020
-1204 2723 -222 282 395 363 951 205 1421 -234 701 -942 1150 -1683 1067z
m208 -32 c7 -21 -4 -38 -23 -38 -23 0 -34 16 -26 35 7 18 43 20 49 3z m-399
-54 c8 -21 -1 -34 -24 -34 -25 0 -35 17 -20 35 16 20 36 19 44 -1z m791 -9 c0
-13 -8 -21 -22 -23 -23 -3 -33 25 -16 42 13 13 38 1 38 -19z m-182 -31 c457
-71 867 -374 1079 -799 428 -855 -74 -1882 -1022 -2090 -100 -22 -383 -31
-492 -16 -607 86 -1093 532 -1236 1135 -38 158 -39 465 -4 626 172 773 893
1265 1675 1144z m-985 -140 c-19 -19 -38 -11 -38 16 0 24 21 31 40 14 12 -12
12 -16 -2 -30z m1530 0 c-19 -19 -38 -11 -38 16 0 24 21 31 40 14 12 -12 12
-16 -2 -30z m-1840 -227 c4 -20 -25 -34 -40 -19 -15 15 -1 44 19 40 10 -2 19
-11 21 -21z m2162 3 c0 -24 -26 -38 -42 -22 -16 16 -2 42 22 42 13 0 20 -7 20
-20z m-2410 -306 c11 -12 11 -18 -2 -31 -19 -18 -38 -10 -38 16 0 33 20 40 40
15z m2650 0 c22 -25 -13 -55 -37 -32 -16 17 -5 48 17 48 4 0 13 -7 20 -16z
m-2800 -370 c22 -25 -13 -55 -37 -32 -16 17 -5 48 17 48 4 0 13 -7 20 -16z
m2957 0 c7 -19 -20 -49 -36 -40 -12 8 -15 39 -4 49 12 12 33 7 40 -9z m-3004
-396 c7 -21 -4 -38 -23 -38 -23 0 -34 16 -26 35 7 18 43 20 49 3z m3055 -16
c3 -16 -2 -22 -17 -22 -24 0 -35 15 -27 36 9 23 40 13 44 -14z m-3008 -378
c22 -25 -13 -55 -37 -32 -16 17 -5 48 17 48 4 0 13 -7 20 -16z m2960 -19 c0
-15 -27 -28 -41 -19 -13 8 -11 42 4 47 15 5 37 -11 37 -28z m-2810 -350 c15
-18 5 -35 -21 -35 -12 0 -19 7 -19 18 0 33 20 42 40 17z m2650 -1 c22 -25 -13
-55 -37 -32 -16 17 -5 48 17 48 4 0 13 -7 20 -16z m-2402 -327 c4 -20 -25 -34
-40 -19 -15 15 -1 44 19 40 10 -2 19 -11 21 -21z m2160 -5 c3 -16 -2 -22 -17
-22 -24 0 -35 15 -27 36 9 23 40 13 44 -14z m-1848 -227 c15 -18 5 -35 -21
-35 -12 0 -19 7 -19 18 0 33 20 42 40 17z m1530 0 c15 -18 5 -35 -20 -35 -10
0 -22 5 -25 10 -7 11 12 40 25 40 4 0 13 -7 20 -15z m-1160 -151 c11 -12 10
-18 -3 -32 -24 -23 -59 7 -37 32 16 20 24 20 40 0z m787 -31 c-16 -16 -18 -16
-34 0 -17 17 -17 19 2 33 29 22 58 -7 32 -33z m-389 -35 c-2 -15 -10 -23 -23
-23 -13 0 -21 8 -23 23 -3 18 1 22 23 22 22 0 26 -4 23 -22z"/>
<path d="M1445 2929 c-843 -101 -1382 -939 -1124 -1747 46 -144 84 -214 112
-207 34 7 1104 155 1124 155 10 0 43 -15 73 -32 l55 -32 -45 -8 c-25 -4 -290
-42 -590 -83 -592 -82 -590 -82 -590 -93 1 -34 13 -33 659 58 l641 90 49 -25
c27 -13 52 -28 54 -32 3 -5 -281 -48 -631 -97 -775 -108 -705 -95 -682 -123
l18 -22 673 95 c371 52 865 121 1099 154 530 75 488 67 495 91 10 31 7 31
-126 13 l-124 -17 -54 28 c-70 35 -67 37 157 66 155 19 185 26 194 42 16 31 9
31 -241 -5 l-240 -34 -55 30 c-31 17 -56 34 -56 37 0 3 139 25 309 48 235 33
311 47 316 59 3 8 10 71 17 140 77 837 -655 1551 -1487 1451z m400 -307 c91
-26 140 -44 203 -76 58 -30 70 -50 20 -35 -18 6 -87 13 -154 16 -336 16 -673
-122 -943 -386 l-86 -84 -122 64 c-68 35 -123 66 -123 69 0 3 35 40 78 82 187
184 407 304 657 358 120 26 363 22 470 -8z m171 -133 c152 -21 315 -86 442
-176 34 -24 62 -46 62 -47 0 -2 -35 -25 -77 -52 -43 -26 -87 -53 -98 -61 -18
-11 -26 -9 -65 17 -309 206 -805 136 -1122 -158 l-47 -44 -91 33 c-50 17 -93
35 -95 39 -7 11 119 127 208 195 272 204 588 295 883 254z m722 -728 l2 -399
-27 -6 c-16 -3 -149 -21 -298 -41 -148 -20 -278 -40 -288 -43 -12 -5 35 -35
173 -107 167 -88 210 -115 183 -115 -5 0 -128 -16 -274 -36 l-266 -36 -202
107 -202 107 -217 -31 c-272 -39 -248 -40 -244 13 l4 43 231 32 c1142 159
1067 147 1067 168 0 12 -9 14 -52 8 -100 -13 -1053 -146 -1148 -160 -52 -8
-95 -13 -96 -12 -2 1 -4 40 -5 87 l-2 85 134 18 c74 11 301 42 504 71 l370 52
5 320 c7 353 4 325 25 318 13 -5 15 -50 15 -318 l0 -311 123 -67 122 -67 3
349 2 348 88 12 c48 7 107 16 132 19 l45 7 -45 23 c-57 29 -57 30 -40 41 10 6
39 -5 95 -35 l80 -44 3 -400z m-958 330 c0 -6 -7 -40 -15 -77 -23 -96 -21 -98
58 -63 38 16 71 29 73 29 2 0 4 -45 4 -101 l0 -100 -47 6 c-27 3 -60 9 -75 11
-34 7 -36 -8 -12 -98 18 -72 25 -63 -66 -76 -88 -13 -82 -17 -66 38 7 25 16
65 20 89 l7 44 -46 -5 c-61 -7 -61 -8 -46 -86 6 -37 13 -74 14 -82 2 -11 -17
-17 -76 -25 l-78 -11 7 25 c41 146 36 157 -53 117 -31 -15 -58 -24 -61 -21 -5
4 -3 187 2 192 1 1 31 -2 66 -7 35 -5 67 -7 71 -5 6 4 -12 111 -26 146 -5 13
7 18 72 27 43 6 79 9 81 8 1 -2 -4 -29 -13 -62 -27 -104 -23 -118 30 -111 26
2 49 7 52 10 4 5 -10 83 -30 164 -1 4 30 13 68 19 39 6 73 12 78 13 4 0 7 -3
7 -8z m-875 -93 l134 -73 1 -402 0 -402 -47 -6 c-27 -4 -104 -15 -173 -25
l-125 -19 -142 76 -141 76 -2 171 c0 94 2 275 6 402 l7 232 141 20 c205 29
188 31 341 -50z"/>
<path d="M2539 1927 c-26 -17 -35 -31 -37 -57 l-4 -35 26 24 26 24 0 -151 c0
-84 3 -152 8 -152 52 1 52 0 52 191 0 201 -1 203 -71 156z"/>
<path d="M635 2024 c-49 -8 -96 -15 -103 -16 -7 -2 29 -26 80 -54 l93 -51 118
15 c64 8 117 18 117 21 0 11 -177 101 -196 100 -11 -1 -59 -7 -109 -15z"/>
<path d="M450 1606 l0 -364 88 -48 c48 -26 97 -54 110 -62 l22 -14 0 368 0
369 -110 58 -110 58 0 -365z"/>
<path d="M855 1700 c-53 -21 -60 -43 -60 -185 0 -117 2 -135 19 -154 28 -30
71 -27 107 8 l29 29 0 130 c0 109 -3 133 -17 150 -22 25 -51 33 -78 22z m39
-66 c12 -32 6 -210 -7 -229 -28 -37 -37 -7 -37 114 0 65 3 121 7 124 11 12 31
7 37 -9z"/>
<path d="M2600 944 c-85 -13 -393 -57 -685 -98 -291 -41 -700 -98 -908 -127
l-378 -53 26 -25 25 -25 1017 142 c560 79 1026 143 1035 142 15 0 48 45 48 65
0 7 1 7 -180 -21z"/>
<path d="M2310 778 c-184 -26 -609 -87 -944 -133 -336 -47 -612 -87 -614 -89
-2 -2 12 -15 30 -29 l33 -25 410 59 c226 32 637 90 914 129 276 38 507 72 512
75 4 3 18 19 29 35 l21 30 -28 -1 c-15 -1 -179 -24 -363 -51z"/>
<path d="M2245 645 c-159 -24 -527 -76 -817 -116 -291 -41 -528 -76 -528 -79
0 -20 91 -52 131 -47 59 7 1405 196 1447 203 31 5 102 57 102 75 0 13 -10 11
-335 -36z"/>
<path d="M2235 519 c-157 -23 -403 -58 -1103 -155 -53 -8 -46 -15 39 -43 l65
-21 245 35 c134 19 374 53 532 75 l289 39 64 46 c51 37 80 62 62 54 -2 -1 -88
-14 -193 -30z"/>
<path d="M1775 329 c-181 -26 -346 -48 -365 -49 -69 -3 4 -19 117 -26 177 -10
358 18 546 86 145 53 135 53 -298 -11z"/>
</g>
</svg>
