<?xml version="1.0" standalone="no"?>
<!DOCTYPE svg PUBLIC "-//W3C//DTD SVG 20010904//EN"
 "http://www.w3.org/TR/2001/REC-SVG-20010904/DTD/svg10.dtd">
<svg version="1.0" xmlns="http://www.w3.org/2000/svg"
 width="318.000000pt" height="319.000000pt" viewBox="0 0 318.000000 319.000000"
 preserveAspectRatio="xMidYMid meet">
<g transform="translate(0.000000,319.000000) scale(0.100000,-0.100000)"
fill="#000000" stroke="none">
<path d="M1436 3169 c-479 -50 -907 -313 -1168 -714 -32 -49 -61 -94 -66 -100
-41 -54 -140 -329 -169 -472 -27 -135 -25 -463 5 -596 225 -1013 1298 -1556
2215 -1122 145 69 180 90 306 189 686 535 810 1538 275 2206 -104 129 -129
156 -211 225 -350 293 -768 428 -1187 384z m182 -35 c4 -29 -23 -51 -43 -34
-16 13 -20 42 -8 54 14 14 48 1 51 -20z m-400 -43 c10 -6 9 -13 -6 -31 -17
-21 -19 -22 -35 -5 -28 28 6 58 41 36z m790 -15 c4 -17 -12 -35 -31 -36 -14 0
-25 44 -13 52 18 13 40 4 44 -16z m-138 -35 c52 -12 106 -25 120 -31 14 -5 34
-11 45 -13 22 -4 34 -9 112 -43 28 -12 54 -20 57 -16 3 3 6 0 6 -6 0 -7 6 -12
13 -12 6 0 62 -30 122 -66 715 -429 930 -1367 472 -2062 -71 -108 -151 -201
-242 -283 -33 -30 -66 -59 -73 -66 -27 -26 -181 -123 -257 -161 -362 -186
-816 -209 -1182 -59 -35 14 -63 23 -63 19 0 -4 -4 -2 -8 3 -4 6 -20 16 -37 24
-75 33 -223 129 -305 197 -601 505 -708 1369 -247 1998 334 456 937 693 1467
577z m-1025 -121 c0 -29 -32 -41 -41 -16 -9 24 4 48 23 44 12 -2 18 -12 18
-28z m1525 15 c25 -30 -10 -61 -38 -33 -7 7 -8 17 -1 30 12 22 23 23 39 3z
m-1837 -249 c7 -19 -18 -40 -38 -32 -15 6 -20 28 -8 39 12 12 41 7 46 -7z
m2164 -2 c3 -8 -1 -22 -9 -30 -19 -19 -55 4 -45 30 8 21 46 21 54 0z m-2412
-324 c0 -16 -6 -26 -18 -28 -19 -4 -32 20 -23 44 9 25 41 13 41 -16z m2645 15
c25 -30 -10 -61 -38 -33 -7 7 -8 17 -1 30 12 22 23 23 39 3z m-2792 -379 c5
-25 -12 -39 -37 -31 -24 7 -27 25 -9 43 17 17 42 11 46 -12z m2947 -6 c0 -29
-32 -41 -41 -16 -9 24 4 48 23 44 12 -2 18 -12 18 -28z m-3000 -381 c8 -26
-16 -54 -39 -46 -16 6 -22 48 -9 60 14 14 42 6 48 -14z m3060 -14 c0 -35 -31
-47 -51 -20 -18 25 0 57 29 53 17 -2 22 -10 22 -33z m-3010 -395 c0 -18 -6
-26 -21 -28 -26 -4 -40 24 -23 45 18 21 44 11 44 -17z m2950 0 c0 -29 -32 -41
-41 -16 -9 24 4 48 23 44 12 -2 18 -12 18 -28z m-2797 -364 c4 -21 -14 -37
-35 -29 -14 5 -18 35 -6 47 12 12 38 1 41 -18z m2640 12 c17 -17 15 -35 -5
-42 -23 -9 -47 22 -32 41 14 16 22 16 37 1z m-2400 -331 c4 -20 -25 -34 -40
-19 -15 15 -1 44 19 40 10 -2 19 -11 21 -21z m2162 -2 c0 -18 -5 -25 -19 -25
-23 0 -35 15 -27 35 10 26 46 18 46 -10z m-1842 -239 c4 -21 -14 -37 -35 -29
-14 5 -18 35 -6 47 12 12 38 1 41 -18z m1526 7 c11 -27 -16 -46 -39 -29 -16
12 -17 16 -6 30 17 21 37 20 45 -1z m-1170 -139 c36 -14 13 -61 -24 -49 -23 7
-26 25 -8 43 14 14 12 14 32 6z m790 0 c20 -8 21 -43 1 -50 -24 -10 -47 14
-34 37 11 21 11 21 33 13z m-384 -59 c18 -22 8 -50 -19 -50 -32 0 -49 28 -32
49 17 20 35 20 51 1z"/>
<path d="M1425 2923 c-46 -5 -162 -32 -240 -56 -38 -12 -73 -20 -77 -19 -5 1
-8 -3 -8 -8 0 -5 -4 -10 -9 -10 -11 0 -167 -76 -202 -98 -14 -10 -41 -27 -60
-39 -44 -28 -72 -50 -119 -93 -20 -19 -50 -47 -66 -62 -50 -46 -94 -94 -94
-102 0 -5 -14 -25 -30 -45 -46 -55 -47 -55 -69 -100 -12 -22 -26 -41 -31 -41
-6 0 -9 -3 -8 -7 1 -5 -14 -42 -34 -83 -31 -65 -47 -101 -53 -120 -30 -96 -41
-139 -50 -190 -2 -14 -8 -45 -12 -70 -26 -148 4 -459 59 -609 11 -31 20 -62
21 -68 0 -7 4 -13 9 -13 5 0 7 -4 4 -9 -3 -4 1 -17 9 -27 8 -10 15 -26 15 -35
0 -36 23 -48 70 -38 25 5 83 13 130 19 47 6 285 38 528 72 l444 61 66 -33 c37
-18 63 -34 57 -36 -5 -2 -127 -19 -270 -39 -609 -85 -947 -134 -953 -140 -3
-3 1 -12 9 -21 14 -13 34 -12 185 10 93 14 318 46 499 71 182 25 391 55 465
66 l135 20 58 -27 c31 -15 57 -30 57 -34 0 -3 -123 -23 -272 -44 -150 -21
-430 -60 -623 -87 -192 -27 -369 -51 -392 -54 -47 -7 -52 -14 -25 -38 16 -15
36 -13 252 18 129 19 399 57 600 85 201 28 552 78 780 110 228 32 462 65 519
72 103 12 131 24 131 55 0 12 -7 14 -27 10 -16 -3 -72 -11 -126 -18 l-98 -13
-56 29 c-72 36 -68 37 155 66 156 19 185 26 193 42 17 30 11 30 -238 -6 l-238
-35 -57 31 c-32 18 -58 34 -58 38 0 3 39 12 88 18 48 7 188 27 312 44 l225 32
7 50 c9 58 4 416 -6 460 -41 179 -131 425 -156 425 -5 0 -11 11 -14 25 -4 14
-11 25 -16 25 -6 0 -10 7 -10 15 0 9 -7 18 -15 21 -8 4 -15 10 -15 15 0 11
-14 29 -50 67 -14 14 -18 21 -10 17 8 -5 -28 31 -79 81 -127 121 -120 115
-176 154 -28 19 -52 38 -53 43 -2 4 -8 5 -13 1 -5 -3 -9 -1 -9 4 0 6 -10 12
-23 16 -12 3 -32 14 -45 26 -12 11 -25 21 -29 21 -5 1 -23 7 -42 15 -18 8 -37
14 -42 14 -5 0 -9 5 -9 12 0 6 -3 8 -6 5 -4 -3 -15 -2 -26 4 -117 63 -451 105
-643 82z m404 -293 c83 -20 100 -27 214 -78 56 -25 82 -61 35 -48 -351 95
-810 -58 -1121 -372 l-79 -79 -81 43 c-44 24 -84 44 -88 44 -22 0 -79 36 -79
49 0 18 64 88 129 141 23 19 51 43 62 53 10 9 19 15 19 12 0 -2 12 7 26 20 15
14 32 25 38 25 6 0 29 14 50 30 22 17 46 30 53 30 7 0 13 5 13 11 0 5 5 7 10
4 6 -3 10 -1 10 4 0 6 3 10 8 9 4 0 34 11 67 27 33 15 66 28 73 28 6 0 12 4
12 9 0 5 5 6 10 3 6 -4 17 -1 25 5 8 7 15 9 15 6 0 -4 8 -2 18 3 11 6 30 12
43 14 47 9 144 27 169 31 57 10 268 -4 349 -24z m186 -141 c39 -6 79 -11 90
-13 12 -1 25 -5 30 -8 6 -3 26 -9 45 -13 19 -4 40 -11 45 -15 6 -4 27 -13 49
-20 102 -33 248 -137 231 -166 -6 -9 -14 -16 -18 -15 -4 1 -44 -22 -89 -50
-65 -40 -86 -49 -98 -40 -8 6 -26 16 -40 22 -14 6 -33 18 -42 26 -10 9 -18 13
-18 9 0 -3 -10 0 -22 8 -26 17 -98 42 -143 50 -135 25 -168 28 -250 22 -51 -3
-125 -15 -166 -27 -41 -11 -88 -24 -104 -28 -41 -11 -202 -92 -225 -113 -11
-10 -23 -18 -28 -18 -5 0 -40 -29 -78 -65 -55 -53 -74 -65 -94 -61 -39 7 -180
60 -180 68 0 13 169 161 248 218 259 185 579 271 857 229z m595 -255 c22 -9
40 -19 40 -23 0 -4 18 -17 40 -30 l40 -22 0 -405 0 -404 -42 -1 c-24 0 -52 -2
-63 -4 -11 -2 -123 -17 -250 -35 -126 -17 -241 -33 -255 -36 -24 -5 86 -69
309 -179 33 -16 61 -33 61 -37 0 -7 -2 -8 -315 -49 l-241 -32 -174 93 c-96 51
-186 99 -200 107 -23 13 -48 11 -243 -16 -271 -39 -247 -40 -247 12 l0 44 198
27 c1122 156 1102 153 1102 172 0 8 -4 14 -8 14 -18 0 -1199 -165 -1259 -176
l-33 -6 0 90 0 89 53 8 c28 4 59 9 67 10 8 2 38 6 65 9 375 50 573 77 586 82
9 2 32 7 50 9 19 2 66 9 104 14 39 6 73 11 78 11 4 0 7 144 7 320 0 313 0 320
20 320 20 0 20 -7 20 -309 l0 -310 26 -20 c15 -12 33 -21 40 -21 8 0 14 -5 14
-11 0 -5 5 -7 10 -4 6 3 10 1 10 -6 0 -7 3 -9 7 -6 3 4 11 1 17 -7 6 -7 36
-27 66 -44 l55 -31 0 344 c0 189 2 346 5 348 3 3 60 13 128 23 133 19 142 24
82 48 -22 9 -40 23 -40 31 0 19 20 19 70 -1z m-833 -156 c-2 -13 -12 -50 -21
-82 -20 -74 -18 -76 50 -43 85 42 84 42 84 -73 l0 -100 -32 0 c-18 0 -51 5
-73 10 -52 12 -52 12 -26 -76 26 -90 27 -89 -71 -98 -80 -7 -86 -5 -70 27 10
20 32 115 32 137 0 11 -43 13 -79 3 -26 -7 -26 -50 3 -132 15 -46 14 -49 -40
-56 -22 -3 -56 -8 -76 -11 -44 -7 -46 0 -24 68 35 109 27 120 -49 73 -78 -48
-85 -41 -85 80 l0 106 38 -7 c20 -3 54 -10 75 -14 49 -10 51 -5 25 80 -26 85
-25 85 74 95 83 8 82 9 64 -43 -8 -22 -18 -61 -21 -86 -7 -46 -7 -46 21 -46
67 0 75 8 68 59 -4 25 -9 51 -12 56 -4 6 -7 15 -9 20 -1 6 -5 20 -8 32 -6 19
-2 22 42 28 26 4 53 8 58 10 37 13 67 4 62 -17z m-874 -85 l139 -76 -4 -398
c-2 -257 -7 -399 -13 -399 -5 0 -84 -12 -175 -25 l-165 -25 -142 72 -143 72 0
408 c0 224 3 408 8 409 4 0 77 11 162 23 185 28 162 32 333 -61z"/>
<path d="M780 2345 c0 -3 2 -5 5 -5 3 0 5 2 5 5 0 3 -2 5 -5 5 -3 0 -5 -2 -5
-5z"/>
<path d="M2540 1943 c-56 -20 -89 -119 -38 -111 14 2 24 12 28 28 4 16 13 25
25 25 36 0 28 -45 -25 -153 -74 -153 -72 -160 48 -145 50 6 53 7 50 32 -3 24
-6 25 -46 23 l-42 -4 45 93 c53 109 58 157 20 194 -24 25 -37 28 -65 18z"/>
<path d="M605 2016 l-70 -12 50 -28 c28 -16 65 -38 84 -49 32 -19 38 -19 147
-7 63 7 114 16 114 19 0 3 -36 25 -79 49 -88 46 -114 49 -246 28z"/>
<path d="M450 1602 l0 -357 56 -29 c32 -17 75 -42 98 -58 23 -15 44 -28 47
-28 10 0 6 717 -4 726 -4 4 -13 9 -20 10 -7 1 -49 22 -95 47 l-82 46 0 -357z"/>
<path d="M850 1703 c-54 -20 -60 -38 -60 -189 0 -136 1 -144 22 -158 34 -24
66 -19 99 13 l29 29 0 130 c0 109 -3 133 -17 150 -20 23 -50 33 -73 25z m38
-174 c3 -117 -7 -153 -38 -134 -11 7 -14 237 -3 249 28 28 38 -1 41 -115z"/>
<path d="M680 2585 c0 -3 2 -5 5 -5 3 0 5 2 5 5 0 3 -2 5 -5 5 -3 0 -5 -2 -5
-5z"/>
<path d="M2380 914 c-343 -50 -762 -110 -1450 -205 -162 -23 -297 -43 -299
-45 -3 -3 5 -14 17 -27 l22 -22 153 22 c83 13 411 59 727 103 316 44 667 94
780 110 113 16 251 34 308 41 97 12 104 14 118 40 8 15 14 30 14 34 0 6 39 11
-390 -51z"/>
<path d="M2625 824 c-9 -4 -808 -118 -1145 -164 -85 -12 -166 -23 -180 -25
-61 -9 -326 -46 -434 -60 -140 -17 -136 -15 -94 -47 36 -27 27 -27 241 6 18 3
147 21 287 41 140 20 363 51 495 70 132 19 308 43 390 54 358 49 448 62 456
66 4 3 18 19 29 35 l21 30 -28 -1 c-15 0 -32 -2 -38 -5z"/>
<path d="M2390 665 c-192 -31 -217 -35 -270 -41 -24 -2 -87 -11 -140 -20 -52
-8 -133 -19 -180 -24 -47 -6 -114 -15 -150 -21 -36 -6 -74 -12 -85 -14 -11 -2
-42 -6 -70 -9 -27 -4 -61 -9 -75 -11 -14 -3 -45 -7 -70 -10 -25 -3 -56 -8 -70
-10 -14 -2 -83 -11 -155 -20 -71 -9 -139 -18 -150 -20 -11 -2 -35 -4 -54 -4
-42 -1 -31 -19 29 -46 41 -19 68 -16 415 40 17 3 44 7 60 10 17 2 50 7 75 10
57 7 87 11 180 25 96 14 135 20 185 26 22 2 90 11 150 20 144 20 161 22 220
29 28 4 97 13 154 21 58 8 106 14 107 14 8 0 74 63 74 71 0 12 -11 11 -180
-16z"/>
<path d="M2345 535 c-8 -4 -178 -30 -320 -50 -55 -7 -123 -17 -145 -21 -54 -9
-378 -54 -425 -59 -27 -3 -61 -7 -75 -10 -14 -2 -86 -11 -160 -20 -74 -10
-136 -18 -138 -20 -2 -2 23 -13 55 -25 73 -29 114 -29 288 -1 77 12 181 28
230 36 50 8 116 17 148 20 32 4 68 8 80 11 25 5 56 9 142 19 214 22 265 34
326 76 32 22 59 42 59 44 0 6 -51 5 -65 0z"/>
<path d="M1980 359 c-140 -23 -184 -29 -418 -60 -195 -24 -205 -33 -56 -44
163 -13 419 28 575 91 35 14 66 28 68 30 8 8 -55 1 -169 -17z"/>
</g>
</svg>
