<?xml version="1.0" standalone="no"?>
<!DOCTYPE svg PUBLIC "-//W3C//DTD SVG 20010904//EN"
 "http://www.w3.org/TR/2001/REC-SVG-20010904/DTD/svg10.dtd">
<svg version="1.0" xmlns="http://www.w3.org/2000/svg"
 width="319.000000pt" height="319.000000pt" viewBox="0 0 319.000000 319.000000"
 preserveAspectRatio="xMidYMid meet">
<g transform="translate(0.000000,319.000000) scale(0.100000,-0.100000)"
fill="#000000" stroke="none">
<path d="M1430 3169 c-223 -27 -354 -65 -535 -155 -1101 -543 -1188 -2079
-157 -2752 461 -300 1086 -331 1582 -76 1017 522 1159 1933 267 2645 -322 258
-765 387 -1157 338z m190 -44 c0 -18 -5 -25 -19 -25 -23 0 -35 15 -27 35 10
26 46 18 46 -10z m-400 -40 c15 -17 5 -35 -20 -35 -22 0 -33 23 -17 39 15 15
22 14 37 -4z m790 0 c15 -18 5 -35 -21 -35 -12 0 -19 7 -19 18 0 33 20 42 40
17z m-120 -50 c1139 -256 1562 -1623 761 -2459 -701 -729 -1922 -538 -2370
372 -435 880 109 1937 1079 2097 115 19 426 13 530 -10z m-1034 -106 c8 -14
-21 -43 -35 -35 -19 12 -13 46 8 46 11 0 23 -5 27 -11z m1530 0 c8 -14 -21
-43 -35 -35 -6 4 -11 16 -11 27 0 21 34 27 46 8z m-1848 -252 c4 -20 -25 -34
-40 -19 -15 15 -1 44 19 40 10 -2 19 -11 21 -21z m2160 0 c4 -20 -25 -34 -40
-19 -15 15 -1 44 19 40 10 -2 19 -11 21 -21z m-2407 -331 c-16 -19 -41 -10
-41 14 0 24 21 31 39 14 11 -10 12 -16 2 -28z m2652 20 c9 -22 -19 -42 -37
-26 -19 15 -10 40 14 40 10 0 20 -6 23 -14z m-2806 -357 c16 -16 5 -39 -17
-39 -25 0 -35 18 -20 35 15 18 22 19 37 4z m2954 -33 c-16 -19 -41 -10 -41 14
0 24 21 31 39 14 11 -10 12 -16 2 -28z m-3001 -376 c0 -24 -26 -38 -42 -22
-16 16 -2 42 22 42 13 0 20 -7 20 -20z m3058 -3 c4 -20 -25 -34 -40 -19 -15
15 -1 44 19 40 10 -2 19 -11 21 -21z m-3010 -395 c3 -16 -2 -22 -17 -22 -26 0
-36 17 -20 36 16 19 33 13 37 -14z m2958 7 c8 -14 -21 -43 -35 -35 -19 12 -13
46 8 46 11 0 23 -5 27 -11z m-2806 -364 c15 -18 5 -35 -21 -35 -12 0 -19 7
-19 18 0 33 20 42 40 17z m2650 -15 c0 -13 -7 -20 -20 -20 -13 0 -20 7 -20 20
0 13 7 20 20 20 13 0 20 -7 20 -20z m-2402 -313 c4 -20 -25 -34 -40 -19 -15
15 -1 44 19 40 10 -2 19 -11 21 -21z m2160 0 c4 -20 -25 -34 -40 -19 -15 15
-1 44 19 40 10 -2 19 -11 21 -21z m-1851 -228 c16 -16 5 -39 -18 -39 -12 0
-19 7 -19 18 0 31 17 41 37 21z m1531 -17 c3 -17 -2 -22 -17 -22 -14 0 -21 6
-21 18 0 38 33 41 38 4z m-1154 -141 c3 -4 -1 -17 -9 -27 -13 -18 -15 -18 -31
-2 -9 9 -13 21 -10 27 8 13 43 15 50 2z m792 -2 c8 -14 -21 -43 -35 -35 -19
12 -13 46 8 46 11 0 23 -5 27 -11z m-396 -59 c0 -24 -26 -38 -42 -22 -16 16
-2 42 22 42 13 0 20 -7 20 -20z"/>
<path d="M1397 2934 c-100 -15 -247 -53 -247 -63 0 -3 28 -14 62 -23 60 -15
64 -15 145 9 46 13 88 21 94 18 16 -11 1 -22 -31 -23 -17 0 -38 -6 -46 -13 -8
-6 -14 -8 -14 -4 0 4 -7 2 -15 -5 -8 -6 -19 -9 -25 -5 -5 3 -10 2 -10 -4 0
-14 -40 -8 -129 18 l-73 23 -94 -46 c-51 -24 -110 -56 -129 -69 l-37 -25 49
-16 c47 -16 52 -15 109 5 32 11 64 22 71 23 7 1 15 5 19 8 5 6 64 -9 146 -37
20 -7 40 -9 45 -5 8 8 109 40 125 40 29 0 -1 -32 -47 -49 -82 -31 -98 -33
-130 -20 -17 7 -39 14 -50 16 -11 2 -24 8 -29 13 -4 4 -14 6 -21 4 -7 -3 -16
-1 -20 5 -4 7 -17 6 -42 -4 -19 -8 -44 -15 -54 -15 -11 0 -19 -3 -19 -7 0 -16
-68 -12 -120 6 l-54 19 -43 -33 c-51 -39 -123 -103 -123 -109 0 -3 27 5 61 16
54 18 65 19 107 7 26 -7 49 -14 52 -14 3 0 10 -3 15 -6 18 -10 86 -11 98 -1
23 18 118 44 135 36 9 -4 20 -8 25 -9 4 -2 9 -4 12 -5 3 -1 8 -3 13 -4 82 -19
112 -32 112 -48 0 -23 -21 -23 -90 3 -82 29 -82 29 -166 3 -87 -26 -124 -30
-124 -12 0 6 -3 9 -6 5 -4 -3 -19 0 -35 9 -16 8 -29 12 -29 10 0 -3 -11 1 -25
8 -43 23 -187 -29 -240 -85 l-40 -43 45 -14 c32 -10 53 -11 70 -4 14 5 28 10
33 11 4 0 23 8 43 16 47 20 84 26 84 15 0 -5 7 -7 15 -4 8 4 15 1 15 -5 0 -6
3 -10 8 -9 7 1 23 -4 70 -23 16 -6 37 -3 72 10 27 10 51 16 54 13 4 -3 6 0 6
6 0 14 64 27 82 16 7 -5 19 -9 26 -10 8 -2 21 -6 30 -10 20 -9 18 -8 60 -18
22 -5 32 -13 32 -27 0 -24 -40 -26 -76 -2 -26 17 -129 27 -149 15 -5 -4 -18
-8 -28 -9 -10 -2 -31 -10 -48 -18 -21 -12 -34 -13 -48 -5 -11 5 -29 10 -40 10
-12 0 -21 4 -21 10 0 5 -3 9 -7 8 -5 -1 -21 4 -38 11 -32 13 -95 7 -95 -10 0
-6 -4 -8 -9 -5 -5 3 -29 -1 -55 -10 -42 -15 -49 -14 -92 2 l-47 18 -29 -34
c-40 -48 -37 -54 46 -84 l75 -28 63 22 c35 12 67 26 73 31 15 14 43 11 84 -11
21 -10 51 -22 67 -25 16 -3 36 -7 44 -9 8 -2 24 1 35 7 11 6 22 12 25 13 3 0
23 9 44 18 59 26 146 6 143 -33 -1 -18 -37 -27 -37 -9 0 4 -7 5 -15 2 -8 -4
-15 -2 -15 4 0 14 -38 8 -84 -13 -21 -10 -44 -18 -52 -18 -8 0 -14 -3 -14 -7
0 -9 -48 -6 -75 4 -11 5 -35 15 -53 23 -44 19 -92 25 -92 11 0 -6 -3 -9 -6 -5
-3 3 -34 -5 -69 -18 -59 -22 -67 -23 -98 -10 -19 8 -37 11 -41 8 -3 -4 -6 -2
-6 4 0 13 -85 37 -99 28 -10 -6 -71 -117 -71 -129 0 -3 20 4 44 15 l45 19 77
-30 c75 -30 125 -33 139 -9 4 5 15 9 26 9 10 0 19 5 19 10 0 6 6 10 13 8 6 -1
23 2 35 6 17 6 40 1 80 -17 63 -28 122 -40 122 -26 0 6 4 8 8 5 5 -3 25 3 44
14 20 10 39 16 42 13 3 -4 6 -1 6 5 0 13 46 17 54 4 22 -35 -152 -101 -213
-80 -20 7 -38 13 -41 13 -3 1 -22 10 -44 19 -37 17 -40 17 -95 -5 -31 -13 -58
-26 -61 -30 -5 -7 -47 -5 -95 3 -11 1 -25 8 -31 13 -64 60 -186 24 -218 -64
-24 -67 -23 -67 62 -30 l71 32 81 -33 c84 -34 134 -32 174 5 24 22 94 27 122
9 11 -8 24 -11 27 -7 4 3 7 0 7 -7 0 -7 3 -10 6 -7 4 3 16 0 28 -8 23 -17 66
-20 66 -5 0 5 7 7 15 4 8 -4 15 -1 15 6 0 6 5 8 10 5 6 -3 10 -1 10 4 0 6 3
10 8 9 4 -2 22 3 40 11 26 11 35 11 47 1 18 -15 20 -42 3 -39 -7 1 -26 -4 -43
-11 -16 -7 -39 -15 -50 -17 -10 -2 -22 -7 -25 -11 -6 -8 -28 -14 -50 -13 -46
3 -60 6 -60 14 0 4 -4 5 -10 2 -5 -3 -10 -1 -10 4 0 6 -3 10 -7 9 -5 -1 -23 6
-41 16 -33 17 -34 17 -110 -15 -92 -39 -92 -39 -180 0 l-69 31 -84 -34 c-83
-33 -84 -35 -95 -77 -16 -62 -2 -65 95 -22 l81 36 81 -35 81 -35 81 35 c72 31
84 34 111 23 17 -7 36 -14 41 -15 6 -1 27 -11 47 -21 38 -19 118 -7 118 17 0
5 5 6 10 3 5 -3 10 -2 10 2 0 5 9 9 19 10 34 3 17 -30 -35 -65 -59 -41 -75
-40 -184 10 l-55 25 -60 -25 c-33 -14 -62 -29 -65 -32 -14 -15 -54 -7 -123 24
l-77 35 -67 -30 c-38 -17 -81 -32 -98 -34 -27 -2 -30 -6 -33 -43 -5 -64 19
-70 109 -27 89 43 87 43 178 1 l73 -34 67 30 c36 17 71 34 76 38 6 5 30 0 55
-10 53 -21 73 -28 81 -26 13 2 37 -26 33 -39 -10 -26 -38 -25 -94 4 -32 17
-59 28 -62 26 -2 -2 -38 -20 -80 -39 l-75 -34 -74 34 c-90 41 -85 41 -171 3
-49 -21 -80 -29 -99 -25 -28 5 -29 5 -29 -39 0 -72 26 -77 128 -26 l82 41 79
-40 80 -39 82 38 c78 37 85 39 111 25 16 -8 33 -12 38 -9 16 10 11 -7 -7 -28
-13 -15 -14 -18 -3 -12 11 6 12 5 4 -4 -8 -9 -17 -9 -37 0 -22 10 -36 7 -106
-26 l-80 -38 -80 38 -81 38 -80 -37 c-58 -26 -87 -35 -107 -30 -22 6 -25 4
-20 -10 4 -10 7 -30 7 -46 0 -46 28 -46 119 0 l81 40 80 -40 80 -40 70 35 c79
40 87 34 32 -24 -69 -73 -83 -75 -178 -28 l-82 41 -77 -37 c-42 -20 -85 -37
-96 -37 -15 0 -19 -5 -15 -17 3 -10 8 -30 12 -45 8 -34 -1 -36 94 12 l80 40
77 -40 c94 -47 128 -73 119 -89 -12 -19 -37 -13 -118 29 l-77 40 -75 -37 c-78
-38 -83 -44 -67 -86 l10 -25 66 35 65 35 84 -43 84 -43 40 26 40 27 23 -25
c17 -19 20 -27 11 -36 -7 -7 -12 -9 -12 -5 0 4 -24 -6 -54 -23 l-53 -30 -81
45 -81 46 -33 -17 c-73 -37 -77 -43 -66 -75 12 -35 10 -35 60 -7 l40 23 71
-39 c92 -50 91 -49 65 -73 l-23 -21 -58 34 c-57 33 -58 33 -86 16 -27 -16 -28
-19 -15 -44 10 -18 19 -25 33 -21 10 2 33 -3 51 -12 l32 -17 -36 -37 -36 -37
63 -79 c61 -78 231 -245 248 -245 5 0 9 47 9 105 l0 105 -38 0 c-32 0 -45 7
-85 48 l-47 47 155 155 c145 145 155 157 155 192 0 30 -4 38 -18 38 -10 0 -42
24 -71 54 l-53 54 113 148 c63 81 113 151 112 156 -2 4 1 8 6 8 9 0 260 320
280 358 19 35 14 92 -7 92 -10 0 -28 10 -40 23 l-21 22 58 80 c170 236 183
264 145 303 -9 9 -11 19 -6 26 64 83 153 220 151 234 -8 80 1 122 26 122 24 0
25 -2 25 -67 0 -66 2 -70 56 -148 31 -44 67 -97 81 -117 14 -21 29 -38 33 -38
4 0 7 -6 7 -13 0 -9 -9 -12 -24 -9 -20 4 -23 1 -23 -29 1 -34 7 -44 193 -307
43 -61 38 -87 -15 -80 -28 4 -28 4 -28 -46 l0 -51 230 -298 c126 -164 243
-314 260 -335 38 -46 38 -44 -11 -97 -33 -36 -48 -45 -75 -45 -33 0 -34 -2
-34 -38 0 -35 10 -47 155 -192 l155 -155 -47 -47 c-40 -41 -53 -48 -85 -48
l-38 0 0 -105 c0 -60 4 -105 9 -105 17 0 192 172 253 249 l59 74 -37 38 -36
37 39 21 c28 14 43 17 51 9 7 -7 15 -2 25 19 15 29 15 30 -13 46 -28 17 -30
17 -86 -18 l-58 -34 -23 21 c-27 26 -29 24 65 74 l73 39 40 -23 c23 -13 42
-22 44 -20 35 42 28 61 -36 93 l-49 25 -80 -45 -80 -46 -60 33 c-61 34 -69 45
-48 66 17 17 36 15 71 -10 l30 -22 84 43 83 43 65 -33 c70 -37 72 -36 81 7 5
28 2 31 -70 67 l-76 39 -77 -42 c-55 -30 -84 -39 -101 -35 l-25 6 24 26 c13
14 59 43 102 64 l77 39 80 -40 c96 -48 87 -48 99 -2 14 50 14 52 -9 52 -11 0
-53 16 -93 36 l-73 36 -82 -41 -82 -41 -39 20 c-22 11 -46 29 -54 40 -7 11
-17 17 -21 12 -4 -4 -6 -2 -5 3 2 6 -2 20 -9 33 -12 21 -8 20 57 -13 l71 -35
80 40 80 40 81 -40 c93 -47 114 -46 123 8 10 61 9 64 -15 51 -17 -9 -35 -5
-100 25 -95 44 -83 44 -174 -1 l-75 -37 -67 33 c-70 35 -113 46 -113 30 0 -5
-11 -3 -25 3 -30 14 -32 34 -5 43 11 3 20 10 20 14 0 16 48 3 117 -32 l73 -37
80 40 80 40 82 -41 c102 -51 128 -46 128 26 0 44 -1 44 -28 39 -20 -4 -50 4
-97 25 -84 38 -80 38 -171 -3 l-74 -35 -65 30 c-72 34 -125 46 -125 29 0 -6
-4 -8 -10 -5 -5 3 -10 1 -10 -5 0 -6 -4 -9 -9 -5 -5 3 -15 0 -23 -7 -20 -20
-43 -20 -61 0 -16 18 -13 20 62 54 l79 35 80 -38 81 -38 75 34 c92 43 91 43
176 0 74 -37 130 -37 116 1 -3 9 -6 29 -6 45 0 26 -3 29 -20 24 -11 -4 -48 7
-92 26 -88 39 -88 39 -177 -4 -66 -31 -74 -33 -99 -20 -15 8 -51 25 -81 38
l-54 22 -71 -30 c-39 -17 -73 -34 -76 -37 -8 -9 -22 -6 -57 13 -18 10 -33 15
-33 12 0 -14 -38 32 -45 53 -6 21 -5 23 13 13 11 -6 22 -7 26 -4 3 3 6 1 6 -6
0 -7 4 -10 8 -7 5 3 21 -3 36 -13 27 -18 28 -18 104 15 93 41 85 41 167 4 83
-37 84 -37 172 1 l71 32 85 -36 c97 -40 110 -38 97 17 -11 49 -11 49 -101 85
l-77 30 -81 -34 -81 -34 -82 34 -82 35 -41 -19 c-92 -42 -141 -55 -150 -40 -4
5 -11 7 -16 4 -5 -4 -9 -1 -9 4 0 6 -9 11 -19 11 -11 0 -22 4 -25 9 -4 5 -24
12 -46 16 -43 7 -47 12 -27 39 10 14 18 15 39 7 14 -5 29 -7 32 -4 3 4 6 0 6
-7 0 -7 3 -10 7 -7 3 4 20 -2 37 -12 34 -20 77 -21 99 -3 8 7 17 9 20 5 4 -3
7 -1 7 6 0 7 4 10 8 7 4 -2 26 4 49 14 37 16 43 17 63 3 11 -8 27 -16 33 -17
7 -1 26 -10 44 -19 43 -23 49 -22 139 14 l78 31 70 -31 c82 -37 83 -36 61 28
-19 57 -24 62 -87 86 -45 17 -49 17 -92 -1 -25 -11 -46 -23 -46 -27 0 -5 -4
-6 -9 -3 -5 3 -25 -1 -45 -9 -20 -8 -36 -12 -36 -7 0 4 -17 14 -37 21 -21 7
-53 19 -71 28 -32 14 -37 13 -120 -20 -79 -32 -89 -34 -109 -21 -12 8 -30 15
-40 17 -10 2 -28 8 -39 15 -12 6 -24 8 -28 5 -3 -3 -6 -1 -6 5 0 7 -6 11 -12
9 -7 -1 -14 8 -16 21 -3 18 1 22 22 22 14 0 26 -4 26 -10 0 -5 3 -9 8 -8 4 1
25 -6 47 -16 68 -30 127 -22 205 26 16 10 26 10 52 0 18 -8 38 -15 43 -16 6
-2 26 -10 46 -19 42 -19 62 -16 147 18 l63 26 44 -20 c25 -11 45 -18 45 -16 0
3 -14 34 -32 70 -38 76 -39 76 -142 35 -64 -25 -80 -28 -108 -19 -18 6 -40 13
-48 16 -8 2 -17 4 -20 5 -3 0 -14 5 -25 11 -29 16 -47 17 -62 5 -7 -6 -13 -7
-13 -3 0 4 -6 2 -14 -4 -8 -7 -26 -14 -39 -17 -14 -2 -36 -8 -49 -13 -23 -8
-83 3 -105 21 -7 5 -16 7 -21 4 -5 -3 -17 1 -27 8 -15 11 -26 11 -64 -1 -28
-8 -48 -10 -54 -4 -11 11 -2 42 10 39 4 0 21 4 36 10 35 15 64 15 72 2 4 -6
11 -8 16 -5 5 4 9 1 9 -5 0 -7 7 -10 15 -7 8 4 17 2 20 -3 15 -24 73 -31 112
-14 21 9 44 18 51 20 8 1 21 6 30 10 24 11 72 13 72 3 0 -5 7 -6 15 -3 8 4 15
2 15 -4 0 -12 59 -34 70 -27 5 3 10 -1 13 -7 4 -12 177 38 177 50 0 12 -57 82
-66 82 -6 0 -28 -7 -49 -16 -25 -10 -48 -13 -69 -8 -41 10 -37 9 -69 22 -41
17 -97 23 -97 10 0 -6 -3 -9 -6 -5 -4 3 -19 0 -35 -8 -15 -8 -36 -17 -46 -18
-10 -2 -26 -7 -36 -12 -10 -4 -24 -2 -34 6 -9 8 -18 13 -20 12 -1 -2 -4 -3 -5
-2 -2 0 -14 3 -28 5 -14 3 -26 9 -28 14 -2 5 -10 6 -18 3 -8 -3 -14 -1 -14 5
0 14 -52 7 -90 -12 -18 -8 -36 -13 -41 -10 -5 3 -9 0 -9 -5 0 -6 -14 -11 -31
-11 -58 0 -31 32 51 61 77 28 137 30 151 8 4 -8 11 -10 15 -7 4 4 16 2 28 -4
11 -7 23 -13 26 -14 3 0 12 -4 22 -8 9 -4 29 -1 46 8 16 8 32 12 36 9 3 -4 6
-1 6 6 0 8 7 11 15 7 8 -3 15 -1 15 5 0 6 4 8 9 4 5 -3 12 -1 15 4 5 8 29 7
71 -3 6 -2 24 -9 40 -15 75 -32 80 -32 122 -20 52 14 52 14 8 61 -58 62 -197
104 -260 77 -16 -7 -32 -13 -35 -14 -3 -1 -18 -7 -33 -13 -37 -16 -40 -16
-131 13 l-78 24 -75 -25 c-42 -14 -82 -23 -89 -20 -21 8 -17 36 5 36 10 0 35
7 55 15 20 9 41 13 46 10 6 -4 10 -1 10 5 0 7 7 10 15 6 8 -3 15 -1 15 4 0 10
27 9 45 -2 6 -3 25 -9 43 -13 18 -4 44 -13 58 -20 20 -10 35 -9 92 6 109 31
114 31 176 10 33 -12 61 -19 63 -17 2 2 -35 35 -83 74 l-86 70 -57 -19 c-55
-19 -96 -22 -116 -7 -6 4 -22 9 -35 12 -14 3 -40 9 -57 15 -23 6 -33 6 -33 -1
0 -5 -6 -8 -14 -5 -8 3 -16 3 -18 -1 -2 -4 -29 -15 -61 -25 -57 -18 -59 -18
-125 4 -62 20 -81 33 -82 52 0 9 34 9 44 0 3 -4 13 -8 21 -9 7 -1 30 -7 50
-14 29 -10 45 -9 83 3 26 9 58 18 72 20 14 3 30 6 35 8 6 1 23 -3 38 -9 16 -7
34 -12 41 -12 8 0 30 -7 50 -15 38 -16 126 -2 128 20 1 6 -55 39 -123 74
l-124 63 -75 -22 c-97 -30 -105 -30 -161 -9 -26 10 -49 15 -53 12 -3 -3 -12 0
-20 6 -8 7 -20 10 -25 7 -5 -4 -12 -2 -16 4 -13 21 23 20 104 -3 80 -24 85
-24 142 -9 77 21 75 26 -23 52 -184 50 -383 62 -561 34z m743 -1249 c0 -3 -2
-5 -5 -5 -3 0 -5 2 -5 5 0 3 2 5 5 5 3 0 5 -2 5 -5z m-1390 -240 c0 -3 -2 -5
-5 -5 -3 0 -5 2 -5 5 0 3 2 5 5 5 3 0 5 -2 5 -5z"/>
<path d="M1547 2620 c-56 -82 -56 -78 -11 -82 l36 -3 -99 -140 c-186 -264
-187 -265 -161 -265 18 0 49 37 152 185 71 102 130 185 132 185 2 0 60 -82
130 -182 70 -101 129 -184 130 -186 1 -2 12 -2 23 0 18 3 3 29 -119 203 l-140
200 35 3 c19 2 35 7 35 11 0 6 -80 124 -92 136 -2 2 -25 -27 -51 -65z"/>
<path d="M1235 1808 c-198 -265 -361 -485 -363 -490 -2 -4 19 -8 46 -8 l50 0
303 407 c167 223 309 413 315 421 8 11 75 -73 324 -407 l314 -421 48 0 c26 0
48 3 48 6 0 4 -51 75 -113 158 -63 83 -221 295 -352 471 -131 176 -243 326
-249 332 -9 10 -94 -98 -371 -469z"/>
<path d="M1446 1608 c-167 -238 -168 -241 -136 -236 17 2 53 45 132 158 60 85
119 170 131 187 l23 32 134 -189 c91 -130 139 -190 152 -190 33 0 39 -10 -215
350 -33 47 -63 88 -66 92 -4 4 -73 -87 -155 -204z"/>
<path d="M1374 1278 c-32 -64 -131 -251 -228 -430 l-48 -88 496 -2 c273 -2
496 0 496 4 0 3 -42 84 -94 180 -51 95 -118 220 -149 278 l-56 105 -195 3
-195 2 -27 -52z m308 -228 c37 -46 23 -55 -87 -55 l-100 0 -3 27 c-7 59 147
82 190 28z"/>
<path d="M1215 1196 c-22 -18 -130 -102 -240 -186 -110 -84 -207 -159 -215
-166 -12 -12 7 -14 123 -14 l137 0 37 61 c21 33 77 123 125 200 93 148 96 158
33 105z"/>
<path d="M1930 1227 c0 -7 228 -378 239 -390 4 -4 68 -6 141 -5 l134 3 -239
184 c-132 101 -248 191 -257 199 -10 8 -18 12 -18 9z"/>
<path d="M1537 602 c-80 -81 -97 -124 -97 -248 0 -97 1 -102 23 -108 29 -8
251 -8 271 0 19 7 23 194 5 241 -15 39 -83 127 -117 152 l-29 20 -56 -57z"/>
</g>
</svg>
