<?xml version="1.0" standalone="no"?>
<!DOCTYPE svg PUBLIC "-//W3C//DTD SVG 20010904//EN"
 "http://www.w3.org/TR/2001/REC-SVG-20010904/DTD/svg10.dtd">
<svg version="1.0" xmlns="http://www.w3.org/2000/svg"
 width="318.000000pt" height="319.000000pt" viewBox="0 0 318.000000 319.000000"
 preserveAspectRatio="xMidYMid meet">
<g transform="translate(0.000000,319.000000) scale(0.100000,-0.100000)"
fill="#000000" stroke="none">
<path d="M1440 3174 c-651 -78 -1169 -496 -1358 -1095 -95 -298 -95 -673 0
-969 420 -1314 2217 -1491 2896 -285 492 873 28 2012 -933 2290 -171 49 -455
77 -605 59z m175 -49 c0 -13 -8 -21 -22 -23 -19 -3 -23 1 -23 23 0 22 4 26 23
23 14 -2 22 -10 22 -23z m-397 -53 c3 -16 -2 -22 -17 -22 -24 0 -35 15 -27 36
9 23 40 13 44 -14z m790 0 c3 -16 -2 -22 -17 -22 -24 0 -33 13 -25 35 9 23 38
14 42 -13z m-88 -45 c1000 -240 1460 -1386 897 -2238 -368 -557 -1058 -795
-1694 -584 -826 274 -1233 1230 -857 2014 211 441 606 741 1089 826 132 23
433 14 565 -18z m-1070 -108 c0 -12 -7 -19 -19 -19 -26 0 -36 17 -21 35 15 18
40 8 40 -16z m1530 1 c0 -23 -13 -32 -34 -24 -19 7 -21 40 -3 47 20 7 37 -4
37 -23z m-1844 -231 c8 -14 -21 -43 -35 -35 -6 4 -11 16 -11 27 0 21 34 27 46
8z m2162 -12 c4 -20 -25 -34 -40 -19 -15 15 -1 44 19 40 10 -2 19 -11 21 -21z
m-2410 -315 c3 -16 -2 -22 -17 -22 -26 0 -36 17 -20 36 16 19 33 13 37 -14z
m2652 -2 c0 -24 -25 -33 -40 -14 -10 11 -10 17 0 28 15 19 40 10 40 -14z
m-2802 -368 c3 -18 -1 -22 -22 -22 -19 0 -26 5 -26 18 0 39 43 43 48 4z m2950
1 c4 -25 -22 -37 -38 -17 -10 11 -10 17 0 29 17 20 34 14 38 -12z m-3003 -398
c0 -30 -39 -27 -43 3 -3 20 0 23 20 20 15 -2 23 -10 23 -23z m3060 0 c0 -23
-34 -33 -45 -14 -13 20 1 40 24 37 13 -2 21 -10 21 -23z m-3021 -371 c19 -7
21 -40 4 -47 -20 -7 -38 4 -38 22 0 28 9 34 34 25z m2966 -24 c0 -27 -19 -35
-38 -17 -12 13 -13 19 -3 31 16 19 41 10 41 -14z m-2802 -368 c3 -16 -2 -22
-17 -22 -24 0 -35 15 -27 36 9 23 40 13 44 -14z m2650 3 c4 -20 -15 -36 -35
-28 -17 6 -17 40 0 46 19 8 32 2 35 -18z m-2405 -307 c7 -21 -4 -38 -23 -38
-10 0 -20 6 -23 13 -7 20 4 37 23 37 10 0 20 -6 23 -12z m2165 -11 c4 -20 -25
-34 -40 -19 -15 15 -1 44 19 40 10 -2 19 -11 21 -21z m-1850 -245 c3 -16 -2
-22 -17 -22 -24 0 -35 15 -27 36 9 23 40 13 44 -14z m1530 0 c3 -17 -2 -22
-18 -22 -25 0 -38 29 -19 41 20 13 34 6 37 -19z m-1158 -152 c0 -19 -25 -34
-41 -24 -13 8 -11 42 4 47 20 7 37 -4 37 -23z m790 0 c0 -27 -19 -35 -38 -17
-12 13 -13 19 -3 31 16 19 41 10 41 -14z m-395 -55 c0 -23 -34 -33 -45 -14
-13 20 1 40 24 37 13 -2 21 -10 21 -23z"/>
<path d="M1477 2898 c-81 -101 -130 -219 -148 -359 -7 -53 -16 -89 -23 -89
-81 1 -23 264 96 438 31 44 28 48 -30 36 -56 -11 -145 -216 -158 -365 -4 -38
-8 -69 -9 -69 -5 0 -140 52 -143 54 -7 8 34 181 58 244 31 80 30 81 -41 51
-54 -24 -79 -77 -95 -201 -10 -75 -14 -80 -95 -108 -58 -19 -74 -30 -82 -51
-9 -23 -64 -56 -75 -44 -2 2 0 48 6 102 5 54 8 100 7 102 -2 2 -34 -26 -71
-62 l-66 -65 7 -100 c7 -98 6 -101 -19 -135 -20 -26 -26 -46 -26 -83 0 -39 -6
-58 -33 -95 -32 -45 -33 -50 -32 -135 1 -49 5 -99 9 -111 4 -13 3 -23 -2 -23
-18 0 -66 158 -109 360 -5 23 -8 20 -30 -27 -36 -77 -79 -209 -96 -292 l-16
-74 44 -98 c48 -109 117 -231 179 -317 l41 -57 -3 -222 -3 -223 -39 -6 c-48
-8 -48 -7 -5 -66 43 -59 72 -62 128 -15 l38 33 3 245 c2 134 7 260 11 280 6
30 2 44 -23 85 l-30 49 17 180 c11 112 14 194 9 217 -5 22 -4 48 2 63 6 15 7
37 4 50 -4 18 2 36 25 67 25 33 31 52 31 91 0 79 62 159 144 187 49 16 64 26
72 48 8 20 22 31 51 40 39 12 47 10 185 -44 l143 -55 255 -2 256 -2 64 -42
c84 -54 156 -81 200 -76 l35 4 31 -112 c26 -91 30 -117 22 -142 -8 -20 -8 -44
-1 -76 6 -25 8 -77 5 -114 -3 -53 -1 -72 11 -85 9 -10 19 -46 23 -84 7 -75 24
-91 58 -59 32 29 86 -8 103 -70 16 -60 74 -107 108 -89 22 12 23 18 29 174 11
275 21 420 29 434 5 6 24 12 43 12 l34 0 0 -54 c0 -30 5 -58 10 -61 7 -5 8
-70 4 -200 -7 -184 -6 -196 14 -244 12 -27 22 -66 22 -86 0 -20 8 -49 19 -63
14 -20 20 -53 25 -127 9 -153 17 -198 37 -227 11 -14 19 -36 19 -48 0 -32 17
-15 51 52 25 50 30 69 25 102 -4 23 -9 86 -12 141 l-6 101 58 44 c33 24 60 44
61 45 5 2 21 170 18 174 -2 2 -35 -24 -72 -59 -97 -89 -97 -89 -122 -30 -16
36 -21 69 -21 131 l0 81 78 82 c103 110 108 121 93 191 -15 68 -19 68 -58 3
-17 -29 -47 -71 -67 -93 l-35 -40 -1 57 c0 31 -4 60 -10 63 -22 14 -9 82 30
159 45 87 48 103 21 147 -19 31 -19 31 -26 8 -35 -112 -45 -129 -80 -129 l-34
0 28 63 c45 100 55 152 34 183 l-17 27 -21 -84 c-33 -138 -61 -183 -112 -187
-52 -4 -51 -8 -9 70 58 106 87 278 52 307 -11 9 -14 -4 -19 -72 -10 -134 -54
-238 -144 -337 -43 -48 -131 -117 -137 -108 -4 5 -26 70 -26 78 0 3 20 20 44
37 216 152 237 494 41 688 -268 266 -724 114 -778 -259 l-11 -76 -44 0 -44 0
7 58 c18 156 99 304 210 383 36 26 43 35 30 41 -20 12 -37 1 -102 -63 -100
-99 -156 -218 -169 -358 l-7 -72 -36 3 -35 3 2 55 c6 128 62 265 153 378 l50
62 -30 0 c-23 0 -38 -10 -64 -42z m690 -285 l38 -30 3 -97 c3 -119 -3 -124
-91 -68 -34 23 -91 54 -127 70 -135 61 -146 115 -30 147 85 23 162 15 207 -22z
m214 -657 c-6 -46 -9 -51 -53 -75 -53 -30 -54 -29 -63 22 -6 28 -4 37 6 38 8
0 37 15 64 33 28 18 50 33 51 32 1 0 -2 -23 -5 -50z m-1 -129 c0 -29 -5 -36
-45 -55 -59 -29 -65 -28 -65 7 0 27 43 59 108 80 1 1 2 -14 2 -32z m-10 -116
c0 -5 -3 -22 -6 -40 l-6 -31 -29 17 c-36 22 -37 38 -1 51 35 13 42 14 42 3z"/>
<path d="M1040 2286 c0 -2 7 -23 15 -47 13 -37 13 -45 1 -57 -10 -10 -11 -23
-5 -53 7 -29 5 -57 -7 -102 -17 -64 -15 -157 5 -262 6 -32 6 -96 -1 -180 -8
-88 -8 -159 -1 -220 7 -71 6 -102 -5 -148 -14 -56 -14 -59 7 -81 15 -16 21
-35 21 -69 0 -50 4 -53 44 -37 l26 10 0 169 c0 166 -1 170 -25 199 l-25 29 5
239 c6 301 15 345 51 259 19 -46 17 -47 54 45 l32 80 -34 80 c-31 73 -40 84
-89 115 -50 32 -69 41 -69 31z"/>
<path d="M1595 2143 c4 -10 9 -27 12 -38 3 -11 10 -30 16 -43 8 -17 8 -28 0
-41 -11 -17 -11 -167 0 -178 3 -3 17 17 30 44 32 63 38 222 9 219 -12 -1 -18
8 -20 27 -3 21 -8 27 -29 27 -20 0 -24 -4 -18 -17z"/>
<path d="M1828 2123 c-1 -5 -2 -33 -3 -63 -1 -30 -6 -84 -11 -120 -5 -36 -7
-78 -3 -95 17 -77 10 -251 -11 -270 -26 -24 -25 -33 9 -70 48 -51 70 -167 36
-195 -17 -14 -13 -39 21 -122 20 -48 24 -75 24 -165 l1 -108 24 46 c22 43 23
50 17 188 l-7 142 22 -25 22 -26 8 48 c9 50 9 250 0 258 -3 3 -17 -2 -31 -11
l-26 -17 0 68 c0 38 6 89 14 114 7 25 16 117 20 205 l6 160 -30 33 c-28 30
-97 47 -102 25z"/>
<path d="M1710 1954 c0 -59 -3 -72 -14 -68 -12 4 -15 -10 -18 -71 l-3 -76 35
3 c33 3 35 5 42 48 13 82 -1 227 -23 233 -17 5 -19 -1 -19 -69z"/>
<path d="M1651 1694 c-25 -32 -4 -84 35 -84 17 0 20 -5 17 -25 -3 -13 0 -48 7
-76 12 -50 13 -51 26 -28 7 13 13 49 14 80 0 38 5 61 15 69 24 20 18 37 -22
55 -21 10 -46 22 -55 26 -12 7 -22 2 -37 -17z"/>
<path d="M1705 1363 c-5 -47 0 -117 16 -233 0 -3 9 19 19 48 15 41 17 63 11
98 -12 63 10 52 24 -12 l11 -49 7 34 c13 60 8 81 -30 127 -47 56 -50 56 -58
-13z"/>
<path d="M716 795 c-9 -14 -26 -25 -39 -25 -36 0 -67 -12 -67 -25 0 -9 54 -14
208 -18 349 -12 441 -22 370 -41 -32 -8 -396 -6 -493 3 -121 11 -125 -10 -21
-103 l68 -61 152 -2 c83 0 205 -2 271 -4 66 -2 139 1 163 5 37 8 48 6 72 -12
28 -21 36 -22 242 -16 177 5 220 3 255 -9 41 -15 99 -9 128 13 18 14 95 23 95
11 0 -33 61 -43 127 -22 58 19 66 20 86 6 33 -23 45 -19 119 41 77 63 77 69
-7 79 -27 4 -65 11 -83 17 -25 8 -48 6 -97 -7 -35 -10 -73 -15 -85 -12 -12 3
-41 -1 -65 -9 -38 -14 -55 -14 -141 -1 -59 8 -110 11 -127 6 -18 -5 -42 -3
-70 7 -22 8 -89 16 -147 19 -112 4 -141 10 -180 37 -34 25 -22 30 46 17 35 -6
93 -8 141 -4 72 6 85 4 110 -14 27 -19 35 -20 288 -11 143 5 273 13 288 19 23
9 37 7 74 -9 31 -13 67 -20 112 -20 65 0 68 1 106 40 44 46 44 46 -33 81 -45
20 -64 17 -103 -18 -30 -26 -297 -13 -556 26 -107 16 -161 19 -290 14 -126 -4
-172 -2 -226 11 -55 13 -127 16 -371 16 l-304 0 -16 -25z"/>
<path d="M1105 380 c11 -5 31 -9 45 -9 14 -1 34 -7 45 -15 15 -10 68 -13 223
-14 136 0 208 -4 215 -11 14 -14 60 -14 73 -1 10 10 227 16 243 6 6 -4 40 -4
76 0 93 10 86 30 -12 38 -43 3 -96 8 -117 11 -22 2 -46 -1 -53 -7 -8 -7 -32
-8 -66 -3 -74 10 -696 15 -672 5z"/>
<path d="M1431 241 c-16 -10 59 -43 101 -44 120 -3 216 4 234 18 17 14 14 15
-41 13 -37 -1 -68 4 -82 12 -18 12 -28 12 -56 2 -40 -14 -87 -15 -120 -3 -13
5 -29 6 -36 2z"/>
</g>
</svg>
