<?xml version="1.0" standalone="no"?>
<!DOCTYPE svg PUBLIC "-//W3C//DTD SVG 20010904//EN"
 "http://www.w3.org/TR/2001/REC-SVG-20010904/DTD/svg10.dtd">
<svg version="1.0" xmlns="http://www.w3.org/2000/svg"
 width="318.000000pt" height="319.000000pt" viewBox="0 0 318.000000 319.000000"
 preserveAspectRatio="xMidYMid meet">
<g transform="translate(0.000000,319.000000) scale(0.100000,-0.100000)"
fill="#000000" stroke="none">
<path d="M1436 3170 c-444 -51 -848 -282 -1115 -638 -124 -165 -235 -415 -283
-636 -32 -147 -32 -455 0 -602 137 -635 620 -1120 1242 -1248 460 -94 940 27
1315 334 166 136 303 310 405 515 76 152 109 245 142 399 19 85 22 133 22 301
0 216 -13 308 -69 480 -184 562 -666 980 -1248 1080 -113 19 -310 26 -411 15z
m179 -45 c0 -25 -4 -30 -25 -30 -16 0 -26 6 -28 18 -6 30 6 49 30 45 18 -2 23
-9 23 -33z m-391 -38 c8 -13 6 -21 -7 -34 -29 -30 -70 10 -45 44 12 15 40 10
52 -10z m791 3 c11 -18 -6 -50 -25 -50 -29 0 -47 37 -25 52 15 11 43 10 50 -2z
m-123 -50 c491 -104 911 -471 1088 -949 60 -164 82 -294 83 -486 1 -215 -34
-395 -113 -577 -215 -498 -672 -841 -1200 -899 -444 -49 -875 105 -1195 426
-318 318 -468 716 -434 1156 11 146 37 268 84 390 35 92 84 199 96 209 3 3 20
31 38 62 43 76 142 197 232 284 235 225 542 371 859 408 90 11 368 -4 462 -24z
m-1042 -105 c10 -12 10 -18 0 -30 -25 -30 -61 -7 -46 30 3 8 12 15 19 15 8 0
20 -7 27 -15z m1525 -15 c0 -16 -6 -26 -18 -28 -19 -4 -32 20 -23 44 9 25 41
13 41 -16z m-1845 -225 c17 -20 5 -45 -20 -45 -11 0 -23 7 -26 15 -6 15 11 45
26 45 4 0 13 -7 20 -15z m2167 -29 c-4 -9 -16 -16 -27 -16 -29 0 -38 30 -15
47 16 11 21 11 33 -1 8 -8 12 -22 9 -30z m-2407 -291 c10 -12 10 -18 0 -30
-25 -30 -61 -7 -46 30 3 8 12 15 19 15 8 0 20 -7 27 -15z m2648 -13 c4 -26
-22 -40 -43 -22 -11 9 -12 17 -4 32 13 25 43 19 47 -10z m-2793 -372 c0 -21
-5 -25 -30 -25 -25 0 -30 4 -33 28 -3 27 -1 28 30 25 28 -2 33 -7 33 -28z
m2953 3 c-4 -36 -52 -46 -63 -14 -9 29 1 41 36 41 27 0 30 -3 27 -27z m-3013
-398 c0 -25 -4 -30 -25 -30 -16 0 -26 6 -28 18 -6 30 6 49 30 45 18 -2 23 -9
23 -33z m3060 0 c0 -25 -4 -30 -25 -30 -16 0 -26 6 -28 18 -6 30 6 49 30 45
18 -2 23 -9 23 -33z m-2999 -380 c8 -20 -13 -45 -38 -45 -21 0 -33 22 -24 45
7 20 55 19 62 0z m2949 -15 c0 -20 -6 -26 -26 -28 -19 -2 -28 2 -31 15 -8 30
2 44 31 41 20 -2 26 -8 26 -28z m-2801 -356 c7 -19 -10 -44 -31 -44 -17 0 -27
24 -19 45 7 20 42 19 50 -1z m2644 -12 c4 -26 -22 -40 -43 -22 -11 9 -12 17
-4 32 13 25 43 19 47 -10z m-2403 -317 c0 -22 -31 -33 -47 -17 -17 17 -1 44
24 40 15 -2 23 -10 23 -23z m2162 9 c4 -11 -1 -22 -12 -31 -16 -11 -21 -11
-33 1 -8 8 -12 22 -9 30 8 21 46 21 54 0z m-1852 -254 c0 -29 -32 -41 -41 -16
-9 24 4 48 23 44 12 -2 18 -12 18 -28z m1533 2 c4 -28 -24 -40 -45 -19 -14 13
-14 19 -3 32 18 22 44 15 48 -13z m-1153 -152 c0 -34 -50 -42 -60 -11 -9 29 3
43 33 39 21 -2 27 -8 27 -28z m790 9 c4 -12 3 -25 -3 -31 -16 -16 -56 -5 -60
16 -7 36 52 51 63 15z m-400 -64 c0 -25 -4 -30 -25 -30 -16 0 -26 6 -28 18 -6
30 6 49 30 45 18 -2 23 -9 23 -33z"/>
<path d="M1374 2915 c-121 -22 -114 -16 -98 -88 14 -57 14 -63 -2 -74 -31 -22
-52 -16 -59 18 -9 41 -35 102 -41 97 -2 -3 5 -31 16 -63 25 -71 25 -94 3 -111
-31 -23 -41 -16 -62 49 -32 94 -32 94 -83 72 -24 -11 -71 -36 -105 -55 l-63
-36 34 -49 c70 -107 72 -112 51 -135 -10 -11 -24 -20 -30 -20 -7 0 -34 32 -60
70 -44 65 -65 89 -65 76 0 -3 22 -36 50 -74 27 -38 50 -74 50 -80 0 -13 -32
-32 -52 -32 -7 1 -37 32 -67 70 l-53 69 -42 -34 c-22 -20 -61 -58 -85 -86
l-44 -51 21 -17 c137 -104 371 -299 372 -308 0 -8 -13 -13 -35 -13 -30 0 -66
22 -221 136 -103 74 -188 133 -190 131 -2 -2 73 -59 166 -126 94 -68 170 -129
170 -137 0 -9 -12 -14 -37 -14 -29 0 -66 20 -191 100 -119 78 -157 98 -167 90
-22 -19 -102 -188 -134 -285 -30 -89 -61 -241 -61 -296 0 -28 1 -29 55 -29
l55 0 0 -40 0 -39 -62 -4 -63 -3 63 -2 62 -2 0 -40 0 -40 -56 0 -57 0 7 -67
c8 -88 27 -173 37 -173 5 0 82 20 172 45 157 43 216 52 251 39 40 -15 2 -34
-195 -97 -116 -38 -209 -70 -206 -73 3 -3 125 34 271 81 201 65 273 85 296 80
17 -4 30 -12 30 -18 0 -7 -125 -59 -278 -116 -152 -57 -280 -106 -284 -108
-13 -7 89 -213 107 -213 2 0 100 63 218 140 117 77 221 140 230 140 11 0 17
-8 17 -24 0 -20 -34 -49 -192 -164 -201 -146 -243 -179 -218 -166 8 4 94 65
192 136 97 70 181 128 187 128 6 0 11 -15 10 -32 0 -30 -13 -43 -150 -153 -82
-66 -160 -127 -171 -136 l-22 -17 48 -53 c27 -30 65 -68 85 -86 l38 -32 39 50
c63 80 74 66 51 -67 l-13 -71 47 -31 47 -31 11 57 c6 31 46 260 89 508 l78
451 -76 6 c-41 4 -180 12 -307 18 l-233 13 0 251 0 252 228 12 c125 6 269 14
320 18 l92 6 0 153 0 154 -90 0 -90 0 0 40 c0 35 4 42 38 60 20 12 64 41 97
65 33 24 73 52 88 60 31 18 111 75 139 99 9 8 35 24 58 36 22 11 40 25 40 30
0 6 5 10 12 10 6 0 19 6 27 14 9 8 49 31 90 51 l73 38 62 -33 c68 -37 206
-127 221 -145 6 -7 29 -22 52 -33 23 -12 46 -28 50 -36 4 -8 24 -21 43 -30 19
-9 62 -36 95 -60 33 -25 77 -54 98 -66 33 -18 37 -25 37 -60 l0 -40 -90 0 -90
0 0 -154 0 -153 93 -6 c50 -4 194 -12 320 -18 l227 -12 0 -252 0 -251 -301
-17 c-166 -9 -304 -19 -307 -22 -5 -4 91 -577 155 -932 l15 -81 45 30 45 31
-6 51 c-19 140 -19 136 -3 136 8 0 32 -23 53 -50 l38 -50 45 42 c78 75 121
119 121 127 0 3 -76 67 -169 141 -156 124 -170 138 -170 168 -1 17 4 32 10 32
6 0 90 -58 187 -128 186 -135 202 -146 202 -139 0 2 -94 73 -210 156 -191 139
-210 155 -210 182 0 16 4 29 10 29 5 0 111 -67 234 -148 l224 -148 35 61 c57
99 79 147 70 155 -4 4 -131 54 -280 110 -171 64 -273 108 -273 116 0 35 53 25
316 -61 146 -47 268 -84 271 -81 3 3 -90 35 -206 73 -197 64 -234 82 -195 97
34 13 92 4 255 -40 94 -25 173 -44 175 -41 7 7 34 169 34 204 0 32 -1 32 -52
35 l-53 3 -3 37 -3 37 63 4 63 3 -62 2 -63 2 0 40 0 40 55 0 55 0 0 36 c0 56
-37 224 -71 321 -31 89 -118 263 -131 263 -4 0 -76 -45 -161 -100 -124 -81
-160 -100 -190 -100 -24 0 -37 5 -37 13 0 8 69 63 153 125 161 117 201 148
177 136 -8 -4 -95 -65 -192 -136 -148 -106 -183 -128 -213 -128 -22 0 -35 5
-34 13 0 6 88 82 194 167 107 85 195 159 195 164 0 6 -37 45 -82 89 l-81 79
-23 -29 c-13 -15 -38 -47 -56 -70 -18 -23 -39 -43 -46 -43 -20 0 -52 19 -52
32 0 12 77 118 93 129 5 4 8 12 6 18 -2 6 -28 -22 -58 -64 -30 -41 -59 -75
-66 -75 -12 0 -45 31 -45 43 0 9 91 151 101 157 5 3 -42 32 -104 64 l-111 58
-23 -59 c-12 -32 -22 -63 -22 -70 -1 -18 -19 -26 -47 -19 -30 8 -31 36 -4 108
22 59 24 68 11 68 -5 0 -17 -29 -26 -65 -19 -69 -33 -79 -70 -51 -18 13 -18
16 -2 72 9 32 13 61 9 65 -4 4 -49 14 -101 23 -113 19 -335 20 -437 1z"/>
<path d="M1460 2650 c0 -5 -6 -10 -13 -10 -7 0 -23 -9 -35 -20 -12 -12 -84
-61 -160 -111 l-137 -89 124 2 124 3 23 40 c63 109 102 195 88 195 -8 0 -14
-4 -14 -10z"/>
<path d="M1184 2277 c-2 -7 -3 -85 -2 -172 l3 -160 88 -3 87 -3 0 176 0 175
-85 0 c-61 0 -87 -4 -91 -13z"/>
<path d="M1434 2277 c-2 -7 -3 -87 -2 -177 l3 -165 155 0 155 0 3 178 2 177
-155 0 c-118 0 -157 -3 -161 -13z"/>
<path d="M1820 2115 l0 -175 90 0 90 0 0 175 0 175 -90 0 -90 0 0 -175z"/>
<path d="M550 1822 l0 -62 78 0 c42 0 134 -3 205 -7 l127 -6 0 61 0 62 -68 0
c-38 0 -130 3 -205 7 l-137 6 0 -61z"/>
<path d="M2338 1873 l-118 -4 0 -61 0 -61 137 6 c75 4 167 7 205 7 l68 0 0 60
0 60 -87 -2 c-49 -1 -141 -4 -205 -5z"/>
<path d="M1040 1804 l0 -61 213 -7 c116 -4 231 -9 255 -13 l42 -5 0 66 0 66
-67 1 c-38 1 -152 4 -256 8 l-187 6 0 -61z"/>
<path d="M1950 1859 c-102 -4 -215 -7 -252 -8 l-68 -1 0 -64 0 -65 108 6 c59
2 175 8 257 11 l150 7 3 54 c2 30 0 57 -5 60 -4 3 -91 3 -193 0z"/>
<path d="M550 1637 l0 -54 58 -6 c31 -4 123 -10 205 -13 l147 -7 0 56 0 56
-42 5 c-24 3 -116 8 -205 11 l-163 6 0 -54z"/>
<path d="M2375 1679 c-77 -3 -143 -7 -147 -8 -5 0 -8 -26 -8 -57 l0 -57 148 7
c81 3 173 9 205 13 l57 6 0 53 0 54 -57 -2 c-32 -1 -121 -5 -198 -9z"/>
<path d="M1040 1611 c0 -57 2 -61 23 -61 28 0 329 -18 420 -25 l67 -5 0 64 0
63 -152 7 c-84 3 -199 9 -255 12 l-103 6 0 -61z"/>
<path d="M1900 1659 c-74 -3 -165 -7 -202 -8 l-68 -1 0 -65 0 -65 68 5 c98 8
392 25 425 25 26 0 27 1 27 60 l0 60 -57 -2 c-32 -1 -119 -5 -193 -9z"/>
<path d="M1143 1134 c-29 -164 -51 -300 -49 -302 2 -2 24 0 49 3 l44 7 157
285 c86 157 156 287 154 288 -2 2 -71 6 -153 10 l-151 7 -51 -298z"/>
<path d="M1758 1423 c-43 -2 -78 -6 -78 -8 0 -3 309 -567 313 -572 1 0 24 -4
51 -8 48 -8 49 -7 43 16 -3 13 -26 149 -53 302 l-47 277 -76 -2 c-42 -1 -111
-4 -153 -5z"/>
<path d="M1417 1092 c-65 -118 -116 -217 -113 -219 6 -6 218 38 229 47 4 3 6
92 5 197 l-3 190 -118 -215z"/>
<path d="M1642 1116 l3 -200 113 -24 c63 -13 116 -22 119 -19 2 3 -50 103
-116 224 l-121 218 2 -199z"/>
<path d="M1390 807 c-148 -30 -158 -32 -147 -43 8 -8 289 -65 294 -60 2 2 3
33 1 68 l-3 64 -145 -29z"/>
<path d="M1640 769 c0 -38 3 -69 8 -69 25 2 284 59 289 64 11 11 2 13 -149 44
l-148 29 0 -68z"/>
<path d="M1067 693 c-3 -10 -8 -36 -12 -58 l-6 -40 31 52 c16 29 30 55 30 58
0 14 -39 3 -43 -12z"/>
<path d="M2070 707 c0 -2 14 -28 30 -58 l31 -54 -7 40 c-10 65 -14 75 -35 75
-10 0 -19 -2 -19 -3z"/>
<path d="M1107 529 c-49 -88 -87 -163 -84 -166 17 -17 257 -93 292 -93 16 0
41 39 113 172 52 94 90 174 85 178 -4 5 -69 20 -143 35 -74 15 -144 29 -155
31 -17 4 -34 -21 -108 -157z"/>
<path d="M1818 657 c-81 -18 -149 -35 -153 -38 -4 -5 161 -322 182 -348 10
-13 255 58 302 88 15 10 22 -6 -89 196 -41 74 -79 135 -85 134 -5 0 -76 -15
-157 -32z"/>
<path d="M1476 364 c-65 -119 -64 -124 17 -124 l47 0 0 115 c0 63 -1 115 -2
115 -2 0 -29 -48 -62 -106z"/>
<path d="M1640 357 l0 -117 48 0 c80 0 81 5 17 121 -32 57 -59 106 -61 108 -2
2 -4 -48 -4 -112z"/>
</g>
</svg>
